<?xml version="1.0" encoding="utf-8" standalone="no"?>
<!DOCTYPE svg PUBLIC "-//W3C//DTD SVG 1.1//EN"
  "http://www.w3.org/Graphics/SVG/1.1/DTD/svg11.dtd">
<svg xmlns:xlink="http://www.w3.org/1999/xlink" width="546.484219pt" height="398.8pt" viewBox="0 0 546.484219 398.8" xmlns="http://www.w3.org/2000/svg" version="1.1">
 <metadata>
  <rdf:RDF xmlns:dc="http://purl.org/dc/elements/1.1/" xmlns:cc="http://creativecommons.org/ns#" xmlns:rdf="http://www.w3.org/1999/02/22-rdf-syntax-ns#">
   <cc:Work>
    <dc:type rdf:resource="http://purl.org/dc/dcmitype/StillImage"/>
    <dc:date>2026-06-08T10:29:51.078003</dc:date>
    <dc:format>image/svg+xml</dc:format>
    <dc:creator>
     <cc:Agent>
      <dc:title>Matplotlib v3.10.9, https://matplotlib.org/</dc:title>
     </cc:Agent>
    </dc:creator>
   </cc:Work>
  </rdf:RDF>
 </metadata>
 <defs>
  <style type="text/css">*{stroke-linejoin: round; stroke-linecap: butt}</style>
 </defs>
 <g id="figure_1">
  <g id="patch_1">
   <path d="M 0 398.8 
L 546.484219 398.8 
L 546.484219 0 
L 0 0 
L 0 398.8 
z
" style="fill: none"/>
  </g>
  <g id="axes_1">
   <g id="patch_2">
    <path d="M 190.442109 69.94 
C 193.879142 69.94 197.175865 68.574453 199.606213 66.144104 
C 202.036562 63.713755 203.402109 60.417032 203.402109 56.98 
C 203.402109 53.542968 202.036562 50.246245 199.606213 47.815896 
C 197.175865 45.385547 193.879142 44.02 190.442109 44.02 
C 187.005077 44.02 183.708354 45.385547 181.278005 47.815896 
C 178.847657 50.246245 177.482109 53.542968 177.482109 56.98 
C 177.482109 60.417032 178.847657 63.713755 181.278005 66.144104 
C 183.708354 68.574453 187.005077 69.94 190.442109 69.94 
L 190.442109 69.94 
z
" clip-path="url(#p79fba7817c)" style="fill: none; stroke: #111111; stroke-width: 1.6; stroke-linejoin: miter"/>
   </g>
   <g id="patch_3">
    <path d="M 348.842109 69.94 
C 352.279142 69.94 355.575865 68.574453 358.006213 66.144104 
C 360.436562 63.713755 361.802109 60.417032 361.802109 56.98 
C 361.802109 53.542968 360.436562 50.246245 358.006213 47.815896 
C 355.575865 45.385547 352.279142 44.02 348.842109 44.02 
C 345.405077 44.02 342.108354 45.385547 339.678005 47.815896 
C 337.247657 50.246245 335.882109 53.542968 335.882109 56.98 
C 335.882109 60.417032 337.247657 63.713755 339.678005 66.144104 
C 342.108354 68.574453 345.405077 69.94 348.842109 69.94 
L 348.842109 69.94 
z
" clip-path="url(#p79fba7817c)" style="fill: none; stroke: #111111; stroke-width: 1.6; stroke-linejoin: miter"/>
   </g>
   <g id="patch_4">
    <path d="M 190.442109 188.632 
C 194.070088 188.632 197.549962 187.190589 200.11533 184.625221 
C 202.680698 182.059853 204.122109 178.579978 204.122109 174.952 
C 204.122109 171.324022 202.680698 167.844147 200.11533 165.278779 
C 197.549962 162.713411 194.070088 161.272 190.442109 161.272 
C 186.814131 161.272 183.334257 162.713411 180.768889 165.278779 
C 178.20352 167.844147 176.762109 171.324022 176.762109 174.952 
C 176.762109 178.579978 178.20352 182.059853 180.768889 184.625221 
C 183.334257 187.190589 186.814131 188.632 190.442109 188.632 
L 190.442109 188.632 
z
" clip-path="url(#p79fba7817c)" style="fill: none; stroke: #111111; stroke-width: 1.6; stroke-linejoin: miter"/>
   </g>
   <g id="patch_5">
    <path d="M 190.442109 211.888 
C 194.070088 211.888 197.549962 210.446589 200.11533 207.881221 
C 202.680698 205.315853 204.122109 201.835978 204.122109 198.208 
C 204.122109 194.580022 202.680698 191.100147 200.11533 188.534779 
C 197.549962 185.969411 194.070088 184.528 190.442109 184.528 
C 186.814131 184.528 183.334257 185.969411 180.768889 188.534779 
C 178.20352 191.100147 176.762109 194.580022 176.762109 198.208 
C 176.762109 201.835978 178.20352 205.315853 180.768889 207.881221 
C 183.334257 210.446589 186.814131 211.888 190.442109 211.888 
L 190.442109 211.888 
z
" clip-path="url(#p79fba7817c)" style="fill: none; stroke: #111111; stroke-width: 1.6; stroke-linejoin: miter"/>
   </g>
   <g id="patch_6">
    <path d="M 348.842109 188.632 
C 352.470088 188.632 355.949962 187.190589 358.51533 184.625221 
C 361.080698 182.059853 362.522109 178.579978 362.522109 174.952 
C 362.522109 171.324022 361.080698 167.844147 358.51533 165.278779 
C 355.949962 162.713411 352.470088 161.272 348.842109 161.272 
C 345.214131 161.272 341.734257 162.713411 339.168889 165.278779 
C 336.60352 167.844147 335.162109 171.324022 335.162109 174.952 
C 335.162109 178.579978 336.60352 182.059853 339.168889 184.625221 
C 341.734257 187.190589 345.214131 188.632 348.842109 188.632 
L 348.842109 188.632 
z
" clip-path="url(#p79fba7817c)" style="fill: none; stroke: #111111; stroke-width: 1.6; stroke-linejoin: miter"/>
   </g>
   <g id="patch_7">
    <path d="M 348.842109 211.888 
C 352.470088 211.888 355.949962 210.446589 358.51533 207.881221 
C 361.080698 205.315853 362.522109 201.835978 362.522109 198.208 
C 362.522109 194.580022 361.080698 191.100147 358.51533 188.534779 
C 355.949962 185.969411 352.470088 184.528 348.842109 184.528 
C 345.214131 184.528 341.734257 185.969411 339.168889 188.534779 
C 336.60352 191.100147 335.162109 194.580022 335.162109 198.208 
C 335.162109 201.835978 336.60352 205.315853 339.168889 207.881221 
C 341.734257 210.446589 345.214131 211.888 348.842109 211.888 
L 348.842109 211.888 
z
" clip-path="url(#p79fba7817c)" style="fill: none; stroke: #111111; stroke-width: 1.6; stroke-linejoin: miter"/>
   </g>
   <g id="patch_8">
    <path d="M 190.442109 333.1 
C 193.497249 333.1 196.427669 331.88618 198.587979 329.72587 
C 200.74829 327.56556 201.962109 324.63514 201.962109 321.58 
C 201.962109 318.52486 200.74829 315.59444 198.587979 313.43413 
C 196.427669 311.27382 193.497249 310.06 190.442109 310.06 
C 187.38697 310.06 184.456549 311.27382 182.296239 313.43413 
C 180.135929 315.59444 178.922109 318.52486 178.922109 321.58 
C 178.922109 324.63514 180.135929 327.56556 182.296239 329.72587 
C 184.456549 331.88618 187.38697 333.1 190.442109 333.1 
L 190.442109 333.1 
z
" clip-path="url(#p79fba7817c)" style="fill: none; stroke: #111111; stroke-width: 1.6; stroke-linejoin: miter"/>
   </g>
   <g id="patch_9">
    <path d="M 348.842109 333.1 
C 351.897249 333.1 354.827669 331.88618 356.987979 329.72587 
C 359.14829 327.56556 360.362109 324.63514 360.362109 321.58 
C 360.362109 318.52486 359.14829 315.59444 356.987979 313.43413 
C 354.827669 311.27382 351.897249 310.06 348.842109 310.06 
C 345.78697 310.06 342.856549 311.27382 340.696239 313.43413 
C 338.535929 315.59444 337.322109 318.52486 337.322109 321.58 
C 337.322109 324.63514 338.535929 327.56556 340.696239 329.72587 
C 342.856549 331.88618 345.78697 333.1 348.842109 333.1 
L 348.842109 333.1 
z
" clip-path="url(#p79fba7817c)" style="fill: none; stroke: #111111; stroke-width: 1.6; stroke-linejoin: miter"/>
   </g>
   <g id="line2d_1">
    <path d="M 182.666109 56.98 
L 183.064879 57.645258 
L 183.463648 58.293286 
L 183.862417 58.9073 
L 184.261186 59.471398 
L 184.659956 59.970971 
L 185.058725 60.393079 
L 185.457494 60.72679 
L 185.856263 60.963461 
L 186.255032 61.096962 
L 186.653802 61.123837 
L 187.052571 61.043388 
L 187.45134 60.857699 
L 187.850109 60.571581 
L 188.248879 60.192442 
L 188.647648 59.730102 
L 189.046417 59.196537 
L 189.445186 58.605564 
L 189.843956 57.97249 
L 190.242725 57.313711 
L 190.641494 56.646289 
L 191.040263 55.98751 
L 191.439032 55.354436 
L 191.837802 54.763463 
L 192.236571 54.229898 
L 192.63534 53.767558 
L 193.034109 53.388419 
L 193.432879 53.102301 
L 193.831648 52.916612 
L 194.230417 52.836163 
L 194.629186 52.863038 
L 195.027956 52.996539 
L 195.426725 53.23321 
L 195.825494 53.566921 
L 196.224263 53.989029 
L 196.623032 54.488602 
L 197.021802 55.0527 
L 197.420571 55.666714 
L 197.81934 56.314742 
L 198.218109 56.98 
" clip-path="url(#p79fba7817c)" style="fill: none; stroke: #111111; stroke-width: 1.6; stroke-linecap: round"/>
   </g>
   <g id="line2d_2">
    <path d="M 190.442109 69.94 
L 190.442109 87.94 
" clip-path="url(#p79fba7817c)" style="fill: none; stroke: #111111; stroke-width: 1.6; stroke-linecap: round"/>
   </g>
   <g id="line2d_3">
    <path d="M 341.066109 56.98 
L 341.464879 57.645258 
L 341.863648 58.293286 
L 342.262417 58.9073 
L 342.661186 59.471398 
L 343.059956 59.970971 
L 343.458725 60.393079 
L 343.857494 60.72679 
L 344.256263 60.963461 
L 344.655032 61.096962 
L 345.053802 61.123837 
L 345.452571 61.043388 
L 345.85134 60.857699 
L 346.250109 60.571581 
L 346.648879 60.192442 
L 347.047648 59.730102 
L 347.446417 59.196537 
L 347.845186 58.605564 
L 348.243956 57.97249 
L 348.642725 57.313711 
L 349.041494 56.646289 
L 349.440263 55.98751 
L 349.839032 55.354436 
L 350.237802 54.763463 
L 350.636571 54.229898 
L 351.03534 53.767558 
L 351.434109 53.388419 
L 351.832879 53.102301 
L 352.231648 52.916612 
L 352.630417 52.836163 
L 353.029186 52.863038 
L 353.427956 52.996539 
L 353.826725 53.23321 
L 354.225494 53.566921 
L 354.624263 53.989029 
L 355.023032 54.488602 
L 355.421802 55.0527 
L 355.820571 55.666714 
L 356.21934 56.314742 
L 356.618109 56.98 
" clip-path="url(#p79fba7817c)" style="fill: none; stroke: #111111; stroke-width: 1.6; stroke-linecap: round"/>
   </g>
   <g id="line2d_4">
    <path d="M 348.842109 69.94 
L 348.842109 87.94 
" clip-path="url(#p79fba7817c)" style="fill: none; stroke: #111111; stroke-width: 1.6; stroke-linecap: round"/>
   </g>
   <g id="line2d_5">
    <path d="M 190.442109 71.38 
L 190.442109 82.18 
L 190.442109 92.98 
" clip-path="url(#p79fba7817c)" style="fill: none; stroke: #111111; stroke-width: 1.6; stroke-linecap: round"/>
   </g>
   <g id="line2d_6">
    <path d="M 190.442109 82.18 
L 190.442109 99.82 
" clip-path="url(#p79fba7817c)" style="fill: none; stroke: #111111; stroke-width: 1.6; stroke-linecap: round"/>
   </g>
   <g id="line2d_7">
    <path d="M 190.442109 114.94 
L 190.442109 132.58 
" clip-path="url(#p79fba7817c)" style="fill: none; stroke: #111111; stroke-width: 1.6; stroke-linecap: round"/>
   </g>
   <g id="line2d_8">
    <path d="M 190.442109 128.98 
L 190.442109 132.58 
L 190.442109 136.18 
" clip-path="url(#p79fba7817c)" style="fill: none; stroke: #111111; stroke-width: 1.6; stroke-linecap: round"/>
   </g>
   <g id="line2d_9">
    <path d="M 348.842109 71.38 
L 348.842109 82.18 
L 348.842109 92.98 
" clip-path="url(#p79fba7817c)" style="fill: none; stroke: #111111; stroke-width: 1.6; stroke-linecap: round"/>
   </g>
   <g id="line2d_10">
    <path d="M 348.842109 82.18 
L 348.842109 99.82 
" clip-path="url(#p79fba7817c)" style="fill: none; stroke: #111111; stroke-width: 1.6; stroke-linecap: round"/>
   </g>
   <g id="line2d_11">
    <path d="M 348.842109 114.94 
L 348.842109 132.58 
" clip-path="url(#p79fba7817c)" style="fill: none; stroke: #111111; stroke-width: 1.6; stroke-linecap: round"/>
   </g>
   <g id="line2d_12">
    <path d="M 348.842109 128.98 
L 348.842109 132.58 
L 348.842109 136.18 
" clip-path="url(#p79fba7817c)" style="fill: none; stroke: #111111; stroke-width: 1.6; stroke-linecap: round"/>
   </g>
   <g id="line2d_13">
    <path d="M 147.242109 136.18 
L 199.442109 136.18 
L 251.642109 136.18 
" clip-path="url(#p79fba7817c)" style="fill: none; stroke: #b22222; stroke-width: 6; stroke-linecap: round"/>
   </g>
   <g id="line2d_14">
    <path d="M 287.642109 136.18 
L 339.842109 136.18 
L 392.042109 136.18 
" clip-path="url(#p79fba7817c)" style="fill: none; stroke: #b22222; stroke-width: 6; stroke-linecap: round"/>
   </g>
   <g id="line2d_15">
    <path d="M 251.642109 136.18 
L 253.442109 136.18 
L 255.242109 136.18 
" clip-path="url(#p79fba7817c)" style="fill: none; stroke: #b22222; stroke-width: 1.6; stroke-linecap: round"/>
   </g>
   <g id="line2d_16">
    <path d="M 287.642109 136.18 
L 285.842109 136.18 
L 284.042109 136.18 
" clip-path="url(#p79fba7817c)" style="fill: none; stroke: #b22222; stroke-width: 1.6; stroke-linecap: round"/>
   </g>
   <g id="line2d_17">
    <path d="M 294.842109 136.18 
L 277.202109 136.18 
" clip-path="url(#p79fba7817c)" style="fill: none; stroke: #111111; stroke-width: 1.6; stroke-linecap: round"/>
   </g>
   <g id="line2d_18">
    <path d="M 262.082109 136.18 
L 244.442109 136.18 
" clip-path="url(#p79fba7817c)" style="fill: none; stroke: #111111; stroke-width: 1.6; stroke-linecap: round"/>
   </g>
   <g id="line2d_19">
    <path d="M 190.442109 136.18 
L 190.442109 143.38 
L 190.442109 150.58 
" clip-path="url(#p79fba7817c)" style="fill: none; stroke: #b22222; stroke-width: 1.6; stroke-linecap: round"/>
   </g>
   <g id="line2d_20">
    <path d="M 190.442109 143.272 
L 190.442109 161.272 
" clip-path="url(#p79fba7817c)" style="fill: none; stroke: #111111; stroke-width: 1.6; stroke-linecap: round"/>
   </g>
   <g id="line2d_21">
    <path d="M 190.442109 211.888 
L 190.442109 229.888 
" clip-path="url(#p79fba7817c)" style="fill: none; stroke: #111111; stroke-width: 1.6; stroke-linecap: round"/>
   </g>
   <g id="line2d_22">
    <path d="M 190.442109 222.58 
L 190.442109 218.98 
L 190.442109 215.38 
" clip-path="url(#p79fba7817c)" style="fill: none; stroke: #111111; stroke-width: 1.6; stroke-linecap: round"/>
   </g>
   <g id="line2d_23">
    <path d="M 190.442109 211.78 
L 190.442109 229.42 
" clip-path="url(#p79fba7817c)" style="fill: none; stroke: #111111; stroke-width: 1.6; stroke-linecap: round"/>
   </g>
   <g id="line2d_24">
    <path d="M 190.442109 244.54 
L 190.442109 262.18 
" clip-path="url(#p79fba7817c)" style="fill: none; stroke: #111111; stroke-width: 1.6; stroke-linecap: round"/>
   </g>
   <g id="line2d_25">
    <path d="M 190.442109 258.58 
L 190.442109 263.98 
L 190.442109 269.38 
" clip-path="url(#p79fba7817c)" style="fill: none; stroke: #111111; stroke-width: 1.6; stroke-linecap: round"/>
   </g>
   <g id="line2d_26">
    <path d="M 348.842109 136.18 
L 348.842109 143.38 
L 348.842109 150.58 
" clip-path="url(#p79fba7817c)" style="fill: none; stroke: #b22222; stroke-width: 1.6; stroke-linecap: round"/>
   </g>
   <g id="line2d_27">
    <path d="M 348.842109 143.272 
L 348.842109 161.272 
" clip-path="url(#p79fba7817c)" style="fill: none; stroke: #111111; stroke-width: 1.6; stroke-linecap: round"/>
   </g>
   <g id="line2d_28">
    <path d="M 348.842109 211.888 
L 348.842109 229.888 
" clip-path="url(#p79fba7817c)" style="fill: none; stroke: #111111; stroke-width: 1.6; stroke-linecap: round"/>
   </g>
   <g id="line2d_29">
    <path d="M 348.842109 222.58 
L 348.842109 218.98 
L 348.842109 215.38 
" clip-path="url(#p79fba7817c)" style="fill: none; stroke: #111111; stroke-width: 1.6; stroke-linecap: round"/>
   </g>
   <g id="line2d_30">
    <path d="M 348.842109 211.78 
L 348.842109 229.42 
" clip-path="url(#p79fba7817c)" style="fill: none; stroke: #111111; stroke-width: 1.6; stroke-linecap: round"/>
   </g>
   <g id="line2d_31">
    <path d="M 348.842109 244.54 
L 348.842109 262.18 
" clip-path="url(#p79fba7817c)" style="fill: none; stroke: #111111; stroke-width: 1.6; stroke-linecap: round"/>
   </g>
   <g id="line2d_32">
    <path d="M 348.842109 258.58 
L 348.842109 263.98 
L 348.842109 269.38 
" clip-path="url(#p79fba7817c)" style="fill: none; stroke: #111111; stroke-width: 1.6; stroke-linecap: round"/>
   </g>
   <g id="line2d_33">
    <path d="M 136.442109 269.38 
L 192.242109 269.38 
L 248.042109 269.38 
" clip-path="url(#p79fba7817c)" style="fill: none; stroke: #11457e; stroke-width: 6; stroke-linecap: round"/>
   </g>
   <g id="line2d_34">
    <path d="M 291.242109 269.38 
L 347.042109 269.38 
L 402.842109 269.38 
" clip-path="url(#p79fba7817c)" style="fill: none; stroke: #11457e; stroke-width: 6; stroke-linecap: round"/>
   </g>
   <g id="line2d_35">
    <path d="M 248.042109 269.38 
L 251.642109 269.38 
L 255.242109 269.38 
" clip-path="url(#p79fba7817c)" style="fill: none; stroke: #11457e; stroke-width: 1.6; stroke-linecap: round"/>
   </g>
   <g id="line2d_36">
    <path d="M 291.242109 269.38 
L 287.642109 269.38 
L 284.042109 269.38 
" clip-path="url(#p79fba7817c)" style="fill: none; stroke: #11457e; stroke-width: 1.6; stroke-linecap: round"/>
   </g>
   <g id="line2d_37">
    <path d="M 294.842109 269.38 
L 277.202109 269.38 
" clip-path="url(#p79fba7817c)" style="fill: none; stroke: #111111; stroke-width: 1.6; stroke-linecap: round"/>
   </g>
   <g id="line2d_38">
    <path d="M 262.082109 269.38 
L 244.442109 269.38 
" clip-path="url(#p79fba7817c)" style="fill: none; stroke: #111111; stroke-width: 1.6; stroke-linecap: round"/>
   </g>
   <g id="line2d_39">
    <path d="M 190.442109 269.38 
L 190.442109 289.18 
L 190.442109 308.98 
" clip-path="url(#p79fba7817c)" style="fill: none; stroke: #111111; stroke-width: 1.6; stroke-linecap: round"/>
   </g>
   <g id="line2d_40">
    <path d="M 190.442109 293.86 
L 190.442109 310.06 
" clip-path="url(#p79fba7817c)" style="fill: none; stroke: #111111; stroke-width: 1.6; stroke-linecap: round"/>
   </g>
   <g id="line2d_41">
    <path d="M 348.842109 269.38 
L 348.842109 289.18 
L 348.842109 308.98 
" clip-path="url(#p79fba7817c)" style="fill: none; stroke: #111111; stroke-width: 1.6; stroke-linecap: round"/>
   </g>
   <g id="line2d_42">
    <path d="M 348.842109 293.86 
L 348.842109 310.06 
" clip-path="url(#p79fba7817c)" style="fill: none; stroke: #111111; stroke-width: 1.6; stroke-linecap: round"/>
   </g>
   <g id="text_1">
    <!-- Feed 1 -->
    <g style="fill: #555555" transform="translate(180.683359 37.5875) scale(0.08 -0.08)">
     <defs>
      <path id="DejaVuSans-46" d="M 628 4666 
L 3309 4666 
L 3309 4134 
L 1259 4134 
L 1259 2759 
L 3109 2759 
L 3109 2228 
L 1259 2228 
L 1259 0 
L 628 0 
L 628 4666 
z
" transform="scale(0.015625)"/>
      <path id="DejaVuSans-65" d="M 3597 1894 
L 3597 1613 
L 953 1613 
Q 991 1019 1311 708 
Q 1631 397 2203 397 
Q 2534 397 2845 478 
Q 3156 559 3463 722 
L 3463 178 
Q 3153 47 2828 -22 
Q 2503 -91 2169 -91 
Q 1331 -91 842 396 
Q 353 884 353 1716 
Q 353 2575 817 3079 
Q 1281 3584 2069 3584 
Q 2775 3584 3186 3129 
Q 3597 2675 3597 1894 
z
M 3022 2063 
Q 3016 2534 2758 2815 
Q 2500 3097 2075 3097 
Q 1594 3097 1305 2825 
Q 1016 2553 972 2059 
L 3022 2063 
z
" transform="scale(0.015625)"/>
      <path id="DejaVuSans-64" d="M 2906 2969 
L 2906 4863 
L 3481 4863 
L 3481 0 
L 2906 0 
L 2906 525 
Q 2725 213 2448 61 
Q 2172 -91 1784 -91 
Q 1150 -91 751 415 
Q 353 922 353 1747 
Q 353 2572 751 3078 
Q 1150 3584 1784 3584 
Q 2172 3584 2448 3432 
Q 2725 3281 2906 2969 
z
M 947 1747 
Q 947 1113 1208 752 
Q 1469 391 1925 391 
Q 2381 391 2643 752 
Q 2906 1113 2906 1747 
Q 2906 2381 2643 2742 
Q 2381 3103 1925 3103 
Q 1469 3103 1208 2742 
Q 947 2381 947 1747 
z
" transform="scale(0.015625)"/>
      <path id="DejaVuSans-20" transform="scale(0.015625)"/>
      <path id="DejaVuSans-31" d="M 794 531 
L 1825 531 
L 1825 4091 
L 703 3866 
L 703 4441 
L 1819 4666 
L 2450 4666 
L 2450 531 
L 3481 531 
L 3481 0 
L 794 0 
L 794 531 
z
" transform="scale(0.015625)"/>
     </defs>
     <use xlink:href="#DejaVuSans-46"/>
     <use xlink:href="#DejaVuSans-65" transform="translate(52.019531 0)"/>
     <use xlink:href="#DejaVuSans-65" transform="translate(113.542969 0)"/>
     <use xlink:href="#DejaVuSans-64" transform="translate(175.066406 0)"/>
     <use xlink:href="#DejaVuSans-20" transform="translate(238.542969 0)"/>
     <use xlink:href="#DejaVuSans-31" transform="translate(270.330078 0)"/>
    </g>
   </g>
   <g id="text_2">
    <!-- Feed 2 -->
    <g style="fill: #555555" transform="translate(339.083359 37.5875) scale(0.08 -0.08)">
     <defs>
      <path id="DejaVuSans-32" d="M 1228 531 
L 3431 531 
L 3431 0 
L 469 0 
L 469 531 
Q 828 903 1448 1529 
Q 2069 2156 2228 2338 
Q 2531 2678 2651 2914 
Q 2772 3150 2772 3378 
Q 2772 3750 2511 3984 
Q 2250 4219 1831 4219 
Q 1534 4219 1204 4116 
Q 875 4013 500 3803 
L 500 4441 
Q 881 4594 1212 4672 
Q 1544 4750 1819 4750 
Q 2544 4750 2975 4387 
Q 3406 4025 3406 3419 
Q 3406 3131 3298 2873 
Q 3191 2616 2906 2266 
Q 2828 2175 2409 1742 
Q 1991 1309 1228 531 
z
" transform="scale(0.015625)"/>
     </defs>
     <use xlink:href="#DejaVuSans-46"/>
     <use xlink:href="#DejaVuSans-65" transform="translate(52.019531 0)"/>
     <use xlink:href="#DejaVuSans-65" transform="translate(113.542969 0)"/>
     <use xlink:href="#DejaVuSans-64" transform="translate(175.066406 0)"/>
     <use xlink:href="#DejaVuSans-20" transform="translate(238.542969 0)"/>
     <use xlink:href="#DejaVuSans-32" transform="translate(270.330078 0)"/>
    </g>
   </g>
   <g id="patch_10">
    <path d="M 182.882109 114.94 
L 198.002109 114.94 
L 198.002109 99.82 
L 182.882109 99.82 
z
" clip-path="url(#p79fba7817c)" style="fill: #111111; stroke: #111111; stroke-width: 1.6; stroke-linecap: round"/>
   </g>
   <g id="patch_11">
    <path d="M 341.282109 114.94 
L 356.402109 114.94 
L 356.402109 99.82 
L 341.282109 99.82 
z
" clip-path="url(#p79fba7817c)" style="fill: #111111; stroke: #111111; stroke-width: 1.6; stroke-linecap: round"/>
   </g>
   <g id="patch_12">
    <path d="M 262.082109 143.74 
L 262.082109 128.62 
L 277.202109 128.62 
L 277.202109 143.74 
z
" clip-path="url(#p79fba7817c)" style="fill: #111111; stroke: #111111; stroke-width: 1.6; stroke-linecap: round"/>
   </g>
   <g id="text_3">
    <!-- MV bus-section -->
    <g style="fill: #555555" transform="translate(235.575859 127.5875) scale(0.08 -0.08)">
     <defs>
      <path id="DejaVuSans-4d" d="M 628 4666 
L 1569 4666 
L 2759 1491 
L 3956 4666 
L 4897 4666 
L 4897 0 
L 4281 0 
L 4281 4097 
L 3078 897 
L 2444 897 
L 1241 4097 
L 1241 0 
L 628 0 
L 628 4666 
z
" transform="scale(0.015625)"/>
      <path id="DejaVuSans-56" d="M 1831 0 
L 50 4666 
L 709 4666 
L 2188 738 
L 3669 4666 
L 4325 4666 
L 2547 0 
L 1831 0 
z
" transform="scale(0.015625)"/>
      <path id="DejaVuSans-62" d="M 3116 1747 
Q 3116 2381 2855 2742 
Q 2594 3103 2138 3103 
Q 1681 3103 1420 2742 
Q 1159 2381 1159 1747 
Q 1159 1113 1420 752 
Q 1681 391 2138 391 
Q 2594 391 2855 752 
Q 3116 1113 3116 1747 
z
M 1159 2969 
Q 1341 3281 1617 3432 
Q 1894 3584 2278 3584 
Q 2916 3584 3314 3078 
Q 3713 2572 3713 1747 
Q 3713 922 3314 415 
Q 2916 -91 2278 -91 
Q 1894 -91 1617 61 
Q 1341 213 1159 525 
L 1159 0 
L 581 0 
L 581 4863 
L 1159 4863 
L 1159 2969 
z
" transform="scale(0.015625)"/>
      <path id="DejaVuSans-75" d="M 544 1381 
L 544 3500 
L 1119 3500 
L 1119 1403 
Q 1119 906 1312 657 
Q 1506 409 1894 409 
Q 2359 409 2629 706 
Q 2900 1003 2900 1516 
L 2900 3500 
L 3475 3500 
L 3475 0 
L 2900 0 
L 2900 538 
Q 2691 219 2414 64 
Q 2138 -91 1772 -91 
Q 1169 -91 856 284 
Q 544 659 544 1381 
z
M 1991 3584 
L 1991 3584 
z
" transform="scale(0.015625)"/>
      <path id="DejaVuSans-73" d="M 2834 3397 
L 2834 2853 
Q 2591 2978 2328 3040 
Q 2066 3103 1784 3103 
Q 1356 3103 1142 2972 
Q 928 2841 928 2578 
Q 928 2378 1081 2264 
Q 1234 2150 1697 2047 
L 1894 2003 
Q 2506 1872 2764 1633 
Q 3022 1394 3022 966 
Q 3022 478 2636 193 
Q 2250 -91 1575 -91 
Q 1294 -91 989 -36 
Q 684 19 347 128 
L 347 722 
Q 666 556 975 473 
Q 1284 391 1588 391 
Q 1994 391 2212 530 
Q 2431 669 2431 922 
Q 2431 1156 2273 1281 
Q 2116 1406 1581 1522 
L 1381 1569 
Q 847 1681 609 1914 
Q 372 2147 372 2553 
Q 372 3047 722 3315 
Q 1072 3584 1716 3584 
Q 2034 3584 2315 3537 
Q 2597 3491 2834 3397 
z
" transform="scale(0.015625)"/>
      <path id="DejaVuSans-2d" d="M 313 2009 
L 1997 2009 
L 1997 1497 
L 313 1497 
L 313 2009 
z
" transform="scale(0.015625)"/>
      <path id="DejaVuSans-63" d="M 3122 3366 
L 3122 2828 
Q 2878 2963 2633 3030 
Q 2388 3097 2138 3097 
Q 1578 3097 1268 2742 
Q 959 2388 959 1747 
Q 959 1106 1268 751 
Q 1578 397 2138 397 
Q 2388 397 2633 464 
Q 2878 531 3122 666 
L 3122 134 
Q 2881 22 2623 -34 
Q 2366 -91 2075 -91 
Q 1284 -91 818 406 
Q 353 903 353 1747 
Q 353 2603 823 3093 
Q 1294 3584 2113 3584 
Q 2378 3584 2631 3529 
Q 2884 3475 3122 3366 
z
" transform="scale(0.015625)"/>
      <path id="DejaVuSans-74" d="M 1172 4494 
L 1172 3500 
L 2356 3500 
L 2356 3053 
L 1172 3053 
L 1172 1153 
Q 1172 725 1289 603 
Q 1406 481 1766 481 
L 2356 481 
L 2356 0 
L 1766 0 
Q 1100 0 847 248 
Q 594 497 594 1153 
L 594 3053 
L 172 3053 
L 172 3500 
L 594 3500 
L 594 4494 
L 1172 4494 
z
" transform="scale(0.015625)"/>
      <path id="DejaVuSans-69" d="M 603 3500 
L 1178 3500 
L 1178 0 
L 603 0 
L 603 3500 
z
M 603 4863 
L 1178 4863 
L 1178 4134 
L 603 4134 
L 603 4863 
z
" transform="scale(0.015625)"/>
      <path id="DejaVuSans-6f" d="M 1959 3097 
Q 1497 3097 1228 2736 
Q 959 2375 959 1747 
Q 959 1119 1226 758 
Q 1494 397 1959 397 
Q 2419 397 2687 759 
Q 2956 1122 2956 1747 
Q 2956 2369 2687 2733 
Q 2419 3097 1959 3097 
z
M 1959 3584 
Q 2709 3584 3137 3096 
Q 3566 2609 3566 1747 
Q 3566 888 3137 398 
Q 2709 -91 1959 -91 
Q 1206 -91 779 398 
Q 353 888 353 1747 
Q 353 2609 779 3096 
Q 1206 3584 1959 3584 
z
" transform="scale(0.015625)"/>
      <path id="DejaVuSans-6e" d="M 3513 2113 
L 3513 0 
L 2938 0 
L 2938 2094 
Q 2938 2591 2744 2837 
Q 2550 3084 2163 3084 
Q 1697 3084 1428 2787 
Q 1159 2491 1159 1978 
L 1159 0 
L 581 0 
L 581 3500 
L 1159 3500 
L 1159 2956 
Q 1366 3272 1645 3428 
Q 1925 3584 2291 3584 
Q 2894 3584 3203 3211 
Q 3513 2838 3513 2113 
z
" transform="scale(0.015625)"/>
     </defs>
     <use xlink:href="#DejaVuSans-4d"/>
     <use xlink:href="#DejaVuSans-56" transform="translate(86.279297 0)"/>
     <use xlink:href="#DejaVuSans-20" transform="translate(154.6875 0)"/>
     <use xlink:href="#DejaVuSans-62" transform="translate(186.474609 0)"/>
     <use xlink:href="#DejaVuSans-75" transform="translate(249.951172 0)"/>
     <use xlink:href="#DejaVuSans-73" transform="translate(313.330078 0)"/>
     <use xlink:href="#DejaVuSans-2d" transform="translate(365.429688 0)"/>
     <use xlink:href="#DejaVuSans-73" transform="translate(401.513672 0)"/>
     <use xlink:href="#DejaVuSans-65" transform="translate(453.613281 0)"/>
     <use xlink:href="#DejaVuSans-63" transform="translate(515.136719 0)"/>
     <use xlink:href="#DejaVuSans-74" transform="translate(570.117188 0)"/>
     <use xlink:href="#DejaVuSans-69" transform="translate(609.326172 0)"/>
     <use xlink:href="#DejaVuSans-6f" transform="translate(637.109375 0)"/>
     <use xlink:href="#DejaVuSans-6e" transform="translate(698.291016 0)"/>
    </g>
   </g>
   <g id="text_4">
    <!-- TX-1 -->
    <g style="fill: #111111" transform="translate(212.042109 188.619375) scale(0.1 -0.1)">
     <defs>
      <path id="DejaVuSans-54" d="M -19 4666 
L 3928 4666 
L 3928 4134 
L 2272 4134 
L 2272 0 
L 1638 0 
L 1638 4134 
L -19 4134 
L -19 4666 
z
" transform="scale(0.015625)"/>
      <path id="DejaVuSans-58" d="M 403 4666 
L 1081 4666 
L 2241 2931 
L 3406 4666 
L 4084 4666 
L 2584 2425 
L 4184 0 
L 3506 0 
L 2194 1984 
L 872 0 
L 191 0 
L 1856 2491 
L 403 4666 
z
" transform="scale(0.015625)"/>
     </defs>
     <use xlink:href="#DejaVuSans-54"/>
     <use xlink:href="#DejaVuSans-58" transform="translate(61.083984 0)"/>
     <use xlink:href="#DejaVuSans-2d" transform="translate(124.589844 0)"/>
     <use xlink:href="#DejaVuSans-31" transform="translate(160.673828 0)"/>
    </g>
   </g>
   <g id="text_5">
    <!-- 1600 kVA -->
    <g style="fill: #555555" transform="translate(212.042109 198.1475) scale(0.08 -0.08)">
     <defs>
      <path id="DejaVuSans-36" d="M 2113 2584 
Q 1688 2584 1439 2293 
Q 1191 2003 1191 1497 
Q 1191 994 1439 701 
Q 1688 409 2113 409 
Q 2538 409 2786 701 
Q 3034 994 3034 1497 
Q 3034 2003 2786 2293 
Q 2538 2584 2113 2584 
z
M 3366 4563 
L 3366 3988 
Q 3128 4100 2886 4159 
Q 2644 4219 2406 4219 
Q 1781 4219 1451 3797 
Q 1122 3375 1075 2522 
Q 1259 2794 1537 2939 
Q 1816 3084 2150 3084 
Q 2853 3084 3261 2657 
Q 3669 2231 3669 1497 
Q 3669 778 3244 343 
Q 2819 -91 2113 -91 
Q 1303 -91 875 529 
Q 447 1150 447 2328 
Q 447 3434 972 4092 
Q 1497 4750 2381 4750 
Q 2619 4750 2861 4703 
Q 3103 4656 3366 4563 
z
" transform="scale(0.015625)"/>
      <path id="DejaVuSans-30" d="M 2034 4250 
Q 1547 4250 1301 3770 
Q 1056 3291 1056 2328 
Q 1056 1369 1301 889 
Q 1547 409 2034 409 
Q 2525 409 2770 889 
Q 3016 1369 3016 2328 
Q 3016 3291 2770 3770 
Q 2525 4250 2034 4250 
z
M 2034 4750 
Q 2819 4750 3233 4129 
Q 3647 3509 3647 2328 
Q 3647 1150 3233 529 
Q 2819 -91 2034 -91 
Q 1250 -91 836 529 
Q 422 1150 422 2328 
Q 422 3509 836 4129 
Q 1250 4750 2034 4750 
z
" transform="scale(0.015625)"/>
      <path id="DejaVuSans-6b" d="M 581 4863 
L 1159 4863 
L 1159 1991 
L 2875 3500 
L 3609 3500 
L 1753 1863 
L 3688 0 
L 2938 0 
L 1159 1709 
L 1159 0 
L 581 0 
L 581 4863 
z
" transform="scale(0.015625)"/>
      <path id="DejaVuSans-41" d="M 2188 4044 
L 1331 1722 
L 3047 1722 
L 2188 4044 
z
M 1831 4666 
L 2547 4666 
L 4325 0 
L 3669 0 
L 3244 1197 
L 1141 1197 
L 716 0 
L 50 0 
L 1831 4666 
z
" transform="scale(0.015625)"/>
     </defs>
     <use xlink:href="#DejaVuSans-31"/>
     <use xlink:href="#DejaVuSans-36" transform="translate(63.623047 0)"/>
     <use xlink:href="#DejaVuSans-30" transform="translate(127.246094 0)"/>
     <use xlink:href="#DejaVuSans-30" transform="translate(190.869141 0)"/>
     <use xlink:href="#DejaVuSans-20" transform="translate(254.492188 0)"/>
     <use xlink:href="#DejaVuSans-6b" transform="translate(286.279297 0)"/>
     <use xlink:href="#DejaVuSans-56" transform="translate(344.189453 0)"/>
     <use xlink:href="#DejaVuSans-41" transform="translate(406.222656 0)"/>
    </g>
   </g>
   <g id="patch_13">
    <path d="M 182.882109 244.54 
L 198.002109 244.54 
L 198.002109 229.42 
L 182.882109 229.42 
z
" clip-path="url(#p79fba7817c)" style="fill: #111111; stroke: #111111; stroke-width: 1.6; stroke-linecap: round"/>
   </g>
   <g id="text_6">
    <!-- TX-2 -->
    <g style="fill: #111111" transform="translate(370.442109 188.619375) scale(0.1 -0.1)">
     <use xlink:href="#DejaVuSans-54"/>
     <use xlink:href="#DejaVuSans-58" transform="translate(61.083984 0)"/>
     <use xlink:href="#DejaVuSans-2d" transform="translate(124.589844 0)"/>
     <use xlink:href="#DejaVuSans-32" transform="translate(160.673828 0)"/>
    </g>
   </g>
   <g id="text_7">
    <!-- 1600 kVA -->
    <g style="fill: #555555" transform="translate(370.442109 198.1475) scale(0.08 -0.08)">
     <use xlink:href="#DejaVuSans-31"/>
     <use xlink:href="#DejaVuSans-36" transform="translate(63.623047 0)"/>
     <use xlink:href="#DejaVuSans-30" transform="translate(127.246094 0)"/>
     <use xlink:href="#DejaVuSans-30" transform="translate(190.869141 0)"/>
     <use xlink:href="#DejaVuSans-20" transform="translate(254.492188 0)"/>
     <use xlink:href="#DejaVuSans-6b" transform="translate(286.279297 0)"/>
     <use xlink:href="#DejaVuSans-56" transform="translate(344.189453 0)"/>
     <use xlink:href="#DejaVuSans-41" transform="translate(406.222656 0)"/>
    </g>
   </g>
   <g id="patch_14">
    <path d="M 341.282109 244.54 
L 356.402109 244.54 
L 356.402109 229.42 
L 341.282109 229.42 
z
" clip-path="url(#p79fba7817c)" style="fill: #111111; stroke: #111111; stroke-width: 1.6; stroke-linecap: round"/>
   </g>
   <g id="patch_15">
    <path d="M 262.082109 276.94 
L 262.082109 261.82 
L 277.202109 261.82 
L 277.202109 276.94 
z
" clip-path="url(#p79fba7817c)" style="fill: #111111; stroke: #111111; stroke-width: 1.6; stroke-linecap: round"/>
   </g>
   <g id="text_8">
    <!-- auto bus-tie -->
    <g style="fill: #555555" transform="translate(242.027109 261.5075) scale(0.08 -0.08)">
     <defs>
      <path id="DejaVuSans-61" d="M 2194 1759 
Q 1497 1759 1228 1600 
Q 959 1441 959 1056 
Q 959 750 1161 570 
Q 1363 391 1709 391 
Q 2188 391 2477 730 
Q 2766 1069 2766 1631 
L 2766 1759 
L 2194 1759 
z
M 3341 1997 
L 3341 0 
L 2766 0 
L 2766 531 
Q 2569 213 2275 61 
Q 1981 -91 1556 -91 
Q 1019 -91 701 211 
Q 384 513 384 1019 
Q 384 1609 779 1909 
Q 1175 2209 1959 2209 
L 2766 2209 
L 2766 2266 
Q 2766 2663 2505 2880 
Q 2244 3097 1772 3097 
Q 1472 3097 1187 3025 
Q 903 2953 641 2809 
L 641 3341 
Q 956 3463 1253 3523 
Q 1550 3584 1831 3584 
Q 2591 3584 2966 3190 
Q 3341 2797 3341 1997 
z
" transform="scale(0.015625)"/>
     </defs>
     <use xlink:href="#DejaVuSans-61"/>
     <use xlink:href="#DejaVuSans-75" transform="translate(61.279297 0)"/>
     <use xlink:href="#DejaVuSans-74" transform="translate(124.658203 0)"/>
     <use xlink:href="#DejaVuSans-6f" transform="translate(163.867188 0)"/>
     <use xlink:href="#DejaVuSans-20" transform="translate(225.048828 0)"/>
     <use xlink:href="#DejaVuSans-62" transform="translate(256.835938 0)"/>
     <use xlink:href="#DejaVuSans-75" transform="translate(320.3125 0)"/>
     <use xlink:href="#DejaVuSans-73" transform="translate(383.691406 0)"/>
     <use xlink:href="#DejaVuSans-2d" transform="translate(435.791016 0)"/>
     <use xlink:href="#DejaVuSans-74" transform="translate(471.875 0)"/>
     <use xlink:href="#DejaVuSans-69" transform="translate(511.083984 0)"/>
     <use xlink:href="#DejaVuSans-65" transform="translate(538.867188 0)"/>
    </g>
   </g>
   <g id="text_9">
    <!-- Bus A -->
    <g style="fill: #11457e" transform="translate(132.842109 289.5875) scale(0.08 -0.08)">
     <defs>
      <path id="DejaVuSans-42" d="M 1259 2228 
L 1259 519 
L 2272 519 
Q 2781 519 3026 730 
Q 3272 941 3272 1375 
Q 3272 1813 3026 2020 
Q 2781 2228 2272 2228 
L 1259 2228 
z
M 1259 4147 
L 1259 2741 
L 2194 2741 
Q 2656 2741 2882 2914 
Q 3109 3088 3109 3444 
Q 3109 3797 2882 3972 
Q 2656 4147 2194 4147 
L 1259 4147 
z
M 628 4666 
L 2241 4666 
Q 2963 4666 3353 4366 
Q 3744 4066 3744 3513 
Q 3744 3084 3544 2831 
Q 3344 2578 2956 2516 
Q 3422 2416 3680 2098 
Q 3938 1781 3938 1306 
Q 3938 681 3513 340 
Q 3088 0 2303 0 
L 628 0 
L 628 4666 
z
" transform="scale(0.015625)"/>
     </defs>
     <use xlink:href="#DejaVuSans-42"/>
     <use xlink:href="#DejaVuSans-75" transform="translate(68.603516 0)"/>
     <use xlink:href="#DejaVuSans-73" transform="translate(131.982422 0)"/>
     <use xlink:href="#DejaVuSans-20" transform="translate(184.082031 0)"/>
     <use xlink:href="#DejaVuSans-41" transform="translate(215.869141 0)"/>
    </g>
   </g>
   <g id="text_10">
    <!-- Bus B -->
    <g style="fill: #11457e" transform="translate(376.484609 289.5875) scale(0.08 -0.08)">
     <use xlink:href="#DejaVuSans-42"/>
     <use xlink:href="#DejaVuSans-75" transform="translate(68.603516 0)"/>
     <use xlink:href="#DejaVuSans-73" transform="translate(131.982422 0)"/>
     <use xlink:href="#DejaVuSans-20" transform="translate(184.082031 0)"/>
     <use xlink:href="#DejaVuSans-42" transform="translate(215.869141 0)"/>
    </g>
   </g>
   <g id="text_11">
    <!-- M -->
    <g style="fill: #111111" transform="translate(184.402422 325.443125) scale(0.14 -0.14)">
     <use xlink:href="#DejaVuSans-4d"/>
    </g>
   </g>
   <g id="text_12">
    <!-- M -->
    <g style="fill: #111111" transform="translate(342.802422 325.443125) scale(0.14 -0.14)">
     <use xlink:href="#DejaVuSans-4d"/>
    </g>
   </g>
   <g id="text_13">
    <!-- duty pump -->
    <g style="fill: #555555" transform="translate(172.250859 350.7875) scale(0.08 -0.08)">
     <defs>
      <path id="DejaVuSans-79" d="M 2059 -325 
Q 1816 -950 1584 -1140 
Q 1353 -1331 966 -1331 
L 506 -1331 
L 506 -850 
L 844 -850 
Q 1081 -850 1212 -737 
Q 1344 -625 1503 -206 
L 1606 56 
L 191 3500 
L 800 3500 
L 1894 763 
L 2988 3500 
L 3597 3500 
L 2059 -325 
z
" transform="scale(0.015625)"/>
      <path id="DejaVuSans-70" d="M 1159 525 
L 1159 -1331 
L 581 -1331 
L 581 3500 
L 1159 3500 
L 1159 2969 
Q 1341 3281 1617 3432 
Q 1894 3584 2278 3584 
Q 2916 3584 3314 3078 
Q 3713 2572 3713 1747 
Q 3713 922 3314 415 
Q 2916 -91 2278 -91 
Q 1894 -91 1617 61 
Q 1341 213 1159 525 
z
M 3116 1747 
Q 3116 2381 2855 2742 
Q 2594 3103 2138 3103 
Q 1681 3103 1420 2742 
Q 1159 2381 1159 1747 
Q 1159 1113 1420 752 
Q 1681 391 2138 391 
Q 2594 391 2855 752 
Q 3116 1113 3116 1747 
z
" transform="scale(0.015625)"/>
      <path id="DejaVuSans-6d" d="M 3328 2828 
Q 3544 3216 3844 3400 
Q 4144 3584 4550 3584 
Q 5097 3584 5394 3201 
Q 5691 2819 5691 2113 
L 5691 0 
L 5113 0 
L 5113 2094 
Q 5113 2597 4934 2840 
Q 4756 3084 4391 3084 
Q 3944 3084 3684 2787 
Q 3425 2491 3425 1978 
L 3425 0 
L 2847 0 
L 2847 2094 
Q 2847 2600 2669 2842 
Q 2491 3084 2119 3084 
Q 1678 3084 1418 2786 
Q 1159 2488 1159 1978 
L 1159 0 
L 581 0 
L 581 3500 
L 1159 3500 
L 1159 2956 
Q 1356 3278 1631 3431 
Q 1906 3584 2284 3584 
Q 2666 3584 2933 3390 
Q 3200 3197 3328 2828 
z
" transform="scale(0.015625)"/>
     </defs>
     <use xlink:href="#DejaVuSans-64"/>
     <use xlink:href="#DejaVuSans-75" transform="translate(63.476562 0)"/>
     <use xlink:href="#DejaVuSans-74" transform="translate(126.855469 0)"/>
     <use xlink:href="#DejaVuSans-79" transform="translate(166.064453 0)"/>
     <use xlink:href="#DejaVuSans-20" transform="translate(225.244141 0)"/>
     <use xlink:href="#DejaVuSans-70" transform="translate(257.03125 0)"/>
     <use xlink:href="#DejaVuSans-75" transform="translate(320.507812 0)"/>
     <use xlink:href="#DejaVuSans-6d" transform="translate(383.886719 0)"/>
     <use xlink:href="#DejaVuSans-70" transform="translate(481.298828 0)"/>
    </g>
   </g>
   <g id="text_14">
    <!-- standby pump -->
    <g style="fill: #555555" transform="translate(323.576484 350.7875) scale(0.08 -0.08)">
     <use xlink:href="#DejaVuSans-73"/>
     <use xlink:href="#DejaVuSans-74" transform="translate(52.099609 0)"/>
     <use xlink:href="#DejaVuSans-61" transform="translate(91.308594 0)"/>
     <use xlink:href="#DejaVuSans-6e" transform="translate(152.587891 0)"/>
     <use xlink:href="#DejaVuSans-64" transform="translate(215.966797 0)"/>
     <use xlink:href="#DejaVuSans-62" transform="translate(279.443359 0)"/>
     <use xlink:href="#DejaVuSans-79" transform="translate(342.919922 0)"/>
     <use xlink:href="#DejaVuSans-20" transform="translate(402.099609 0)"/>
     <use xlink:href="#DejaVuSans-70" transform="translate(433.886719 0)"/>
     <use xlink:href="#DejaVuSans-75" transform="translate(497.363281 0)"/>
     <use xlink:href="#DejaVuSans-6d" transform="translate(560.742188 0)"/>
     <use xlink:href="#DejaVuSans-70" transform="translate(658.154297 0)"/>
    </g>
   </g>
   <g id="text_15">
    <!-- duty / standby on -->
    <g style="fill: #1a7f37" transform="translate(238.003984 314.51625) scale(0.08 -0.08)">
     <defs>
      <path id="DejaVuSans-2f" d="M 1625 4666 
L 2156 4666 
L 531 -594 
L 0 -594 
L 1625 4666 
z
" transform="scale(0.015625)"/>
     </defs>
     <use xlink:href="#DejaVuSans-64"/>
     <use xlink:href="#DejaVuSans-75" transform="translate(63.476562 0)"/>
     <use xlink:href="#DejaVuSans-74" transform="translate(126.855469 0)"/>
     <use xlink:href="#DejaVuSans-79" transform="translate(166.064453 0)"/>
     <use xlink:href="#DejaVuSans-20" transform="translate(225.244141 0)"/>
     <use xlink:href="#DejaVuSans-2f" transform="translate(257.03125 0)"/>
     <use xlink:href="#DejaVuSans-20" transform="translate(290.722656 0)"/>
     <use xlink:href="#DejaVuSans-73" transform="translate(322.509766 0)"/>
     <use xlink:href="#DejaVuSans-74" transform="translate(374.609375 0)"/>
     <use xlink:href="#DejaVuSans-61" transform="translate(413.818359 0)"/>
     <use xlink:href="#DejaVuSans-6e" transform="translate(475.097656 0)"/>
     <use xlink:href="#DejaVuSans-64" transform="translate(538.476562 0)"/>
     <use xlink:href="#DejaVuSans-62" transform="translate(601.953125 0)"/>
     <use xlink:href="#DejaVuSans-79" transform="translate(665.429688 0)"/>
     <use xlink:href="#DejaVuSans-20" transform="translate(724.609375 0)"/>
     <use xlink:href="#DejaVuSans-6f" transform="translate(756.396484 0)"/>
     <use xlink:href="#DejaVuSans-6e" transform="translate(817.578125 0)"/>
    </g>
    <!-- separate buses -->
    <g style="fill: #1a7f37" transform="translate(242.607109 322.25875) scale(0.08 -0.08)">
     <defs>
      <path id="DejaVuSans-72" d="M 2631 2963 
Q 2534 3019 2420 3045 
Q 2306 3072 2169 3072 
Q 1681 3072 1420 2755 
Q 1159 2438 1159 1844 
L 1159 0 
L 581 0 
L 581 3500 
L 1159 3500 
L 1159 2956 
Q 1341 3275 1631 3429 
Q 1922 3584 2338 3584 
Q 2397 3584 2469 3576 
Q 2541 3569 2628 3553 
L 2631 2963 
z
" transform="scale(0.015625)"/>
     </defs>
     <use xlink:href="#DejaVuSans-73"/>
     <use xlink:href="#DejaVuSans-65" transform="translate(52.099609 0)"/>
     <use xlink:href="#DejaVuSans-70" transform="translate(113.623047 0)"/>
     <use xlink:href="#DejaVuSans-61" transform="translate(177.099609 0)"/>
     <use xlink:href="#DejaVuSans-72" transform="translate(238.378906 0)"/>
     <use xlink:href="#DejaVuSans-61" transform="translate(279.492188 0)"/>
     <use xlink:href="#DejaVuSans-74" transform="translate(340.771484 0)"/>
     <use xlink:href="#DejaVuSans-65" transform="translate(379.980469 0)"/>
     <use xlink:href="#DejaVuSans-20" transform="translate(441.503906 0)"/>
     <use xlink:href="#DejaVuSans-62" transform="translate(473.291016 0)"/>
     <use xlink:href="#DejaVuSans-75" transform="translate(536.767578 0)"/>
     <use xlink:href="#DejaVuSans-73" transform="translate(600.146484 0)"/>
     <use xlink:href="#DejaVuSans-65" transform="translate(652.246094 0)"/>
     <use xlink:href="#DejaVuSans-73" transform="translate(713.769531 0)"/>
    </g>
   </g>
   <g id="text_16">
    <!-- RESILIENT REFERENCE  -  no single point of failure -->
    <g style="fill: #1a7f37" transform="translate(134.984141 13.215312) scale(0.11 -0.11)">
     <defs>
      <path id="DejaVuSans-52" d="M 2841 2188 
Q 3044 2119 3236 1894 
Q 3428 1669 3622 1275 
L 4263 0 
L 3584 0 
L 2988 1197 
Q 2756 1666 2539 1819 
Q 2322 1972 1947 1972 
L 1259 1972 
L 1259 0 
L 628 0 
L 628 4666 
L 2053 4666 
Q 2853 4666 3247 4331 
Q 3641 3997 3641 3322 
Q 3641 2881 3436 2590 
Q 3231 2300 2841 2188 
z
M 1259 4147 
L 1259 2491 
L 2053 2491 
Q 2509 2491 2742 2702 
Q 2975 2913 2975 3322 
Q 2975 3731 2742 3939 
Q 2509 4147 2053 4147 
L 1259 4147 
z
" transform="scale(0.015625)"/>
      <path id="DejaVuSans-45" d="M 628 4666 
L 3578 4666 
L 3578 4134 
L 1259 4134 
L 1259 2753 
L 3481 2753 
L 3481 2222 
L 1259 2222 
L 1259 531 
L 3634 531 
L 3634 0 
L 628 0 
L 628 4666 
z
" transform="scale(0.015625)"/>
      <path id="DejaVuSans-53" d="M 3425 4513 
L 3425 3897 
Q 3066 4069 2747 4153 
Q 2428 4238 2131 4238 
Q 1616 4238 1336 4038 
Q 1056 3838 1056 3469 
Q 1056 3159 1242 3001 
Q 1428 2844 1947 2747 
L 2328 2669 
Q 3034 2534 3370 2195 
Q 3706 1856 3706 1288 
Q 3706 609 3251 259 
Q 2797 -91 1919 -91 
Q 1588 -91 1214 -16 
Q 841 59 441 206 
L 441 856 
Q 825 641 1194 531 
Q 1563 422 1919 422 
Q 2459 422 2753 634 
Q 3047 847 3047 1241 
Q 3047 1584 2836 1778 
Q 2625 1972 2144 2069 
L 1759 2144 
Q 1053 2284 737 2584 
Q 422 2884 422 3419 
Q 422 4038 858 4394 
Q 1294 4750 2059 4750 
Q 2388 4750 2728 4690 
Q 3069 4631 3425 4513 
z
" transform="scale(0.015625)"/>
      <path id="DejaVuSans-49" d="M 628 4666 
L 1259 4666 
L 1259 0 
L 628 0 
L 628 4666 
z
" transform="scale(0.015625)"/>
      <path id="DejaVuSans-4c" d="M 628 4666 
L 1259 4666 
L 1259 531 
L 3531 531 
L 3531 0 
L 628 0 
L 628 4666 
z
" transform="scale(0.015625)"/>
      <path id="DejaVuSans-4e" d="M 628 4666 
L 1478 4666 
L 3547 763 
L 3547 4666 
L 4159 4666 
L 4159 0 
L 3309 0 
L 1241 3903 
L 1241 0 
L 628 0 
L 628 4666 
z
" transform="scale(0.015625)"/>
      <path id="DejaVuSans-43" d="M 4122 4306 
L 4122 3641 
Q 3803 3938 3442 4084 
Q 3081 4231 2675 4231 
Q 1875 4231 1450 3742 
Q 1025 3253 1025 2328 
Q 1025 1406 1450 917 
Q 1875 428 2675 428 
Q 3081 428 3442 575 
Q 3803 722 4122 1019 
L 4122 359 
Q 3791 134 3420 21 
Q 3050 -91 2638 -91 
Q 1578 -91 968 557 
Q 359 1206 359 2328 
Q 359 3453 968 4101 
Q 1578 4750 2638 4750 
Q 3056 4750 3426 4639 
Q 3797 4528 4122 4306 
z
" transform="scale(0.015625)"/>
      <path id="DejaVuSans-67" d="M 2906 1791 
Q 2906 2416 2648 2759 
Q 2391 3103 1925 3103 
Q 1463 3103 1205 2759 
Q 947 2416 947 1791 
Q 947 1169 1205 825 
Q 1463 481 1925 481 
Q 2391 481 2648 825 
Q 2906 1169 2906 1791 
z
M 3481 434 
Q 3481 -459 3084 -895 
Q 2688 -1331 1869 -1331 
Q 1566 -1331 1297 -1286 
Q 1028 -1241 775 -1147 
L 775 -588 
Q 1028 -725 1275 -790 
Q 1522 -856 1778 -856 
Q 2344 -856 2625 -561 
Q 2906 -266 2906 331 
L 2906 616 
Q 2728 306 2450 153 
Q 2172 0 1784 0 
Q 1141 0 747 490 
Q 353 981 353 1791 
Q 353 2603 747 3093 
Q 1141 3584 1784 3584 
Q 2172 3584 2450 3431 
Q 2728 3278 2906 2969 
L 2906 3500 
L 3481 3500 
L 3481 434 
z
" transform="scale(0.015625)"/>
      <path id="DejaVuSans-6c" d="M 603 4863 
L 1178 4863 
L 1178 0 
L 603 0 
L 603 4863 
z
" transform="scale(0.015625)"/>
      <path id="DejaVuSans-66" d="M 2375 4863 
L 2375 4384 
L 1825 4384 
Q 1516 4384 1395 4259 
Q 1275 4134 1275 3809 
L 1275 3500 
L 2222 3500 
L 2222 3053 
L 1275 3053 
L 1275 0 
L 697 0 
L 697 3053 
L 147 3053 
L 147 3500 
L 697 3500 
L 697 3744 
Q 697 4328 969 4595 
Q 1241 4863 1831 4863 
L 2375 4863 
z
" transform="scale(0.015625)"/>
     </defs>
     <use xlink:href="#DejaVuSans-52"/>
     <use xlink:href="#DejaVuSans-45" transform="translate(69.482422 0)"/>
     <use xlink:href="#DejaVuSans-53" transform="translate(132.666016 0)"/>
     <use xlink:href="#DejaVuSans-49" transform="translate(196.142578 0)"/>
     <use xlink:href="#DejaVuSans-4c" transform="translate(225.634766 0)"/>
     <use xlink:href="#DejaVuSans-49" transform="translate(281.347656 0)"/>
     <use xlink:href="#DejaVuSans-45" transform="translate(310.839844 0)"/>
     <use xlink:href="#DejaVuSans-4e" transform="translate(374.023438 0)"/>
     <use xlink:href="#DejaVuSans-54" transform="translate(448.828125 0)"/>
     <use xlink:href="#DejaVuSans-20" transform="translate(509.912109 0)"/>
     <use xlink:href="#DejaVuSans-52" transform="translate(541.699219 0)"/>
     <use xlink:href="#DejaVuSans-45" transform="translate(611.181641 0)"/>
     <use xlink:href="#DejaVuSans-46" transform="translate(674.365234 0)"/>
     <use xlink:href="#DejaVuSans-45" transform="translate(731.884766 0)"/>
     <use xlink:href="#DejaVuSans-52" transform="translate(795.068359 0)"/>
     <use xlink:href="#DejaVuSans-45" transform="translate(864.550781 0)"/>
     <use xlink:href="#DejaVuSans-4e" transform="translate(927.734375 0)"/>
     <use xlink:href="#DejaVuSans-43" transform="translate(1002.539062 0)"/>
     <use xlink:href="#DejaVuSans-45" transform="translate(1072.363281 0)"/>
     <use xlink:href="#DejaVuSans-20" transform="translate(1135.546875 0)"/>
     <use xlink:href="#DejaVuSans-20" transform="translate(1167.333984 0)"/>
     <use xlink:href="#DejaVuSans-2d" transform="translate(1199.121094 0)"/>
     <use xlink:href="#DejaVuSans-20" transform="translate(1235.205078 0)"/>
     <use xlink:href="#DejaVuSans-20" transform="translate(1266.992188 0)"/>
     <use xlink:href="#DejaVuSans-6e" transform="translate(1298.779297 0)"/>
     <use xlink:href="#DejaVuSans-6f" transform="translate(1362.158203 0)"/>
     <use xlink:href="#DejaVuSans-20" transform="translate(1423.339844 0)"/>
     <use xlink:href="#DejaVuSans-73" transform="translate(1455.126953 0)"/>
     <use xlink:href="#DejaVuSans-69" transform="translate(1507.226562 0)"/>
     <use xlink:href="#DejaVuSans-6e" transform="translate(1535.009766 0)"/>
     <use xlink:href="#DejaVuSans-67" transform="translate(1598.388672 0)"/>
     <use xlink:href="#DejaVuSans-6c" transform="translate(1661.865234 0)"/>
     <use xlink:href="#DejaVuSans-65" transform="translate(1689.648438 0)"/>
     <use xlink:href="#DejaVuSans-20" transform="translate(1751.171875 0)"/>
     <use xlink:href="#DejaVuSans-70" transform="translate(1782.958984 0)"/>
     <use xlink:href="#DejaVuSans-6f" transform="translate(1846.435547 0)"/>
     <use xlink:href="#DejaVuSans-69" transform="translate(1907.617188 0)"/>
     <use xlink:href="#DejaVuSans-6e" transform="translate(1935.400391 0)"/>
     <use xlink:href="#DejaVuSans-74" transform="translate(1998.779297 0)"/>
     <use xlink:href="#DejaVuSans-20" transform="translate(2037.988281 0)"/>
     <use xlink:href="#DejaVuSans-6f" transform="translate(2069.775391 0)"/>
     <use xlink:href="#DejaVuSans-66" transform="translate(2130.957031 0)"/>
     <use xlink:href="#DejaVuSans-20" transform="translate(2166.162109 0)"/>
     <use xlink:href="#DejaVuSans-66" transform="translate(2197.949219 0)"/>
     <use xlink:href="#DejaVuSans-61" transform="translate(2233.154297 0)"/>
     <use xlink:href="#DejaVuSans-69" transform="translate(2294.433594 0)"/>
     <use xlink:href="#DejaVuSans-6c" transform="translate(2322.216797 0)"/>
     <use xlink:href="#DejaVuSans-75" transform="translate(2350 0)"/>
     <use xlink:href="#DejaVuSans-72" transform="translate(2413.378906 0)"/>
     <use xlink:href="#DejaVuSans-65" transform="translate(2452.242188 0)"/>
    </g>
   </g>
   <g id="text_17">
    <!-- SPOF-E  -  Resilient layout (for contrast) -->
    <g style="fill: #111111" transform="translate(154.209609 380.69125) scale(0.12 -0.12)">
     <defs>
      <path id="DejaVuSans-50" d="M 1259 4147 
L 1259 2394 
L 2053 2394 
Q 2494 2394 2734 2622 
Q 2975 2850 2975 3272 
Q 2975 3691 2734 3919 
Q 2494 4147 2053 4147 
L 1259 4147 
z
M 628 4666 
L 2053 4666 
Q 2838 4666 3239 4311 
Q 3641 3956 3641 3272 
Q 3641 2581 3239 2228 
Q 2838 1875 2053 1875 
L 1259 1875 
L 1259 0 
L 628 0 
L 628 4666 
z
" transform="scale(0.015625)"/>
      <path id="DejaVuSans-4f" d="M 2522 4238 
Q 1834 4238 1429 3725 
Q 1025 3213 1025 2328 
Q 1025 1447 1429 934 
Q 1834 422 2522 422 
Q 3209 422 3611 934 
Q 4013 1447 4013 2328 
Q 4013 3213 3611 3725 
Q 3209 4238 2522 4238 
z
M 2522 4750 
Q 3503 4750 4090 4092 
Q 4678 3434 4678 2328 
Q 4678 1225 4090 567 
Q 3503 -91 2522 -91 
Q 1538 -91 948 565 
Q 359 1222 359 2328 
Q 359 3434 948 4092 
Q 1538 4750 2522 4750 
z
" transform="scale(0.015625)"/>
      <path id="DejaVuSans-28" d="M 1984 4856 
Q 1566 4138 1362 3434 
Q 1159 2731 1159 2009 
Q 1159 1288 1364 580 
Q 1569 -128 1984 -844 
L 1484 -844 
Q 1016 -109 783 600 
Q 550 1309 550 2009 
Q 550 2706 781 3412 
Q 1013 4119 1484 4856 
L 1984 4856 
z
" transform="scale(0.015625)"/>
      <path id="DejaVuSans-29" d="M 513 4856 
L 1013 4856 
Q 1481 4119 1714 3412 
Q 1947 2706 1947 2009 
Q 1947 1309 1714 600 
Q 1481 -109 1013 -844 
L 513 -844 
Q 928 -128 1133 580 
Q 1338 1288 1338 2009 
Q 1338 2731 1133 3434 
Q 928 4138 513 4856 
z
" transform="scale(0.015625)"/>
     </defs>
     <use xlink:href="#DejaVuSans-53"/>
     <use xlink:href="#DejaVuSans-50" transform="translate(63.476562 0)"/>
     <use xlink:href="#DejaVuSans-4f" transform="translate(123.779297 0)"/>
     <use xlink:href="#DejaVuSans-46" transform="translate(202.490234 0)"/>
     <use xlink:href="#DejaVuSans-2d" transform="translate(260.009766 0)"/>
     <use xlink:href="#DejaVuSans-45" transform="translate(296.09375 0)"/>
     <use xlink:href="#DejaVuSans-20" transform="translate(359.277344 0)"/>
     <use xlink:href="#DejaVuSans-20" transform="translate(391.064453 0)"/>
     <use xlink:href="#DejaVuSans-2d" transform="translate(422.851562 0)"/>
     <use xlink:href="#DejaVuSans-20" transform="translate(458.935547 0)"/>
     <use xlink:href="#DejaVuSans-20" transform="translate(490.722656 0)"/>
     <use xlink:href="#DejaVuSans-52" transform="translate(522.509766 0)"/>
     <use xlink:href="#DejaVuSans-65" transform="translate(587.492188 0)"/>
     <use xlink:href="#DejaVuSans-73" transform="translate(649.015625 0)"/>
     <use xlink:href="#DejaVuSans-69" transform="translate(701.115234 0)"/>
     <use xlink:href="#DejaVuSans-6c" transform="translate(728.898438 0)"/>
     <use xlink:href="#DejaVuSans-69" transform="translate(756.681641 0)"/>
     <use xlink:href="#DejaVuSans-65" transform="translate(784.464844 0)"/>
     <use xlink:href="#DejaVuSans-6e" transform="translate(845.988281 0)"/>
     <use xlink:href="#DejaVuSans-74" transform="translate(909.367188 0)"/>
     <use xlink:href="#DejaVuSans-20" transform="translate(948.576172 0)"/>
     <use xlink:href="#DejaVuSans-6c" transform="translate(980.363281 0)"/>
     <use xlink:href="#DejaVuSans-61" transform="translate(1008.146484 0)"/>
     <use xlink:href="#DejaVuSans-79" transform="translate(1069.425781 0)"/>
     <use xlink:href="#DejaVuSans-6f" transform="translate(1128.605469 0)"/>
     <use xlink:href="#DejaVuSans-75" transform="translate(1189.787109 0)"/>
     <use xlink:href="#DejaVuSans-74" transform="translate(1253.166016 0)"/>
     <use xlink:href="#DejaVuSans-20" transform="translate(1292.375 0)"/>
     <use xlink:href="#DejaVuSans-28" transform="translate(1324.162109 0)"/>
     <use xlink:href="#DejaVuSans-66" transform="translate(1363.175781 0)"/>
     <use xlink:href="#DejaVuSans-6f" transform="translate(1398.380859 0)"/>
     <use xlink:href="#DejaVuSans-72" transform="translate(1459.5625 0)"/>
     <use xlink:href="#DejaVuSans-20" transform="translate(1500.675781 0)"/>
     <use xlink:href="#DejaVuSans-63" transform="translate(1532.462891 0)"/>
     <use xlink:href="#DejaVuSans-6f" transform="translate(1587.443359 0)"/>
     <use xlink:href="#DejaVuSans-6e" transform="translate(1648.625 0)"/>
     <use xlink:href="#DejaVuSans-74" transform="translate(1712.003906 0)"/>
     <use xlink:href="#DejaVuSans-72" transform="translate(1751.212891 0)"/>
     <use xlink:href="#DejaVuSans-61" transform="translate(1792.326172 0)"/>
     <use xlink:href="#DejaVuSans-73" transform="translate(1853.605469 0)"/>
     <use xlink:href="#DejaVuSans-74" transform="translate(1905.705078 0)"/>
     <use xlink:href="#DejaVuSans-29" transform="translate(1944.914062 0)"/>
    </g>
   </g>
   <g id="text_18">
    <!-- Dual feeds, two transformers, bus-section + auto tie, segregated buses: every common element has an alternative path. -->
    <g style="fill: #555555" transform="translate(0 392.103438) scale(0.09 -0.09)">
     <defs>
      <path id="DejaVuSans-44" d="M 1259 4147 
L 1259 519 
L 2022 519 
Q 2988 519 3436 956 
Q 3884 1394 3884 2338 
Q 3884 3275 3436 3711 
Q 2988 4147 2022 4147 
L 1259 4147 
z
M 628 4666 
L 1925 4666 
Q 3281 4666 3915 4102 
Q 4550 3538 4550 2338 
Q 4550 1131 3912 565 
Q 3275 0 1925 0 
L 628 0 
L 628 4666 
z
" transform="scale(0.015625)"/>
      <path id="DejaVuSans-2c" d="M 750 794 
L 1409 794 
L 1409 256 
L 897 -744 
L 494 -744 
L 750 256 
L 750 794 
z
" transform="scale(0.015625)"/>
      <path id="DejaVuSans-77" d="M 269 3500 
L 844 3500 
L 1563 769 
L 2278 3500 
L 2956 3500 
L 3675 769 
L 4391 3500 
L 4966 3500 
L 4050 0 
L 3372 0 
L 2619 2869 
L 1863 0 
L 1184 0 
L 269 3500 
z
" transform="scale(0.015625)"/>
      <path id="DejaVuSans-2b" d="M 2944 4013 
L 2944 2272 
L 4684 2272 
L 4684 1741 
L 2944 1741 
L 2944 0 
L 2419 0 
L 2419 1741 
L 678 1741 
L 678 2272 
L 2419 2272 
L 2419 4013 
L 2944 4013 
z
" transform="scale(0.015625)"/>
      <path id="DejaVuSans-3a" d="M 750 794 
L 1409 794 
L 1409 0 
L 750 0 
L 750 794 
z
M 750 3309 
L 1409 3309 
L 1409 2516 
L 750 2516 
L 750 3309 
z
" transform="scale(0.015625)"/>
      <path id="DejaVuSans-76" d="M 191 3500 
L 800 3500 
L 1894 563 
L 2988 3500 
L 3597 3500 
L 2284 0 
L 1503 0 
L 191 3500 
z
" transform="scale(0.015625)"/>
      <path id="DejaVuSans-68" d="M 3513 2113 
L 3513 0 
L 2938 0 
L 2938 2094 
Q 2938 2591 2744 2837 
Q 2550 3084 2163 3084 
Q 1697 3084 1428 2787 
Q 1159 2491 1159 1978 
L 1159 0 
L 581 0 
L 581 4863 
L 1159 4863 
L 1159 2956 
Q 1366 3272 1645 3428 
Q 1925 3584 2291 3584 
Q 2894 3584 3203 3211 
Q 3513 2838 3513 2113 
z
" transform="scale(0.015625)"/>
      <path id="DejaVuSans-2e" d="M 684 794 
L 1344 794 
L 1344 0 
L 684 0 
L 684 794 
z
" transform="scale(0.015625)"/>
     </defs>
     <use xlink:href="#DejaVuSans-44"/>
     <use xlink:href="#DejaVuSans-75" transform="translate(77.001953 0)"/>
     <use xlink:href="#DejaVuSans-61" transform="translate(140.380859 0)"/>
     <use xlink:href="#DejaVuSans-6c" transform="translate(201.660156 0)"/>
     <use xlink:href="#DejaVuSans-20" transform="translate(229.443359 0)"/>
     <use xlink:href="#DejaVuSans-66" transform="translate(261.230469 0)"/>
     <use xlink:href="#DejaVuSans-65" transform="translate(296.435547 0)"/>
     <use xlink:href="#DejaVuSans-65" transform="translate(357.958984 0)"/>
     <use xlink:href="#DejaVuSans-64" transform="translate(419.482422 0)"/>
     <use xlink:href="#DejaVuSans-73" transform="translate(482.958984 0)"/>
     <use xlink:href="#DejaVuSans-2c" transform="translate(535.058594 0)"/>
     <use xlink:href="#DejaVuSans-20" transform="translate(566.845703 0)"/>
     <use xlink:href="#DejaVuSans-74" transform="translate(598.632812 0)"/>
     <use xlink:href="#DejaVuSans-77" transform="translate(637.841797 0)"/>
     <use xlink:href="#DejaVuSans-6f" transform="translate(719.628906 0)"/>
     <use xlink:href="#DejaVuSans-20" transform="translate(780.810547 0)"/>
     <use xlink:href="#DejaVuSans-74" transform="translate(812.597656 0)"/>
     <use xlink:href="#DejaVuSans-72" transform="translate(851.806641 0)"/>
     <use xlink:href="#DejaVuSans-61" transform="translate(892.919922 0)"/>
     <use xlink:href="#DejaVuSans-6e" transform="translate(954.199219 0)"/>
     <use xlink:href="#DejaVuSans-73" transform="translate(1017.578125 0)"/>
     <use xlink:href="#DejaVuSans-66" transform="translate(1069.677734 0)"/>
     <use xlink:href="#DejaVuSans-6f" transform="translate(1104.882812 0)"/>
     <use xlink:href="#DejaVuSans-72" transform="translate(1166.064453 0)"/>
     <use xlink:href="#DejaVuSans-6d" transform="translate(1205.427734 0)"/>
     <use xlink:href="#DejaVuSans-65" transform="translate(1302.839844 0)"/>
     <use xlink:href="#DejaVuSans-72" transform="translate(1364.363281 0)"/>
     <use xlink:href="#DejaVuSans-73" transform="translate(1405.476562 0)"/>
     <use xlink:href="#DejaVuSans-2c" transform="translate(1457.576172 0)"/>
     <use xlink:href="#DejaVuSans-20" transform="translate(1489.363281 0)"/>
     <use xlink:href="#DejaVuSans-62" transform="translate(1521.150391 0)"/>
     <use xlink:href="#DejaVuSans-75" transform="translate(1584.626953 0)"/>
     <use xlink:href="#DejaVuSans-73" transform="translate(1648.005859 0)"/>
     <use xlink:href="#DejaVuSans-2d" transform="translate(1700.105469 0)"/>
     <use xlink:href="#DejaVuSans-73" transform="translate(1736.189453 0)"/>
     <use xlink:href="#DejaVuSans-65" transform="translate(1788.289062 0)"/>
     <use xlink:href="#DejaVuSans-63" transform="translate(1849.8125 0)"/>
     <use xlink:href="#DejaVuSans-74" transform="translate(1904.792969 0)"/>
     <use xlink:href="#DejaVuSans-69" transform="translate(1944.001953 0)"/>
     <use xlink:href="#DejaVuSans-6f" transform="translate(1971.785156 0)"/>
     <use xlink:href="#DejaVuSans-6e" transform="translate(2032.966797 0)"/>
     <use xlink:href="#DejaVuSans-20" transform="translate(2096.345703 0)"/>
     <use xlink:href="#DejaVuSans-2b" transform="translate(2128.132812 0)"/>
     <use xlink:href="#DejaVuSans-20" transform="translate(2211.921875 0)"/>
     <use xlink:href="#DejaVuSans-61" transform="translate(2243.708984 0)"/>
     <use xlink:href="#DejaVuSans-75" transform="translate(2304.988281 0)"/>
     <use xlink:href="#DejaVuSans-74" transform="translate(2368.367188 0)"/>
     <use xlink:href="#DejaVuSans-6f" transform="translate(2407.576172 0)"/>
     <use xlink:href="#DejaVuSans-20" transform="translate(2468.757812 0)"/>
     <use xlink:href="#DejaVuSans-74" transform="translate(2500.544922 0)"/>
     <use xlink:href="#DejaVuSans-69" transform="translate(2539.753906 0)"/>
     <use xlink:href="#DejaVuSans-65" transform="translate(2567.537109 0)"/>
     <use xlink:href="#DejaVuSans-2c" transform="translate(2629.060547 0)"/>
     <use xlink:href="#DejaVuSans-20" transform="translate(2660.847656 0)"/>
     <use xlink:href="#DejaVuSans-73" transform="translate(2692.634766 0)"/>
     <use xlink:href="#DejaVuSans-65" transform="translate(2744.734375 0)"/>
     <use xlink:href="#DejaVuSans-67" transform="translate(2806.257812 0)"/>
     <use xlink:href="#DejaVuSans-72" transform="translate(2869.734375 0)"/>
     <use xlink:href="#DejaVuSans-65" transform="translate(2908.597656 0)"/>
     <use xlink:href="#DejaVuSans-67" transform="translate(2970.121094 0)"/>
     <use xlink:href="#DejaVuSans-61" transform="translate(3033.597656 0)"/>
     <use xlink:href="#DejaVuSans-74" transform="translate(3094.876953 0)"/>
     <use xlink:href="#DejaVuSans-65" transform="translate(3134.085938 0)"/>
     <use xlink:href="#DejaVuSans-64" transform="translate(3195.609375 0)"/>
     <use xlink:href="#DejaVuSans-20" transform="translate(3259.085938 0)"/>
     <use xlink:href="#DejaVuSans-62" transform="translate(3290.873047 0)"/>
     <use xlink:href="#DejaVuSans-75" transform="translate(3354.349609 0)"/>
     <use xlink:href="#DejaVuSans-73" transform="translate(3417.728516 0)"/>
     <use xlink:href="#DejaVuSans-65" transform="translate(3469.828125 0)"/>
     <use xlink:href="#DejaVuSans-73" transform="translate(3531.351562 0)"/>
     <use xlink:href="#DejaVuSans-3a" transform="translate(3583.451172 0)"/>
     <use xlink:href="#DejaVuSans-20" transform="translate(3617.142578 0)"/>
     <use xlink:href="#DejaVuSans-65" transform="translate(3648.929688 0)"/>
     <use xlink:href="#DejaVuSans-76" transform="translate(3710.453125 0)"/>
     <use xlink:href="#DejaVuSans-65" transform="translate(3769.632812 0)"/>
     <use xlink:href="#DejaVuSans-72" transform="translate(3831.15625 0)"/>
     <use xlink:href="#DejaVuSans-79" transform="translate(3872.269531 0)"/>
     <use xlink:href="#DejaVuSans-20" transform="translate(3931.449219 0)"/>
     <use xlink:href="#DejaVuSans-63" transform="translate(3963.236328 0)"/>
     <use xlink:href="#DejaVuSans-6f" transform="translate(4018.216797 0)"/>
     <use xlink:href="#DejaVuSans-6d" transform="translate(4079.398438 0)"/>
     <use xlink:href="#DejaVuSans-6d" transform="translate(4176.810547 0)"/>
     <use xlink:href="#DejaVuSans-6f" transform="translate(4274.222656 0)"/>
     <use xlink:href="#DejaVuSans-6e" transform="translate(4335.404297 0)"/>
     <use xlink:href="#DejaVuSans-20" transform="translate(4398.783203 0)"/>
     <use xlink:href="#DejaVuSans-65" transform="translate(4430.570312 0)"/>
     <use xlink:href="#DejaVuSans-6c" transform="translate(4492.09375 0)"/>
     <use xlink:href="#DejaVuSans-65" transform="translate(4519.876953 0)"/>
     <use xlink:href="#DejaVuSans-6d" transform="translate(4581.400391 0)"/>
     <use xlink:href="#DejaVuSans-65" transform="translate(4678.8125 0)"/>
     <use xlink:href="#DejaVuSans-6e" transform="translate(4740.335938 0)"/>
     <use xlink:href="#DejaVuSans-74" transform="translate(4803.714844 0)"/>
     <use xlink:href="#DejaVuSans-20" transform="translate(4842.923828 0)"/>
     <use xlink:href="#DejaVuSans-68" transform="translate(4874.710938 0)"/>
     <use xlink:href="#DejaVuSans-61" transform="translate(4938.089844 0)"/>
     <use xlink:href="#DejaVuSans-73" transform="translate(4999.369141 0)"/>
     <use xlink:href="#DejaVuSans-20" transform="translate(5051.46875 0)"/>
     <use xlink:href="#DejaVuSans-61" transform="translate(5083.255859 0)"/>
     <use xlink:href="#DejaVuSans-6e" transform="translate(5144.535156 0)"/>
     <use xlink:href="#DejaVuSans-20" transform="translate(5207.914062 0)"/>
     <use xlink:href="#DejaVuSans-61" transform="translate(5239.701172 0)"/>
     <use xlink:href="#DejaVuSans-6c" transform="translate(5300.980469 0)"/>
     <use xlink:href="#DejaVuSans-74" transform="translate(5328.763672 0)"/>
     <use xlink:href="#DejaVuSans-65" transform="translate(5367.972656 0)"/>
     <use xlink:href="#DejaVuSans-72" transform="translate(5429.496094 0)"/>
     <use xlink:href="#DejaVuSans-6e" transform="translate(5468.859375 0)"/>
     <use xlink:href="#DejaVuSans-61" transform="translate(5532.238281 0)"/>
     <use xlink:href="#DejaVuSans-74" transform="translate(5593.517578 0)"/>
     <use xlink:href="#DejaVuSans-69" transform="translate(5632.726562 0)"/>
     <use xlink:href="#DejaVuSans-76" transform="translate(5660.509766 0)"/>
     <use xlink:href="#DejaVuSans-65" transform="translate(5719.689453 0)"/>
     <use xlink:href="#DejaVuSans-20" transform="translate(5781.212891 0)"/>
     <use xlink:href="#DejaVuSans-70" transform="translate(5813 0)"/>
     <use xlink:href="#DejaVuSans-61" transform="translate(5876.476562 0)"/>
     <use xlink:href="#DejaVuSans-74" transform="translate(5937.755859 0)"/>
     <use xlink:href="#DejaVuSans-68" transform="translate(5976.964844 0)"/>
     <use xlink:href="#DejaVuSans-2e" transform="translate(6040.34375 0)"/>
    </g>
   </g>
   <g id="patch_16">
    <path d="M 190.442109 138.7 
C 191.110421 138.7 191.751451 138.434477 192.224018 137.961909 
C 192.696586 137.489341 192.962109 136.848312 192.962109 136.18 
C 192.962109 135.511688 192.696586 134.870659 192.224018 134.398091 
C 191.751451 133.925523 191.110421 133.66 190.442109 133.66 
C 189.773798 133.66 189.132768 133.925523 188.6602 134.398091 
C 188.187632 134.870659 187.922109 135.511688 187.922109 136.18 
C 187.922109 136.848312 188.187632 137.489341 188.6602 137.961909 
C 189.132768 138.434477 189.773798 138.7 190.442109 138.7 
z
" clip-path="url(#p79fba7817c)" style="fill: #111111; stroke: #111111; stroke-width: 1.6; stroke-linejoin: miter"/>
   </g>
   <g id="patch_17">
    <path d="M 348.842109 138.7 
C 349.510421 138.7 350.151451 138.434477 350.624018 137.961909 
C 351.096586 137.489341 351.362109 136.848312 351.362109 136.18 
C 351.362109 135.511688 351.096586 134.870659 350.624018 134.398091 
C 350.151451 133.925523 349.510421 133.66 348.842109 133.66 
C 348.173798 133.66 347.532768 133.925523 347.0602 134.398091 
C 346.587632 134.870659 346.322109 135.511688 346.322109 136.18 
C 346.322109 136.848312 346.587632 137.489341 347.0602 137.961909 
C 347.532768 138.434477 348.173798 138.7 348.842109 138.7 
z
" clip-path="url(#p79fba7817c)" style="fill: #111111; stroke: #111111; stroke-width: 1.6; stroke-linejoin: miter"/>
   </g>
   <g id="patch_18">
    <path d="M 190.442109 138.7 
C 191.110421 138.7 191.751451 138.434477 192.224018 137.961909 
C 192.696586 137.489341 192.962109 136.848312 192.962109 136.18 
C 192.962109 135.511688 192.696586 134.870659 192.224018 134.398091 
C 191.751451 133.925523 191.110421 133.66 190.442109 133.66 
C 189.773798 133.66 189.132768 133.925523 188.6602 134.398091 
C 188.187632 134.870659 187.922109 135.511688 187.922109 136.18 
C 187.922109 136.848312 188.187632 137.489341 188.6602 137.961909 
C 189.132768 138.434477 189.773798 138.7 190.442109 138.7 
z
" clip-path="url(#p79fba7817c)" style="fill: #111111; stroke: #111111; stroke-width: 1.6; stroke-linejoin: miter"/>
   </g>
   <g id="patch_19">
    <path d="M 190.442109 271.9 
C 191.110421 271.9 191.751451 271.634477 192.224018 271.161909 
C 192.696586 270.689341 192.962109 270.048312 192.962109 269.38 
C 192.962109 268.711688 192.696586 268.070659 192.224018 267.598091 
C 191.751451 267.125523 191.110421 266.86 190.442109 266.86 
C 189.773798 266.86 189.132768 267.125523 188.6602 267.598091 
C 188.187632 268.070659 187.922109 268.711688 187.922109 269.38 
C 187.922109 270.048312 188.187632 270.689341 188.6602 271.161909 
C 189.132768 271.634477 189.773798 271.9 190.442109 271.9 
z
" clip-path="url(#p79fba7817c)" style="fill: #111111; stroke: #111111; stroke-width: 1.6; stroke-linejoin: miter"/>
   </g>
   <g id="patch_20">
    <path d="M 348.842109 138.7 
C 349.510421 138.7 350.151451 138.434477 350.624018 137.961909 
C 351.096586 137.489341 351.362109 136.848312 351.362109 136.18 
C 351.362109 135.511688 351.096586 134.870659 350.624018 134.398091 
C 350.151451 133.925523 349.510421 133.66 348.842109 133.66 
C 348.173798 133.66 347.532768 133.925523 347.0602 134.398091 
C 346.587632 134.870659 346.322109 135.511688 346.322109 136.18 
C 346.322109 136.848312 346.587632 137.489341 347.0602 137.961909 
C 347.532768 138.434477 348.173798 138.7 348.842109 138.7 
z
" clip-path="url(#p79fba7817c)" style="fill: #111111; stroke: #111111; stroke-width: 1.6; stroke-linejoin: miter"/>
   </g>
   <g id="patch_21">
    <path d="M 348.842109 271.9 
C 349.510421 271.9 350.151451 271.634477 350.624018 271.161909 
C 351.096586 270.689341 351.362109 270.048312 351.362109 269.38 
C 351.362109 268.711688 351.096586 268.070659 350.624018 267.598091 
C 350.151451 267.125523 349.510421 266.86 348.842109 266.86 
C 348.173798 266.86 347.532768 267.125523 347.0602 267.598091 
C 346.587632 268.070659 346.322109 268.711688 346.322109 269.38 
C 346.322109 270.048312 346.587632 270.689341 347.0602 271.161909 
C 347.532768 271.634477 348.173798 271.9 348.842109 271.9 
z
" clip-path="url(#p79fba7817c)" style="fill: #111111; stroke: #111111; stroke-width: 1.6; stroke-linejoin: miter"/>
   </g>
  </g>
 </g>
 <defs>
  <clipPath id="p79fba7817c">
   <rect x="28.181109" y="0" width="490.122" height="398.8"/>
  </clipPath>
 </defs>
</svg>
