<?xml version="1.0" encoding="utf-8" standalone="no"?>
<!DOCTYPE svg PUBLIC "-//W3C//DTD SVG 1.1//EN"
  "http://www.w3.org/Graphics/SVG/1.1/DTD/svg11.dtd">
<svg xmlns:xlink="http://www.w3.org/1999/xlink" width="484.56pt" height="372.96pt" viewBox="0 0 484.56 372.96" xmlns="http://www.w3.org/2000/svg" version="1.1">
 <metadata>
  <rdf:RDF xmlns:dc="http://purl.org/dc/elements/1.1/" xmlns:cc="http://creativecommons.org/ns#" xmlns:rdf="http://www.w3.org/1999/02/22-rdf-syntax-ns#">
   <cc:Work>
    <dc:type rdf:resource="http://purl.org/dc/dcmitype/StillImage"/>
    <dc:date>2026-06-11T07:34:16.276738</dc:date>
    <dc:format>image/svg+xml</dc:format>
    <dc:creator>
     <cc:Agent>
      <dc:title>Matplotlib v3.10.9, https://matplotlib.org/</dc:title>
     </cc:Agent>
    </dc:creator>
   </cc:Work>
  </rdf:RDF>
 </metadata>
 <defs>
  <style type="text/css">*{stroke-linejoin: round; stroke-linecap: butt}</style>
 </defs>
 <g id="figure_1">
  <g id="patch_1">
   <path d="M 0 372.96 
L 484.56 372.96 
L 484.56 0 
L 0 0 
L 0 372.96 
z
" style="fill: none"/>
  </g>
  <g id="axes_1">
   <g id="patch_2">
    <path d="M 4.68 368.28 
L 4.68 330.48 
L 479.88 330.48 
L 479.88 368.28 
z
" clip-path="url(#pbf5eb432cd)" style="fill: #fbfbfb; stroke: #fbfbfb; stroke-linejoin: miter"/>
   </g>
   <g id="line2d_1">
    <path d="M 4.68 368.28 
L 4.68 330.48 
L 479.88 330.48 
L 479.88 368.28 
L 4.68 368.28 
" clip-path="url(#pbf5eb432cd)" style="fill: none; stroke: #888888; stroke-width: 1.1; stroke-linecap: round"/>
   </g>
   <g id="patch_3">
    <path d="M 242.28 33.48 
C 246.098925 33.48 249.76195 31.962725 252.462338 29.262338 
C 255.162725 26.56195 256.68 22.898925 256.68 19.08 
C 256.68 15.261075 255.162725 11.59805 252.462338 8.897662 
C 249.76195 6.197275 246.098925 4.68 242.28 4.68 
C 238.461075 4.68 234.79805 6.197275 232.097662 8.897662 
C 229.397275 11.59805 227.88 15.261075 227.88 19.08 
C 227.88 22.898925 229.397275 26.56195 232.097662 29.262338 
C 234.79805 31.962725 238.461075 33.48 242.28 33.48 
L 242.28 33.48 
z
" clip-path="url(#pbf5eb432cd)" style="fill: none; stroke: #111111; stroke-width: 1.6; stroke-linejoin: miter"/>
   </g>
   <g id="patch_4">
    <path d="M 242.28 136.332 
C 245.907978 136.332 249.387853 134.890589 251.953221 132.325221 
C 254.518589 129.759853 255.96 126.279978 255.96 122.652 
C 255.96 119.024022 254.518589 115.544147 251.953221 112.978779 
C 249.387853 110.413411 245.907978 108.972 242.28 108.972 
C 238.652022 108.972 235.172147 110.413411 232.606779 112.978779 
C 230.041411 115.544147 228.6 119.024022 228.6 122.652 
C 228.6 126.279978 230.041411 129.759853 232.606779 132.325221 
C 235.172147 134.890589 238.652022 136.332 242.28 136.332 
L 242.28 136.332 
z
" clip-path="url(#pbf5eb432cd)" style="fill: none; stroke: #111111; stroke-width: 1.6; stroke-linejoin: miter"/>
   </g>
   <g id="patch_5">
    <path d="M 242.28 159.588 
C 245.907978 159.588 249.387853 158.146589 251.953221 155.581221 
C 254.518589 153.015853 255.96 149.535978 255.96 145.908 
C 255.96 142.280022 254.518589 138.800147 251.953221 136.234779 
C 249.387853 133.669411 245.907978 132.228 242.28 132.228 
C 238.652022 132.228 235.172147 133.669411 232.606779 136.234779 
C 230.041411 138.800147 228.6 142.280022 228.6 145.908 
C 228.6 149.535978 230.041411 153.015853 232.606779 155.581221 
C 235.172147 158.146589 238.652022 159.588 242.28 159.588 
L 242.28 159.588 
z
" clip-path="url(#pbf5eb432cd)" style="fill: none; stroke: #111111; stroke-width: 1.6; stroke-linejoin: miter"/>
   </g>
   <g id="patch_6">
    <path d="M 242.28 159.48 
C 248.963118 159.48 255.373413 156.824769 260.099091 152.099091 
C 264.824769 147.373413 267.48 140.963118 267.48 134.28 
C 267.48 127.596882 264.824769 121.186587 260.099091 116.460909 
C 255.373413 111.735231 248.963118 109.08 242.28 109.08 
C 235.596882 109.08 229.186587 111.735231 224.460909 116.460909 
C 219.735231 121.186587 217.08 127.596882 217.08 134.28 
C 217.08 140.963118 219.735231 147.373413 224.460909 152.099091 
C 229.186587 156.824769 235.596882 159.48 242.28 159.48 
L 242.28 159.48 
z
" clip-path="url(#pbf5eb432cd)" style="fill: none; stroke-dasharray: 6.66,2.88; stroke-dashoffset: 0; stroke: #cc0000; stroke-width: 1.8; stroke-linejoin: miter"/>
   </g>
   <g id="line2d_2">
    <path d="M 233.64 19.08 
L 234.083077 19.819175 
L 234.526154 20.539206 
L 234.969231 21.221444 
L 235.412308 21.84822 
L 235.855385 22.403301 
L 236.298462 22.87231 
L 236.741538 23.2431 
L 237.184615 23.506067 
L 237.627692 23.654402 
L 238.070769 23.684263 
L 238.513846 23.594875 
L 238.956923 23.388555 
L 239.4 23.070645 
L 239.843077 22.64938 
L 240.286154 22.135669 
L 240.729231 21.542819 
L 241.172308 20.886182 
L 241.615385 20.182767 
L 242.058462 19.45079 
L 242.501538 18.70921 
L 242.944615 17.977233 
L 243.387692 17.273818 
L 243.830769 16.617181 
L 244.273846 16.024331 
L 244.716923 15.51062 
L 245.16 15.089355 
L 245.603077 14.771445 
L 246.046154 14.565125 
L 246.489231 14.475737 
L 246.932308 14.505598 
L 247.375385 14.653933 
L 247.818462 14.9169 
L 248.261538 15.28769 
L 248.704615 15.756699 
L 249.147692 16.31178 
L 249.590769 16.938556 
L 250.033846 17.620794 
L 250.476923 18.340825 
L 250.92 19.08 
" clip-path="url(#pbf5eb432cd)" style="fill: none; stroke: #111111; stroke-width: 1.6; stroke-linecap: round"/>
   </g>
   <g id="line2d_3">
    <path d="M 242.28 33.48 
L 242.28 51.48 
" clip-path="url(#pbf5eb432cd)" style="fill: none; stroke: #111111; stroke-width: 1.6; stroke-linecap: round"/>
   </g>
   <g id="line2d_4">
    <path d="M 242.28 47.88 
L 242.28 40.68 
L 242.28 33.48 
" clip-path="url(#pbf5eb432cd)" style="fill: none; stroke: #111111; stroke-width: 1.6; stroke-linecap: round"/>
   </g>
   <g id="line2d_5">
    <path d="M 242.28 29.88 
L 242.28 47.52 
" clip-path="url(#pbf5eb432cd)" style="fill: none; stroke: #111111; stroke-width: 1.6; stroke-linecap: round"/>
   </g>
   <g id="line2d_6">
    <path d="M 242.28 62.64 
L 242.28 80.28 
" clip-path="url(#pbf5eb432cd)" style="fill: none; stroke: #111111; stroke-width: 1.6; stroke-linecap: round"/>
   </g>
   <g id="line2d_7">
    <path d="M 242.28 76.68 
L 242.28 80.28 
L 242.28 83.88 
" clip-path="url(#pbf5eb432cd)" style="fill: none; stroke: #111111; stroke-width: 1.6; stroke-linecap: round"/>
   </g>
   <g id="line2d_8">
    <path d="M 199.08 83.88 
L 242.28 83.88 
L 285.48 83.88 
" clip-path="url(#pbf5eb432cd)" style="fill: none; stroke: #b22222; stroke-width: 6; stroke-linecap: round"/>
   </g>
   <g id="line2d_9">
    <path d="M 242.28 83.88 
L 242.28 91.08 
L 242.28 98.28 
" clip-path="url(#pbf5eb432cd)" style="fill: none; stroke: #b22222; stroke-width: 1.6; stroke-linecap: round"/>
   </g>
   <g id="line2d_10">
    <path d="M 242.28 90.972 
L 242.28 108.972 
" clip-path="url(#pbf5eb432cd)" style="fill: none; stroke: #111111; stroke-width: 1.6; stroke-linecap: round"/>
   </g>
   <g id="line2d_11">
    <path d="M 242.28 159.588 
L 242.28 177.588 
" clip-path="url(#pbf5eb432cd)" style="fill: none; stroke: #111111; stroke-width: 1.6; stroke-linecap: round"/>
   </g>
   <g id="line2d_12">
    <path d="M 242.28 170.28 
L 242.28 166.68 
L 242.28 163.08 
" clip-path="url(#pbf5eb432cd)" style="fill: none; stroke: #111111; stroke-width: 1.6; stroke-linecap: round"/>
   </g>
   <g id="line2d_13">
    <path d="M 242.28 159.48 
L 242.28 177.12 
" clip-path="url(#pbf5eb432cd)" style="fill: none; stroke: #111111; stroke-width: 1.6; stroke-linecap: round"/>
   </g>
   <g id="line2d_14">
    <path d="M 242.28 192.24 
L 242.28 209.88 
" clip-path="url(#pbf5eb432cd)" style="fill: none; stroke: #111111; stroke-width: 1.6; stroke-linecap: round"/>
   </g>
   <g id="line2d_15">
    <path d="M 242.28 206.28 
L 242.28 211.68 
L 242.28 217.08 
" clip-path="url(#pbf5eb432cd)" style="fill: none; stroke: #111111; stroke-width: 1.6; stroke-linecap: round"/>
   </g>
   <g id="line2d_16">
    <path d="M 148.68 217.08 
L 242.28 217.08 
L 335.88 217.08 
" clip-path="url(#pbf5eb432cd)" style="fill: none; stroke: #11457e; stroke-width: 6; stroke-linecap: round"/>
   </g>
   <g id="line2d_17">
    <path d="M 184.68 217.08 
L 184.68 225.18 
L 184.68 233.28 
" clip-path="url(#pbf5eb432cd)" style="fill: none; stroke: #11457e; stroke-width: 1.6; stroke-linecap: round"/>
   </g>
   <g id="line2d_18">
    <path d="M 184.68 226.08 
L 184.68 243.72 
" clip-path="url(#pbf5eb432cd)" style="fill: none; stroke: #111111; stroke-width: 1.6; stroke-linecap: round"/>
   </g>
   <g id="line2d_19">
    <path d="M 184.68 258.84 
L 184.68 276.48 
" clip-path="url(#pbf5eb432cd)" style="fill: none; stroke: #111111; stroke-width: 1.6; stroke-linecap: round"/>
   </g>
   <g id="patch_7">
    <path d="M 154.08 289.08 
L 215.28 289.08 
L 215.28 253.08 
L 154.08 253.08 
z
" clip-path="url(#pbf5eb432cd)" style="fill: #eef2f7; stroke: #111111; stroke-width: 1.6; stroke-linecap: round"/>
   </g>
   <g id="line2d_20">
    <path d="M 299.88 217.08 
L 299.88 225.18 
L 299.88 233.28 
" clip-path="url(#pbf5eb432cd)" style="fill: none; stroke: #11457e; stroke-width: 1.6; stroke-linecap: round"/>
   </g>
   <g id="line2d_21">
    <path d="M 299.88 226.08 
L 299.88 243.72 
" clip-path="url(#pbf5eb432cd)" style="fill: none; stroke: #111111; stroke-width: 1.6; stroke-linecap: round"/>
   </g>
   <g id="line2d_22">
    <path d="M 299.88 258.84 
L 299.88 276.48 
" clip-path="url(#pbf5eb432cd)" style="fill: none; stroke: #111111; stroke-width: 1.6; stroke-linecap: round"/>
   </g>
   <g id="patch_8">
    <path d="M 269.28 289.08 
L 330.48 289.08 
L 330.48 253.08 
L 269.28 253.08 
z
" clip-path="url(#pbf5eb432cd)" style="fill: #eef2f7; stroke: #111111; stroke-width: 1.6; stroke-linecap: round"/>
   </g>
   <g id="line2d_23">
    <path d="M 339.48 368.28 
L 339.48 349.38 
L 339.48 330.48 
" clip-path="url(#pbf5eb432cd)" style="fill: none; stroke: #bbbbbb; stroke-width: 0.9; stroke-linecap: round"/>
   </g>
   <g id="text_1">
    <!-- UTILITY -->
    <g style="fill: #111111" transform="translate(265.68 13.199375) scale(0.1 -0.1)">
     <defs>
      <path id="DejaVuSans-55" d="M 556 4666 
L 1191 4666 
L 1191 1831 
Q 1191 1081 1462 751 
Q 1734 422 2344 422 
Q 2950 422 3222 751 
Q 3494 1081 3494 1831 
L 3494 4666 
L 4128 4666 
L 4128 1753 
Q 4128 841 3676 375 
Q 3225 -91 2344 -91 
Q 1459 -91 1007 375 
Q 556 841 556 1753 
L 556 4666 
z
" transform="scale(0.015625)"/>
      <path id="DejaVuSans-54" d="M -19 4666 
L 3928 4666 
L 3928 4134 
L 2272 4134 
L 2272 0 
L 1638 0 
L 1638 4134 
L -19 4134 
L -19 4666 
z
" transform="scale(0.015625)"/>
      <path id="DejaVuSans-49" d="M 628 4666 
L 1259 4666 
L 1259 0 
L 628 0 
L 628 4666 
z
" transform="scale(0.015625)"/>
      <path id="DejaVuSans-4c" d="M 628 4666 
L 1259 4666 
L 1259 531 
L 3531 531 
L 3531 0 
L 628 0 
L 628 4666 
z
" transform="scale(0.015625)"/>
      <path id="DejaVuSans-59" d="M -13 4666 
L 666 4666 
L 1959 2747 
L 3244 4666 
L 3922 4666 
L 2272 2222 
L 2272 0 
L 1638 0 
L 1638 2222 
L -13 4666 
z
" transform="scale(0.015625)"/>
     </defs>
     <use xlink:href="#DejaVuSans-55"/>
     <use xlink:href="#DejaVuSans-54" transform="translate(73.193359 0)"/>
     <use xlink:href="#DejaVuSans-49" transform="translate(134.277344 0)"/>
     <use xlink:href="#DejaVuSans-4c" transform="translate(163.769531 0)"/>
     <use xlink:href="#DejaVuSans-49" transform="translate(219.482422 0)"/>
     <use xlink:href="#DejaVuSans-54" transform="translate(248.974609 0)"/>
     <use xlink:href="#DejaVuSans-59" transform="translate(310.058594 0)"/>
    </g>
   </g>
   <g id="text_2">
    <!-- 13.8 kV  60 Hz -->
    <g style="fill: #555555" transform="translate(265.68 22.7275) scale(0.08 -0.08)">
     <defs>
      <path id="DejaVuSans-31" d="M 794 531 
L 1825 531 
L 1825 4091 
L 703 3866 
L 703 4441 
L 1819 4666 
L 2450 4666 
L 2450 531 
L 3481 531 
L 3481 0 
L 794 0 
L 794 531 
z
" transform="scale(0.015625)"/>
      <path id="DejaVuSans-33" d="M 2597 2516 
Q 3050 2419 3304 2112 
Q 3559 1806 3559 1356 
Q 3559 666 3084 287 
Q 2609 -91 1734 -91 
Q 1441 -91 1130 -33 
Q 819 25 488 141 
L 488 750 
Q 750 597 1062 519 
Q 1375 441 1716 441 
Q 2309 441 2620 675 
Q 2931 909 2931 1356 
Q 2931 1769 2642 2001 
Q 2353 2234 1838 2234 
L 1294 2234 
L 1294 2753 
L 1863 2753 
Q 2328 2753 2575 2939 
Q 2822 3125 2822 3475 
Q 2822 3834 2567 4026 
Q 2313 4219 1838 4219 
Q 1578 4219 1281 4162 
Q 984 4106 628 3988 
L 628 4550 
Q 988 4650 1302 4700 
Q 1616 4750 1894 4750 
Q 2613 4750 3031 4423 
Q 3450 4097 3450 3541 
Q 3450 3153 3228 2886 
Q 3006 2619 2597 2516 
z
" transform="scale(0.015625)"/>
      <path id="DejaVuSans-2e" d="M 684 794 
L 1344 794 
L 1344 0 
L 684 0 
L 684 794 
z
" transform="scale(0.015625)"/>
      <path id="DejaVuSans-38" d="M 2034 2216 
Q 1584 2216 1326 1975 
Q 1069 1734 1069 1313 
Q 1069 891 1326 650 
Q 1584 409 2034 409 
Q 2484 409 2743 651 
Q 3003 894 3003 1313 
Q 3003 1734 2745 1975 
Q 2488 2216 2034 2216 
z
M 1403 2484 
Q 997 2584 770 2862 
Q 544 3141 544 3541 
Q 544 4100 942 4425 
Q 1341 4750 2034 4750 
Q 2731 4750 3128 4425 
Q 3525 4100 3525 3541 
Q 3525 3141 3298 2862 
Q 3072 2584 2669 2484 
Q 3125 2378 3379 2068 
Q 3634 1759 3634 1313 
Q 3634 634 3220 271 
Q 2806 -91 2034 -91 
Q 1263 -91 848 271 
Q 434 634 434 1313 
Q 434 1759 690 2068 
Q 947 2378 1403 2484 
z
M 1172 3481 
Q 1172 3119 1398 2916 
Q 1625 2713 2034 2713 
Q 2441 2713 2670 2916 
Q 2900 3119 2900 3481 
Q 2900 3844 2670 4047 
Q 2441 4250 2034 4250 
Q 1625 4250 1398 4047 
Q 1172 3844 1172 3481 
z
" transform="scale(0.015625)"/>
      <path id="DejaVuSans-20" transform="scale(0.015625)"/>
      <path id="DejaVuSans-6b" d="M 581 4863 
L 1159 4863 
L 1159 1991 
L 2875 3500 
L 3609 3500 
L 1753 1863 
L 3688 0 
L 2938 0 
L 1159 1709 
L 1159 0 
L 581 0 
L 581 4863 
z
" transform="scale(0.015625)"/>
      <path id="DejaVuSans-56" d="M 1831 0 
L 50 4666 
L 709 4666 
L 2188 738 
L 3669 4666 
L 4325 4666 
L 2547 0 
L 1831 0 
z
" transform="scale(0.015625)"/>
      <path id="DejaVuSans-36" d="M 2113 2584 
Q 1688 2584 1439 2293 
Q 1191 2003 1191 1497 
Q 1191 994 1439 701 
Q 1688 409 2113 409 
Q 2538 409 2786 701 
Q 3034 994 3034 1497 
Q 3034 2003 2786 2293 
Q 2538 2584 2113 2584 
z
M 3366 4563 
L 3366 3988 
Q 3128 4100 2886 4159 
Q 2644 4219 2406 4219 
Q 1781 4219 1451 3797 
Q 1122 3375 1075 2522 
Q 1259 2794 1537 2939 
Q 1816 3084 2150 3084 
Q 2853 3084 3261 2657 
Q 3669 2231 3669 1497 
Q 3669 778 3244 343 
Q 2819 -91 2113 -91 
Q 1303 -91 875 529 
Q 447 1150 447 2328 
Q 447 3434 972 4092 
Q 1497 4750 2381 4750 
Q 2619 4750 2861 4703 
Q 3103 4656 3366 4563 
z
" transform="scale(0.015625)"/>
      <path id="DejaVuSans-30" d="M 2034 4250 
Q 1547 4250 1301 3770 
Q 1056 3291 1056 2328 
Q 1056 1369 1301 889 
Q 1547 409 2034 409 
Q 2525 409 2770 889 
Q 3016 1369 3016 2328 
Q 3016 3291 2770 3770 
Q 2525 4250 2034 4250 
z
M 2034 4750 
Q 2819 4750 3233 4129 
Q 3647 3509 3647 2328 
Q 3647 1150 3233 529 
Q 2819 -91 2034 -91 
Q 1250 -91 836 529 
Q 422 1150 422 2328 
Q 422 3509 836 4129 
Q 1250 4750 2034 4750 
z
" transform="scale(0.015625)"/>
      <path id="DejaVuSans-48" d="M 628 4666 
L 1259 4666 
L 1259 2753 
L 3553 2753 
L 3553 4666 
L 4184 4666 
L 4184 0 
L 3553 0 
L 3553 2222 
L 1259 2222 
L 1259 0 
L 628 0 
L 628 4666 
z
" transform="scale(0.015625)"/>
      <path id="DejaVuSans-7a" d="M 353 3500 
L 3084 3500 
L 3084 2975 
L 922 459 
L 3084 459 
L 3084 0 
L 275 0 
L 275 525 
L 2438 3041 
L 353 3041 
L 353 3500 
z
" transform="scale(0.015625)"/>
     </defs>
     <use xlink:href="#DejaVuSans-31"/>
     <use xlink:href="#DejaVuSans-33" transform="translate(63.623047 0)"/>
     <use xlink:href="#DejaVuSans-2e" transform="translate(127.246094 0)"/>
     <use xlink:href="#DejaVuSans-38" transform="translate(159.033203 0)"/>
     <use xlink:href="#DejaVuSans-20" transform="translate(222.65625 0)"/>
     <use xlink:href="#DejaVuSans-6b" transform="translate(254.443359 0)"/>
     <use xlink:href="#DejaVuSans-56" transform="translate(312.353516 0)"/>
     <use xlink:href="#DejaVuSans-20" transform="translate(380.761719 0)"/>
     <use xlink:href="#DejaVuSans-20" transform="translate(412.548828 0)"/>
     <use xlink:href="#DejaVuSans-36" transform="translate(444.335938 0)"/>
     <use xlink:href="#DejaVuSans-30" transform="translate(507.958984 0)"/>
     <use xlink:href="#DejaVuSans-20" transform="translate(571.582031 0)"/>
     <use xlink:href="#DejaVuSans-48" transform="translate(603.369141 0)"/>
     <use xlink:href="#DejaVuSans-7a" transform="translate(678.564453 0)"/>
    </g>
   </g>
   <g id="patch_9">
    <path d="M 234.72 62.64 
L 249.84 62.64 
L 249.84 47.52 
L 234.72 47.52 
z
" clip-path="url(#pbf5eb432cd)" style="fill: #111111; stroke: #111111; stroke-width: 1.6; stroke-linecap: round"/>
   </g>
   <g id="text_3">
    <!-- 52-I -->
    <g style="fill: #111111" transform="translate(248.76 52.163437) scale(0.09 -0.09)">
     <defs>
      <path id="DejaVuSans-35" d="M 691 4666 
L 3169 4666 
L 3169 4134 
L 1269 4134 
L 1269 2991 
Q 1406 3038 1543 3061 
Q 1681 3084 1819 3084 
Q 2600 3084 3056 2656 
Q 3513 2228 3513 1497 
Q 3513 744 3044 326 
Q 2575 -91 1722 -91 
Q 1428 -91 1123 -41 
Q 819 9 494 109 
L 494 744 
Q 775 591 1075 516 
Q 1375 441 1709 441 
Q 2250 441 2565 725 
Q 2881 1009 2881 1497 
Q 2881 1984 2565 2268 
Q 2250 2553 1709 2553 
Q 1456 2553 1204 2497 
Q 953 2441 691 2322 
L 691 4666 
z
" transform="scale(0.015625)"/>
      <path id="DejaVuSans-32" d="M 1228 531 
L 3431 531 
L 3431 0 
L 469 0 
L 469 531 
Q 828 903 1448 1529 
Q 2069 2156 2228 2338 
Q 2531 2678 2651 2914 
Q 2772 3150 2772 3378 
Q 2772 3750 2511 3984 
Q 2250 4219 1831 4219 
Q 1534 4219 1204 4116 
Q 875 4013 500 3803 
L 500 4441 
Q 881 4594 1212 4672 
Q 1544 4750 1819 4750 
Q 2544 4750 2975 4387 
Q 3406 4025 3406 3419 
Q 3406 3131 3298 2873 
Q 3191 2616 2906 2266 
Q 2828 2175 2409 1742 
Q 1991 1309 1228 531 
z
" transform="scale(0.015625)"/>
      <path id="DejaVuSans-2d" d="M 313 2009 
L 1997 2009 
L 1997 1497 
L 313 1497 
L 313 2009 
z
" transform="scale(0.015625)"/>
     </defs>
     <use xlink:href="#DejaVuSans-35"/>
     <use xlink:href="#DejaVuSans-32" transform="translate(63.623047 0)"/>
     <use xlink:href="#DejaVuSans-2d" transform="translate(127.246094 0)"/>
     <use xlink:href="#DejaVuSans-49" transform="translate(163.330078 0)"/>
    </g>
   </g>
   <g id="text_4">
    <!-- TX-1 -->
    <g style="fill: #111111" transform="translate(268.2 131.279375) scale(0.1 -0.1)">
     <defs>
      <path id="DejaVuSans-58" d="M 403 4666 
L 1081 4666 
L 2241 2931 
L 3406 4666 
L 4084 4666 
L 2584 2425 
L 4184 0 
L 3506 0 
L 2194 1984 
L 872 0 
L 191 0 
L 1856 2491 
L 403 4666 
z
" transform="scale(0.015625)"/>
     </defs>
     <use xlink:href="#DejaVuSans-54"/>
     <use xlink:href="#DejaVuSans-58" transform="translate(61.083984 0)"/>
     <use xlink:href="#DejaVuSans-2d" transform="translate(124.589844 0)"/>
     <use xlink:href="#DejaVuSans-31" transform="translate(160.673828 0)"/>
    </g>
   </g>
   <g id="text_5">
    <!-- 1600 kVA -->
    <g style="fill: #555555" transform="translate(268.2 140.8075) scale(0.08 -0.08)">
     <defs>
      <path id="DejaVuSans-41" d="M 2188 4044 
L 1331 1722 
L 3047 1722 
L 2188 4044 
z
M 1831 4666 
L 2547 4666 
L 4325 0 
L 3669 0 
L 3244 1197 
L 1141 1197 
L 716 0 
L 50 0 
L 1831 4666 
z
" transform="scale(0.015625)"/>
     </defs>
     <use xlink:href="#DejaVuSans-31"/>
     <use xlink:href="#DejaVuSans-36" transform="translate(63.623047 0)"/>
     <use xlink:href="#DejaVuSans-30" transform="translate(127.246094 0)"/>
     <use xlink:href="#DejaVuSans-30" transform="translate(190.869141 0)"/>
     <use xlink:href="#DejaVuSans-20" transform="translate(254.492188 0)"/>
     <use xlink:href="#DejaVuSans-6b" transform="translate(286.279297 0)"/>
     <use xlink:href="#DejaVuSans-56" transform="translate(344.189453 0)"/>
     <use xlink:href="#DejaVuSans-41" transform="translate(406.222656 0)"/>
    </g>
   </g>
   <g id="text_6">
    <!-- 13.8/0.4 kV -->
    <g style="fill: #555555" transform="translate(268.2 149.4475) scale(0.08 -0.08)">
     <defs>
      <path id="DejaVuSans-2f" d="M 1625 4666 
L 2156 4666 
L 531 -594 
L 0 -594 
L 1625 4666 
z
" transform="scale(0.015625)"/>
      <path id="DejaVuSans-34" d="M 2419 4116 
L 825 1625 
L 2419 1625 
L 2419 4116 
z
M 2253 4666 
L 3047 4666 
L 3047 1625 
L 3713 1625 
L 3713 1100 
L 3047 1100 
L 3047 0 
L 2419 0 
L 2419 1100 
L 313 1100 
L 313 1709 
L 2253 4666 
z
" transform="scale(0.015625)"/>
     </defs>
     <use xlink:href="#DejaVuSans-31"/>
     <use xlink:href="#DejaVuSans-33" transform="translate(63.623047 0)"/>
     <use xlink:href="#DejaVuSans-2e" transform="translate(127.246094 0)"/>
     <use xlink:href="#DejaVuSans-38" transform="translate(159.033203 0)"/>
     <use xlink:href="#DejaVuSans-2f" transform="translate(222.65625 0)"/>
     <use xlink:href="#DejaVuSans-30" transform="translate(256.347656 0)"/>
     <use xlink:href="#DejaVuSans-2e" transform="translate(319.970703 0)"/>
     <use xlink:href="#DejaVuSans-34" transform="translate(351.757812 0)"/>
     <use xlink:href="#DejaVuSans-20" transform="translate(415.380859 0)"/>
     <use xlink:href="#DejaVuSans-6b" transform="translate(447.167969 0)"/>
     <use xlink:href="#DejaVuSans-56" transform="translate(505.078125 0)"/>
    </g>
   </g>
   <g id="patch_10">
    <path d="M 234.72 192.24 
L 249.84 192.24 
L 249.84 177.12 
L 234.72 177.12 
z
" clip-path="url(#pbf5eb432cd)" style="fill: #111111; stroke: #111111; stroke-width: 1.6; stroke-linecap: round"/>
   </g>
   <g id="text_7">
    <!-- LV-MSB  -  single bus -->
    <g style="fill: #11457e" transform="translate(152.28 205.439375) scale(0.1 -0.1)">
     <defs>
      <path id="DejaVuSans-4d" d="M 628 4666 
L 1569 4666 
L 2759 1491 
L 3956 4666 
L 4897 4666 
L 4897 0 
L 4281 0 
L 4281 4097 
L 3078 897 
L 2444 897 
L 1241 4097 
L 1241 0 
L 628 0 
L 628 4666 
z
" transform="scale(0.015625)"/>
      <path id="DejaVuSans-53" d="M 3425 4513 
L 3425 3897 
Q 3066 4069 2747 4153 
Q 2428 4238 2131 4238 
Q 1616 4238 1336 4038 
Q 1056 3838 1056 3469 
Q 1056 3159 1242 3001 
Q 1428 2844 1947 2747 
L 2328 2669 
Q 3034 2534 3370 2195 
Q 3706 1856 3706 1288 
Q 3706 609 3251 259 
Q 2797 -91 1919 -91 
Q 1588 -91 1214 -16 
Q 841 59 441 206 
L 441 856 
Q 825 641 1194 531 
Q 1563 422 1919 422 
Q 2459 422 2753 634 
Q 3047 847 3047 1241 
Q 3047 1584 2836 1778 
Q 2625 1972 2144 2069 
L 1759 2144 
Q 1053 2284 737 2584 
Q 422 2884 422 3419 
Q 422 4038 858 4394 
Q 1294 4750 2059 4750 
Q 2388 4750 2728 4690 
Q 3069 4631 3425 4513 
z
" transform="scale(0.015625)"/>
      <path id="DejaVuSans-42" d="M 1259 2228 
L 1259 519 
L 2272 519 
Q 2781 519 3026 730 
Q 3272 941 3272 1375 
Q 3272 1813 3026 2020 
Q 2781 2228 2272 2228 
L 1259 2228 
z
M 1259 4147 
L 1259 2741 
L 2194 2741 
Q 2656 2741 2882 2914 
Q 3109 3088 3109 3444 
Q 3109 3797 2882 3972 
Q 2656 4147 2194 4147 
L 1259 4147 
z
M 628 4666 
L 2241 4666 
Q 2963 4666 3353 4366 
Q 3744 4066 3744 3513 
Q 3744 3084 3544 2831 
Q 3344 2578 2956 2516 
Q 3422 2416 3680 2098 
Q 3938 1781 3938 1306 
Q 3938 681 3513 340 
Q 3088 0 2303 0 
L 628 0 
L 628 4666 
z
" transform="scale(0.015625)"/>
      <path id="DejaVuSans-73" d="M 2834 3397 
L 2834 2853 
Q 2591 2978 2328 3040 
Q 2066 3103 1784 3103 
Q 1356 3103 1142 2972 
Q 928 2841 928 2578 
Q 928 2378 1081 2264 
Q 1234 2150 1697 2047 
L 1894 2003 
Q 2506 1872 2764 1633 
Q 3022 1394 3022 966 
Q 3022 478 2636 193 
Q 2250 -91 1575 -91 
Q 1294 -91 989 -36 
Q 684 19 347 128 
L 347 722 
Q 666 556 975 473 
Q 1284 391 1588 391 
Q 1994 391 2212 530 
Q 2431 669 2431 922 
Q 2431 1156 2273 1281 
Q 2116 1406 1581 1522 
L 1381 1569 
Q 847 1681 609 1914 
Q 372 2147 372 2553 
Q 372 3047 722 3315 
Q 1072 3584 1716 3584 
Q 2034 3584 2315 3537 
Q 2597 3491 2834 3397 
z
" transform="scale(0.015625)"/>
      <path id="DejaVuSans-69" d="M 603 3500 
L 1178 3500 
L 1178 0 
L 603 0 
L 603 3500 
z
M 603 4863 
L 1178 4863 
L 1178 4134 
L 603 4134 
L 603 4863 
z
" transform="scale(0.015625)"/>
      <path id="DejaVuSans-6e" d="M 3513 2113 
L 3513 0 
L 2938 0 
L 2938 2094 
Q 2938 2591 2744 2837 
Q 2550 3084 2163 3084 
Q 1697 3084 1428 2787 
Q 1159 2491 1159 1978 
L 1159 0 
L 581 0 
L 581 3500 
L 1159 3500 
L 1159 2956 
Q 1366 3272 1645 3428 
Q 1925 3584 2291 3584 
Q 2894 3584 3203 3211 
Q 3513 2838 3513 2113 
z
" transform="scale(0.015625)"/>
      <path id="DejaVuSans-67" d="M 2906 1791 
Q 2906 2416 2648 2759 
Q 2391 3103 1925 3103 
Q 1463 3103 1205 2759 
Q 947 2416 947 1791 
Q 947 1169 1205 825 
Q 1463 481 1925 481 
Q 2391 481 2648 825 
Q 2906 1169 2906 1791 
z
M 3481 434 
Q 3481 -459 3084 -895 
Q 2688 -1331 1869 -1331 
Q 1566 -1331 1297 -1286 
Q 1028 -1241 775 -1147 
L 775 -588 
Q 1028 -725 1275 -790 
Q 1522 -856 1778 -856 
Q 2344 -856 2625 -561 
Q 2906 -266 2906 331 
L 2906 616 
Q 2728 306 2450 153 
Q 2172 0 1784 0 
Q 1141 0 747 490 
Q 353 981 353 1791 
Q 353 2603 747 3093 
Q 1141 3584 1784 3584 
Q 2172 3584 2450 3431 
Q 2728 3278 2906 2969 
L 2906 3500 
L 3481 3500 
L 3481 434 
z
" transform="scale(0.015625)"/>
      <path id="DejaVuSans-6c" d="M 603 4863 
L 1178 4863 
L 1178 0 
L 603 0 
L 603 4863 
z
" transform="scale(0.015625)"/>
      <path id="DejaVuSans-65" d="M 3597 1894 
L 3597 1613 
L 953 1613 
Q 991 1019 1311 708 
Q 1631 397 2203 397 
Q 2534 397 2845 478 
Q 3156 559 3463 722 
L 3463 178 
Q 3153 47 2828 -22 
Q 2503 -91 2169 -91 
Q 1331 -91 842 396 
Q 353 884 353 1716 
Q 353 2575 817 3079 
Q 1281 3584 2069 3584 
Q 2775 3584 3186 3129 
Q 3597 2675 3597 1894 
z
M 3022 2063 
Q 3016 2534 2758 2815 
Q 2500 3097 2075 3097 
Q 1594 3097 1305 2825 
Q 1016 2553 972 2059 
L 3022 2063 
z
" transform="scale(0.015625)"/>
      <path id="DejaVuSans-62" d="M 3116 1747 
Q 3116 2381 2855 2742 
Q 2594 3103 2138 3103 
Q 1681 3103 1420 2742 
Q 1159 2381 1159 1747 
Q 1159 1113 1420 752 
Q 1681 391 2138 391 
Q 2594 391 2855 752 
Q 3116 1113 3116 1747 
z
M 1159 2969 
Q 1341 3281 1617 3432 
Q 1894 3584 2278 3584 
Q 2916 3584 3314 3078 
Q 3713 2572 3713 1747 
Q 3713 922 3314 415 
Q 2916 -91 2278 -91 
Q 1894 -91 1617 61 
Q 1341 213 1159 525 
L 1159 0 
L 581 0 
L 581 4863 
L 1159 4863 
L 1159 2969 
z
" transform="scale(0.015625)"/>
      <path id="DejaVuSans-75" d="M 544 1381 
L 544 3500 
L 1119 3500 
L 1119 1403 
Q 1119 906 1312 657 
Q 1506 409 1894 409 
Q 2359 409 2629 706 
Q 2900 1003 2900 1516 
L 2900 3500 
L 3475 3500 
L 3475 0 
L 2900 0 
L 2900 538 
Q 2691 219 2414 64 
Q 2138 -91 1772 -91 
Q 1169 -91 856 284 
Q 544 659 544 1381 
z
M 1991 3584 
L 1991 3584 
z
" transform="scale(0.015625)"/>
     </defs>
     <use xlink:href="#DejaVuSans-4c"/>
     <use xlink:href="#DejaVuSans-56" transform="translate(44.712891 0)"/>
     <use xlink:href="#DejaVuSans-2d" transform="translate(107.246094 0)"/>
     <use xlink:href="#DejaVuSans-4d" transform="translate(143.330078 0)"/>
     <use xlink:href="#DejaVuSans-53" transform="translate(229.609375 0)"/>
     <use xlink:href="#DejaVuSans-42" transform="translate(293.085938 0)"/>
     <use xlink:href="#DejaVuSans-20" transform="translate(361.689453 0)"/>
     <use xlink:href="#DejaVuSans-20" transform="translate(393.476562 0)"/>
     <use xlink:href="#DejaVuSans-2d" transform="translate(425.263672 0)"/>
     <use xlink:href="#DejaVuSans-20" transform="translate(461.347656 0)"/>
     <use xlink:href="#DejaVuSans-20" transform="translate(493.134766 0)"/>
     <use xlink:href="#DejaVuSans-73" transform="translate(524.921875 0)"/>
     <use xlink:href="#DejaVuSans-69" transform="translate(577.021484 0)"/>
     <use xlink:href="#DejaVuSans-6e" transform="translate(604.804688 0)"/>
     <use xlink:href="#DejaVuSans-67" transform="translate(668.183594 0)"/>
     <use xlink:href="#DejaVuSans-6c" transform="translate(731.660156 0)"/>
     <use xlink:href="#DejaVuSans-65" transform="translate(759.443359 0)"/>
     <use xlink:href="#DejaVuSans-20" transform="translate(820.966797 0)"/>
     <use xlink:href="#DejaVuSans-62" transform="translate(852.753906 0)"/>
     <use xlink:href="#DejaVuSans-75" transform="translate(916.230469 0)"/>
     <use xlink:href="#DejaVuSans-73" transform="translate(979.609375 0)"/>
    </g>
   </g>
   <g id="patch_11">
    <path d="M 177.12 258.84 
L 192.24 258.84 
L 192.24 243.72 
L 177.12 243.72 
z
" clip-path="url(#pbf5eb432cd)" style="fill: #111111; stroke: #111111; stroke-width: 1.6; stroke-linecap: round"/>
   </g>
   <g id="patch_12">
    <path d="M 292.32 258.84 
L 307.44 258.84 
L 307.44 243.72 
L 292.32 243.72 
z
" clip-path="url(#pbf5eb432cd)" style="fill: #111111; stroke: #111111; stroke-width: 1.6; stroke-linecap: round"/>
   </g>
   <g id="text_8">
    <!-- SPOF: single TX -->
    <g style="fill: #cc0000" transform="translate(112.565937 135.800312) scale(0.1 -0.1)">
     <defs>
      <path id="DejaVuSans-50" d="M 1259 4147 
L 1259 2394 
L 2053 2394 
Q 2494 2394 2734 2622 
Q 2975 2850 2975 3272 
Q 2975 3691 2734 3919 
Q 2494 4147 2053 4147 
L 1259 4147 
z
M 628 4666 
L 2053 4666 
Q 2838 4666 3239 4311 
Q 3641 3956 3641 3272 
Q 3641 2581 3239 2228 
Q 2838 1875 2053 1875 
L 1259 1875 
L 1259 0 
L 628 0 
L 628 4666 
z
" transform="scale(0.015625)"/>
      <path id="DejaVuSans-4f" d="M 2522 4238 
Q 1834 4238 1429 3725 
Q 1025 3213 1025 2328 
Q 1025 1447 1429 934 
Q 1834 422 2522 422 
Q 3209 422 3611 934 
Q 4013 1447 4013 2328 
Q 4013 3213 3611 3725 
Q 3209 4238 2522 4238 
z
M 2522 4750 
Q 3503 4750 4090 4092 
Q 4678 3434 4678 2328 
Q 4678 1225 4090 567 
Q 3503 -91 2522 -91 
Q 1538 -91 948 565 
Q 359 1222 359 2328 
Q 359 3434 948 4092 
Q 1538 4750 2522 4750 
z
" transform="scale(0.015625)"/>
      <path id="DejaVuSans-46" d="M 628 4666 
L 3309 4666 
L 3309 4134 
L 1259 4134 
L 1259 2759 
L 3109 2759 
L 3109 2228 
L 1259 2228 
L 1259 0 
L 628 0 
L 628 4666 
z
" transform="scale(0.015625)"/>
      <path id="DejaVuSans-3a" d="M 750 794 
L 1409 794 
L 1409 0 
L 750 0 
L 750 794 
z
M 750 3309 
L 1409 3309 
L 1409 2516 
L 750 2516 
L 750 3309 
z
" transform="scale(0.015625)"/>
     </defs>
     <use xlink:href="#DejaVuSans-53"/>
     <use xlink:href="#DejaVuSans-50" transform="translate(63.476562 0)"/>
     <use xlink:href="#DejaVuSans-4f" transform="translate(123.779297 0)"/>
     <use xlink:href="#DejaVuSans-46" transform="translate(202.490234 0)"/>
     <use xlink:href="#DejaVuSans-3a" transform="translate(252.259766 0)"/>
     <use xlink:href="#DejaVuSans-20" transform="translate(285.951172 0)"/>
     <use xlink:href="#DejaVuSans-73" transform="translate(317.738281 0)"/>
     <use xlink:href="#DejaVuSans-69" transform="translate(369.837891 0)"/>
     <use xlink:href="#DejaVuSans-6e" transform="translate(397.621094 0)"/>
     <use xlink:href="#DejaVuSans-67" transform="translate(461 0)"/>
     <use xlink:href="#DejaVuSans-6c" transform="translate(524.476562 0)"/>
     <use xlink:href="#DejaVuSans-65" transform="translate(552.259766 0)"/>
     <use xlink:href="#DejaVuSans-20" transform="translate(613.783203 0)"/>
     <use xlink:href="#DejaVuSans-54" transform="translate(645.570312 0)"/>
     <use xlink:href="#DejaVuSans-58" transform="translate(706.654297 0)"/>
    </g>
    <!-- + single bus -->
    <g style="fill: #cc0000" transform="translate(127.844062 145.478437) scale(0.1 -0.1)">
     <defs>
      <path id="DejaVuSans-2b" d="M 2944 4013 
L 2944 2272 
L 4684 2272 
L 4684 1741 
L 2944 1741 
L 2944 0 
L 2419 0 
L 2419 1741 
L 678 1741 
L 678 2272 
L 2419 2272 
L 2419 4013 
L 2944 4013 
z
" transform="scale(0.015625)"/>
     </defs>
     <use xlink:href="#DejaVuSans-2b"/>
     <use xlink:href="#DejaVuSans-20" transform="translate(83.789062 0)"/>
     <use xlink:href="#DejaVuSans-73" transform="translate(115.576172 0)"/>
     <use xlink:href="#DejaVuSans-69" transform="translate(167.675781 0)"/>
     <use xlink:href="#DejaVuSans-6e" transform="translate(195.458984 0)"/>
     <use xlink:href="#DejaVuSans-67" transform="translate(258.837891 0)"/>
     <use xlink:href="#DejaVuSans-6c" transform="translate(322.314453 0)"/>
     <use xlink:href="#DejaVuSans-65" transform="translate(350.097656 0)"/>
     <use xlink:href="#DejaVuSans-20" transform="translate(411.621094 0)"/>
     <use xlink:href="#DejaVuSans-62" transform="translate(443.408203 0)"/>
     <use xlink:href="#DejaVuSans-75" transform="translate(506.884766 0)"/>
     <use xlink:href="#DejaVuSans-73" transform="translate(570.263672 0)"/>
    </g>
   </g>
   <g id="text_9">
    <!-- Any loss of TX-1, its feeder, the incomer or the bus blacks out the whole plant. -->
    <g style="fill: #333333" transform="translate(68.878828 318.563437) scale(0.09 -0.09)">
     <defs>
      <path id="DejaVuSans-79" d="M 2059 -325 
Q 1816 -950 1584 -1140 
Q 1353 -1331 966 -1331 
L 506 -1331 
L 506 -850 
L 844 -850 
Q 1081 -850 1212 -737 
Q 1344 -625 1503 -206 
L 1606 56 
L 191 3500 
L 800 3500 
L 1894 763 
L 2988 3500 
L 3597 3500 
L 2059 -325 
z
" transform="scale(0.015625)"/>
      <path id="DejaVuSans-6f" d="M 1959 3097 
Q 1497 3097 1228 2736 
Q 959 2375 959 1747 
Q 959 1119 1226 758 
Q 1494 397 1959 397 
Q 2419 397 2687 759 
Q 2956 1122 2956 1747 
Q 2956 2369 2687 2733 
Q 2419 3097 1959 3097 
z
M 1959 3584 
Q 2709 3584 3137 3096 
Q 3566 2609 3566 1747 
Q 3566 888 3137 398 
Q 2709 -91 1959 -91 
Q 1206 -91 779 398 
Q 353 888 353 1747 
Q 353 2609 779 3096 
Q 1206 3584 1959 3584 
z
" transform="scale(0.015625)"/>
      <path id="DejaVuSans-66" d="M 2375 4863 
L 2375 4384 
L 1825 4384 
Q 1516 4384 1395 4259 
Q 1275 4134 1275 3809 
L 1275 3500 
L 2222 3500 
L 2222 3053 
L 1275 3053 
L 1275 0 
L 697 0 
L 697 3053 
L 147 3053 
L 147 3500 
L 697 3500 
L 697 3744 
Q 697 4328 969 4595 
Q 1241 4863 1831 4863 
L 2375 4863 
z
" transform="scale(0.015625)"/>
      <path id="DejaVuSans-2c" d="M 750 794 
L 1409 794 
L 1409 256 
L 897 -744 
L 494 -744 
L 750 256 
L 750 794 
z
" transform="scale(0.015625)"/>
      <path id="DejaVuSans-74" d="M 1172 4494 
L 1172 3500 
L 2356 3500 
L 2356 3053 
L 1172 3053 
L 1172 1153 
Q 1172 725 1289 603 
Q 1406 481 1766 481 
L 2356 481 
L 2356 0 
L 1766 0 
Q 1100 0 847 248 
Q 594 497 594 1153 
L 594 3053 
L 172 3053 
L 172 3500 
L 594 3500 
L 594 4494 
L 1172 4494 
z
" transform="scale(0.015625)"/>
      <path id="DejaVuSans-64" d="M 2906 2969 
L 2906 4863 
L 3481 4863 
L 3481 0 
L 2906 0 
L 2906 525 
Q 2725 213 2448 61 
Q 2172 -91 1784 -91 
Q 1150 -91 751 415 
Q 353 922 353 1747 
Q 353 2572 751 3078 
Q 1150 3584 1784 3584 
Q 2172 3584 2448 3432 
Q 2725 3281 2906 2969 
z
M 947 1747 
Q 947 1113 1208 752 
Q 1469 391 1925 391 
Q 2381 391 2643 752 
Q 2906 1113 2906 1747 
Q 2906 2381 2643 2742 
Q 2381 3103 1925 3103 
Q 1469 3103 1208 2742 
Q 947 2381 947 1747 
z
" transform="scale(0.015625)"/>
      <path id="DejaVuSans-72" d="M 2631 2963 
Q 2534 3019 2420 3045 
Q 2306 3072 2169 3072 
Q 1681 3072 1420 2755 
Q 1159 2438 1159 1844 
L 1159 0 
L 581 0 
L 581 3500 
L 1159 3500 
L 1159 2956 
Q 1341 3275 1631 3429 
Q 1922 3584 2338 3584 
Q 2397 3584 2469 3576 
Q 2541 3569 2628 3553 
L 2631 2963 
z
" transform="scale(0.015625)"/>
      <path id="DejaVuSans-68" d="M 3513 2113 
L 3513 0 
L 2938 0 
L 2938 2094 
Q 2938 2591 2744 2837 
Q 2550 3084 2163 3084 
Q 1697 3084 1428 2787 
Q 1159 2491 1159 1978 
L 1159 0 
L 581 0 
L 581 4863 
L 1159 4863 
L 1159 2956 
Q 1366 3272 1645 3428 
Q 1925 3584 2291 3584 
Q 2894 3584 3203 3211 
Q 3513 2838 3513 2113 
z
" transform="scale(0.015625)"/>
      <path id="DejaVuSans-63" d="M 3122 3366 
L 3122 2828 
Q 2878 2963 2633 3030 
Q 2388 3097 2138 3097 
Q 1578 3097 1268 2742 
Q 959 2388 959 1747 
Q 959 1106 1268 751 
Q 1578 397 2138 397 
Q 2388 397 2633 464 
Q 2878 531 3122 666 
L 3122 134 
Q 2881 22 2623 -34 
Q 2366 -91 2075 -91 
Q 1284 -91 818 406 
Q 353 903 353 1747 
Q 353 2603 823 3093 
Q 1294 3584 2113 3584 
Q 2378 3584 2631 3529 
Q 2884 3475 3122 3366 
z
" transform="scale(0.015625)"/>
      <path id="DejaVuSans-6d" d="M 3328 2828 
Q 3544 3216 3844 3400 
Q 4144 3584 4550 3584 
Q 5097 3584 5394 3201 
Q 5691 2819 5691 2113 
L 5691 0 
L 5113 0 
L 5113 2094 
Q 5113 2597 4934 2840 
Q 4756 3084 4391 3084 
Q 3944 3084 3684 2787 
Q 3425 2491 3425 1978 
L 3425 0 
L 2847 0 
L 2847 2094 
Q 2847 2600 2669 2842 
Q 2491 3084 2119 3084 
Q 1678 3084 1418 2786 
Q 1159 2488 1159 1978 
L 1159 0 
L 581 0 
L 581 3500 
L 1159 3500 
L 1159 2956 
Q 1356 3278 1631 3431 
Q 1906 3584 2284 3584 
Q 2666 3584 2933 3390 
Q 3200 3197 3328 2828 
z
" transform="scale(0.015625)"/>
      <path id="DejaVuSans-61" d="M 2194 1759 
Q 1497 1759 1228 1600 
Q 959 1441 959 1056 
Q 959 750 1161 570 
Q 1363 391 1709 391 
Q 2188 391 2477 730 
Q 2766 1069 2766 1631 
L 2766 1759 
L 2194 1759 
z
M 3341 1997 
L 3341 0 
L 2766 0 
L 2766 531 
Q 2569 213 2275 61 
Q 1981 -91 1556 -91 
Q 1019 -91 701 211 
Q 384 513 384 1019 
Q 384 1609 779 1909 
Q 1175 2209 1959 2209 
L 2766 2209 
L 2766 2266 
Q 2766 2663 2505 2880 
Q 2244 3097 1772 3097 
Q 1472 3097 1187 3025 
Q 903 2953 641 2809 
L 641 3341 
Q 956 3463 1253 3523 
Q 1550 3584 1831 3584 
Q 2591 3584 2966 3190 
Q 3341 2797 3341 1997 
z
" transform="scale(0.015625)"/>
      <path id="DejaVuSans-77" d="M 269 3500 
L 844 3500 
L 1563 769 
L 2278 3500 
L 2956 3500 
L 3675 769 
L 4391 3500 
L 4966 3500 
L 4050 0 
L 3372 0 
L 2619 2869 
L 1863 0 
L 1184 0 
L 269 3500 
z
" transform="scale(0.015625)"/>
      <path id="DejaVuSans-70" d="M 1159 525 
L 1159 -1331 
L 581 -1331 
L 581 3500 
L 1159 3500 
L 1159 2969 
Q 1341 3281 1617 3432 
Q 1894 3584 2278 3584 
Q 2916 3584 3314 3078 
Q 3713 2572 3713 1747 
Q 3713 922 3314 415 
Q 2916 -91 2278 -91 
Q 1894 -91 1617 61 
Q 1341 213 1159 525 
z
M 3116 1747 
Q 3116 2381 2855 2742 
Q 2594 3103 2138 3103 
Q 1681 3103 1420 2742 
Q 1159 2381 1159 1747 
Q 1159 1113 1420 752 
Q 1681 391 2138 391 
Q 2594 391 2855 752 
Q 3116 1113 3116 1747 
z
" transform="scale(0.015625)"/>
     </defs>
     <use xlink:href="#DejaVuSans-41"/>
     <use xlink:href="#DejaVuSans-6e" transform="translate(68.408203 0)"/>
     <use xlink:href="#DejaVuSans-79" transform="translate(131.787109 0)"/>
     <use xlink:href="#DejaVuSans-20" transform="translate(190.966797 0)"/>
     <use xlink:href="#DejaVuSans-6c" transform="translate(222.753906 0)"/>
     <use xlink:href="#DejaVuSans-6f" transform="translate(250.537109 0)"/>
     <use xlink:href="#DejaVuSans-73" transform="translate(311.71875 0)"/>
     <use xlink:href="#DejaVuSans-73" transform="translate(363.818359 0)"/>
     <use xlink:href="#DejaVuSans-20" transform="translate(415.917969 0)"/>
     <use xlink:href="#DejaVuSans-6f" transform="translate(447.705078 0)"/>
     <use xlink:href="#DejaVuSans-66" transform="translate(508.886719 0)"/>
     <use xlink:href="#DejaVuSans-20" transform="translate(544.091797 0)"/>
     <use xlink:href="#DejaVuSans-54" transform="translate(575.878906 0)"/>
     <use xlink:href="#DejaVuSans-58" transform="translate(636.962891 0)"/>
     <use xlink:href="#DejaVuSans-2d" transform="translate(700.46875 0)"/>
     <use xlink:href="#DejaVuSans-31" transform="translate(736.552734 0)"/>
     <use xlink:href="#DejaVuSans-2c" transform="translate(800.175781 0)"/>
     <use xlink:href="#DejaVuSans-20" transform="translate(831.962891 0)"/>
     <use xlink:href="#DejaVuSans-69" transform="translate(863.75 0)"/>
     <use xlink:href="#DejaVuSans-74" transform="translate(891.533203 0)"/>
     <use xlink:href="#DejaVuSans-73" transform="translate(930.742188 0)"/>
     <use xlink:href="#DejaVuSans-20" transform="translate(982.841797 0)"/>
     <use xlink:href="#DejaVuSans-66" transform="translate(1014.628906 0)"/>
     <use xlink:href="#DejaVuSans-65" transform="translate(1049.833984 0)"/>
     <use xlink:href="#DejaVuSans-65" transform="translate(1111.357422 0)"/>
     <use xlink:href="#DejaVuSans-64" transform="translate(1172.880859 0)"/>
     <use xlink:href="#DejaVuSans-65" transform="translate(1236.357422 0)"/>
     <use xlink:href="#DejaVuSans-72" transform="translate(1297.880859 0)"/>
     <use xlink:href="#DejaVuSans-2c" transform="translate(1338.994141 0)"/>
     <use xlink:href="#DejaVuSans-20" transform="translate(1370.78125 0)"/>
     <use xlink:href="#DejaVuSans-74" transform="translate(1402.568359 0)"/>
     <use xlink:href="#DejaVuSans-68" transform="translate(1441.777344 0)"/>
     <use xlink:href="#DejaVuSans-65" transform="translate(1505.15625 0)"/>
     <use xlink:href="#DejaVuSans-20" transform="translate(1566.679688 0)"/>
     <use xlink:href="#DejaVuSans-69" transform="translate(1598.466797 0)"/>
     <use xlink:href="#DejaVuSans-6e" transform="translate(1626.25 0)"/>
     <use xlink:href="#DejaVuSans-63" transform="translate(1689.628906 0)"/>
     <use xlink:href="#DejaVuSans-6f" transform="translate(1744.609375 0)"/>
     <use xlink:href="#DejaVuSans-6d" transform="translate(1805.791016 0)"/>
     <use xlink:href="#DejaVuSans-65" transform="translate(1903.203125 0)"/>
     <use xlink:href="#DejaVuSans-72" transform="translate(1964.726562 0)"/>
     <use xlink:href="#DejaVuSans-20" transform="translate(2005.839844 0)"/>
     <use xlink:href="#DejaVuSans-6f" transform="translate(2037.626953 0)"/>
     <use xlink:href="#DejaVuSans-72" transform="translate(2098.808594 0)"/>
     <use xlink:href="#DejaVuSans-20" transform="translate(2139.921875 0)"/>
     <use xlink:href="#DejaVuSans-74" transform="translate(2171.708984 0)"/>
     <use xlink:href="#DejaVuSans-68" transform="translate(2210.917969 0)"/>
     <use xlink:href="#DejaVuSans-65" transform="translate(2274.296875 0)"/>
     <use xlink:href="#DejaVuSans-20" transform="translate(2335.820312 0)"/>
     <use xlink:href="#DejaVuSans-62" transform="translate(2367.607422 0)"/>
     <use xlink:href="#DejaVuSans-75" transform="translate(2431.083984 0)"/>
     <use xlink:href="#DejaVuSans-73" transform="translate(2494.462891 0)"/>
     <use xlink:href="#DejaVuSans-20" transform="translate(2546.5625 0)"/>
     <use xlink:href="#DejaVuSans-62" transform="translate(2578.349609 0)"/>
     <use xlink:href="#DejaVuSans-6c" transform="translate(2641.826172 0)"/>
     <use xlink:href="#DejaVuSans-61" transform="translate(2669.609375 0)"/>
     <use xlink:href="#DejaVuSans-63" transform="translate(2730.888672 0)"/>
     <use xlink:href="#DejaVuSans-6b" transform="translate(2785.869141 0)"/>
     <use xlink:href="#DejaVuSans-73" transform="translate(2843.779297 0)"/>
     <use xlink:href="#DejaVuSans-20" transform="translate(2895.878906 0)"/>
     <use xlink:href="#DejaVuSans-6f" transform="translate(2927.666016 0)"/>
     <use xlink:href="#DejaVuSans-75" transform="translate(2988.847656 0)"/>
     <use xlink:href="#DejaVuSans-74" transform="translate(3052.226562 0)"/>
     <use xlink:href="#DejaVuSans-20" transform="translate(3091.435547 0)"/>
     <use xlink:href="#DejaVuSans-74" transform="translate(3123.222656 0)"/>
     <use xlink:href="#DejaVuSans-68" transform="translate(3162.431641 0)"/>
     <use xlink:href="#DejaVuSans-65" transform="translate(3225.810547 0)"/>
     <use xlink:href="#DejaVuSans-20" transform="translate(3287.333984 0)"/>
     <use xlink:href="#DejaVuSans-77" transform="translate(3319.121094 0)"/>
     <use xlink:href="#DejaVuSans-68" transform="translate(3400.908203 0)"/>
     <use xlink:href="#DejaVuSans-6f" transform="translate(3464.287109 0)"/>
     <use xlink:href="#DejaVuSans-6c" transform="translate(3525.46875 0)"/>
     <use xlink:href="#DejaVuSans-65" transform="translate(3553.251953 0)"/>
     <use xlink:href="#DejaVuSans-20" transform="translate(3614.775391 0)"/>
     <use xlink:href="#DejaVuSans-70" transform="translate(3646.5625 0)"/>
     <use xlink:href="#DejaVuSans-6c" transform="translate(3710.039062 0)"/>
     <use xlink:href="#DejaVuSans-61" transform="translate(3737.822266 0)"/>
     <use xlink:href="#DejaVuSans-6e" transform="translate(3799.101562 0)"/>
     <use xlink:href="#DejaVuSans-74" transform="translate(3862.480469 0)"/>
     <use xlink:href="#DejaVuSans-2e" transform="translate(3901.689453 0)"/>
    </g>
   </g>
   <g id="text_10">
    <!-- SPOF-A  -  SINGLE TRANSFORMER, SINGLE BUS -->
    <g style="fill: #111111" transform="translate(7.56 341.879375) scale(0.1 -0.1)">
     <defs>
      <path id="DejaVuSans-4e" d="M 628 4666 
L 1478 4666 
L 3547 763 
L 3547 4666 
L 4159 4666 
L 4159 0 
L 3309 0 
L 1241 3903 
L 1241 0 
L 628 0 
L 628 4666 
z
" transform="scale(0.015625)"/>
      <path id="DejaVuSans-47" d="M 3809 666 
L 3809 1919 
L 2778 1919 
L 2778 2438 
L 4434 2438 
L 4434 434 
Q 4069 175 3628 42 
Q 3188 -91 2688 -91 
Q 1594 -91 976 548 
Q 359 1188 359 2328 
Q 359 3472 976 4111 
Q 1594 4750 2688 4750 
Q 3144 4750 3555 4637 
Q 3966 4525 4313 4306 
L 4313 3634 
Q 3963 3931 3569 4081 
Q 3175 4231 2741 4231 
Q 1884 4231 1454 3753 
Q 1025 3275 1025 2328 
Q 1025 1384 1454 906 
Q 1884 428 2741 428 
Q 3075 428 3337 486 
Q 3600 544 3809 666 
z
" transform="scale(0.015625)"/>
      <path id="DejaVuSans-45" d="M 628 4666 
L 3578 4666 
L 3578 4134 
L 1259 4134 
L 1259 2753 
L 3481 2753 
L 3481 2222 
L 1259 2222 
L 1259 531 
L 3634 531 
L 3634 0 
L 628 0 
L 628 4666 
z
" transform="scale(0.015625)"/>
      <path id="DejaVuSans-52" d="M 2841 2188 
Q 3044 2119 3236 1894 
Q 3428 1669 3622 1275 
L 4263 0 
L 3584 0 
L 2988 1197 
Q 2756 1666 2539 1819 
Q 2322 1972 1947 1972 
L 1259 1972 
L 1259 0 
L 628 0 
L 628 4666 
L 2053 4666 
Q 2853 4666 3247 4331 
Q 3641 3997 3641 3322 
Q 3641 2881 3436 2590 
Q 3231 2300 2841 2188 
z
M 1259 4147 
L 1259 2491 
L 2053 2491 
Q 2509 2491 2742 2702 
Q 2975 2913 2975 3322 
Q 2975 3731 2742 3939 
Q 2509 4147 2053 4147 
L 1259 4147 
z
" transform="scale(0.015625)"/>
     </defs>
     <use xlink:href="#DejaVuSans-53"/>
     <use xlink:href="#DejaVuSans-50" transform="translate(63.476562 0)"/>
     <use xlink:href="#DejaVuSans-4f" transform="translate(123.779297 0)"/>
     <use xlink:href="#DejaVuSans-46" transform="translate(202.490234 0)"/>
     <use xlink:href="#DejaVuSans-2d" transform="translate(260.009766 0)"/>
     <use xlink:href="#DejaVuSans-41" transform="translate(293.84375 0)"/>
     <use xlink:href="#DejaVuSans-20" transform="translate(362.251953 0)"/>
     <use xlink:href="#DejaVuSans-20" transform="translate(394.039062 0)"/>
     <use xlink:href="#DejaVuSans-2d" transform="translate(425.826172 0)"/>
     <use xlink:href="#DejaVuSans-20" transform="translate(461.910156 0)"/>
     <use xlink:href="#DejaVuSans-20" transform="translate(493.697266 0)"/>
     <use xlink:href="#DejaVuSans-53" transform="translate(525.484375 0)"/>
     <use xlink:href="#DejaVuSans-49" transform="translate(588.960938 0)"/>
     <use xlink:href="#DejaVuSans-4e" transform="translate(618.453125 0)"/>
     <use xlink:href="#DejaVuSans-47" transform="translate(693.257812 0)"/>
     <use xlink:href="#DejaVuSans-4c" transform="translate(770.748047 0)"/>
     <use xlink:href="#DejaVuSans-45" transform="translate(826.460938 0)"/>
     <use xlink:href="#DejaVuSans-20" transform="translate(889.644531 0)"/>
     <use xlink:href="#DejaVuSans-54" transform="translate(921.431641 0)"/>
     <use xlink:href="#DejaVuSans-52" transform="translate(982.515625 0)"/>
     <use xlink:href="#DejaVuSans-41" transform="translate(1047.998047 0)"/>
     <use xlink:href="#DejaVuSans-4e" transform="translate(1116.40625 0)"/>
     <use xlink:href="#DejaVuSans-53" transform="translate(1191.210938 0)"/>
     <use xlink:href="#DejaVuSans-46" transform="translate(1254.6875 0)"/>
     <use xlink:href="#DejaVuSans-4f" transform="translate(1312.207031 0)"/>
     <use xlink:href="#DejaVuSans-52" transform="translate(1390.917969 0)"/>
     <use xlink:href="#DejaVuSans-4d" transform="translate(1460.400391 0)"/>
     <use xlink:href="#DejaVuSans-45" transform="translate(1546.679688 0)"/>
     <use xlink:href="#DejaVuSans-52" transform="translate(1609.863281 0)"/>
     <use xlink:href="#DejaVuSans-2c" transform="translate(1679.345703 0)"/>
     <use xlink:href="#DejaVuSans-20" transform="translate(1711.132812 0)"/>
     <use xlink:href="#DejaVuSans-53" transform="translate(1742.919922 0)"/>
     <use xlink:href="#DejaVuSans-49" transform="translate(1806.396484 0)"/>
     <use xlink:href="#DejaVuSans-4e" transform="translate(1835.888672 0)"/>
     <use xlink:href="#DejaVuSans-47" transform="translate(1910.693359 0)"/>
     <use xlink:href="#DejaVuSans-4c" transform="translate(1988.183594 0)"/>
     <use xlink:href="#DejaVuSans-45" transform="translate(2043.896484 0)"/>
     <use xlink:href="#DejaVuSans-20" transform="translate(2107.080078 0)"/>
     <use xlink:href="#DejaVuSans-42" transform="translate(2138.867188 0)"/>
     <use xlink:href="#DejaVuSans-55" transform="translate(2207.470703 0)"/>
     <use xlink:href="#DejaVuSans-53" transform="translate(2280.664062 0)"/>
    </g>
   </g>
   <g id="text_11">
    <!-- 13.8 kV / 400-230 V / 60 Hz / 50 degC amb -->
    <g style="fill: #333333" transform="translate(7.56 359.243437) scale(0.09 -0.09)">
     <defs>
      <path id="DejaVuSans-43" d="M 4122 4306 
L 4122 3641 
Q 3803 3938 3442 4084 
Q 3081 4231 2675 4231 
Q 1875 4231 1450 3742 
Q 1025 3253 1025 2328 
Q 1025 1406 1450 917 
Q 1875 428 2675 428 
Q 3081 428 3442 575 
Q 3803 722 4122 1019 
L 4122 359 
Q 3791 134 3420 21 
Q 3050 -91 2638 -91 
Q 1578 -91 968 557 
Q 359 1206 359 2328 
Q 359 3453 968 4101 
Q 1578 4750 2638 4750 
Q 3056 4750 3426 4639 
Q 3797 4528 4122 4306 
z
" transform="scale(0.015625)"/>
     </defs>
     <use xlink:href="#DejaVuSans-31"/>
     <use xlink:href="#DejaVuSans-33" transform="translate(63.623047 0)"/>
     <use xlink:href="#DejaVuSans-2e" transform="translate(127.246094 0)"/>
     <use xlink:href="#DejaVuSans-38" transform="translate(159.033203 0)"/>
     <use xlink:href="#DejaVuSans-20" transform="translate(222.65625 0)"/>
     <use xlink:href="#DejaVuSans-6b" transform="translate(254.443359 0)"/>
     <use xlink:href="#DejaVuSans-56" transform="translate(312.353516 0)"/>
     <use xlink:href="#DejaVuSans-20" transform="translate(380.761719 0)"/>
     <use xlink:href="#DejaVuSans-2f" transform="translate(412.548828 0)"/>
     <use xlink:href="#DejaVuSans-20" transform="translate(446.240234 0)"/>
     <use xlink:href="#DejaVuSans-34" transform="translate(478.027344 0)"/>
     <use xlink:href="#DejaVuSans-30" transform="translate(541.650391 0)"/>
     <use xlink:href="#DejaVuSans-30" transform="translate(605.273438 0)"/>
     <use xlink:href="#DejaVuSans-2d" transform="translate(668.896484 0)"/>
     <use xlink:href="#DejaVuSans-32" transform="translate(704.980469 0)"/>
     <use xlink:href="#DejaVuSans-33" transform="translate(768.603516 0)"/>
     <use xlink:href="#DejaVuSans-30" transform="translate(832.226562 0)"/>
     <use xlink:href="#DejaVuSans-20" transform="translate(895.849609 0)"/>
     <use xlink:href="#DejaVuSans-56" transform="translate(927.636719 0)"/>
     <use xlink:href="#DejaVuSans-20" transform="translate(996.044922 0)"/>
     <use xlink:href="#DejaVuSans-2f" transform="translate(1027.832031 0)"/>
     <use xlink:href="#DejaVuSans-20" transform="translate(1061.523438 0)"/>
     <use xlink:href="#DejaVuSans-36" transform="translate(1093.310547 0)"/>
     <use xlink:href="#DejaVuSans-30" transform="translate(1156.933594 0)"/>
     <use xlink:href="#DejaVuSans-20" transform="translate(1220.556641 0)"/>
     <use xlink:href="#DejaVuSans-48" transform="translate(1252.34375 0)"/>
     <use xlink:href="#DejaVuSans-7a" transform="translate(1327.539062 0)"/>
     <use xlink:href="#DejaVuSans-20" transform="translate(1380.029297 0)"/>
     <use xlink:href="#DejaVuSans-2f" transform="translate(1411.816406 0)"/>
     <use xlink:href="#DejaVuSans-20" transform="translate(1445.507812 0)"/>
     <use xlink:href="#DejaVuSans-35" transform="translate(1477.294922 0)"/>
     <use xlink:href="#DejaVuSans-30" transform="translate(1540.917969 0)"/>
     <use xlink:href="#DejaVuSans-20" transform="translate(1604.541016 0)"/>
     <use xlink:href="#DejaVuSans-64" transform="translate(1636.328125 0)"/>
     <use xlink:href="#DejaVuSans-65" transform="translate(1699.804688 0)"/>
     <use xlink:href="#DejaVuSans-67" transform="translate(1761.328125 0)"/>
     <use xlink:href="#DejaVuSans-43" transform="translate(1824.804688 0)"/>
     <use xlink:href="#DejaVuSans-20" transform="translate(1894.628906 0)"/>
     <use xlink:href="#DejaVuSans-61" transform="translate(1926.416016 0)"/>
     <use xlink:href="#DejaVuSans-6d" transform="translate(1987.695312 0)"/>
     <use xlink:href="#DejaVuSans-62" transform="translate(2085.107422 0)"/>
    </g>
   </g>
   <g id="text_12">
    <!-- DWG SLD-2MW-A -->
    <g style="fill: #111111" transform="translate(342.36 340.883438) scale(0.09 -0.09)">
     <defs>
      <path id="DejaVuSans-44" d="M 1259 4147 
L 1259 519 
L 2022 519 
Q 2988 519 3436 956 
Q 3884 1394 3884 2338 
Q 3884 3275 3436 3711 
Q 2988 4147 2022 4147 
L 1259 4147 
z
M 628 4666 
L 1925 4666 
Q 3281 4666 3915 4102 
Q 4550 3538 4550 2338 
Q 4550 1131 3912 565 
Q 3275 0 1925 0 
L 628 0 
L 628 4666 
z
" transform="scale(0.015625)"/>
      <path id="DejaVuSans-57" d="M 213 4666 
L 850 4666 
L 1831 722 
L 2809 4666 
L 3519 4666 
L 4500 722 
L 5478 4666 
L 6119 4666 
L 4947 0 
L 4153 0 
L 3169 4050 
L 2175 0 
L 1381 0 
L 213 4666 
z
" transform="scale(0.015625)"/>
     </defs>
     <use xlink:href="#DejaVuSans-44"/>
     <use xlink:href="#DejaVuSans-57" transform="translate(77.001953 0)"/>
     <use xlink:href="#DejaVuSans-47" transform="translate(175.878906 0)"/>
     <use xlink:href="#DejaVuSans-20" transform="translate(253.369141 0)"/>
     <use xlink:href="#DejaVuSans-53" transform="translate(285.15625 0)"/>
     <use xlink:href="#DejaVuSans-4c" transform="translate(348.632812 0)"/>
     <use xlink:href="#DejaVuSans-44" transform="translate(404.345703 0)"/>
     <use xlink:href="#DejaVuSans-2d" transform="translate(481.347656 0)"/>
     <use xlink:href="#DejaVuSans-32" transform="translate(517.431641 0)"/>
     <use xlink:href="#DejaVuSans-4d" transform="translate(581.054688 0)"/>
     <use xlink:href="#DejaVuSans-57" transform="translate(667.333984 0)"/>
     <use xlink:href="#DejaVuSans-2d" transform="translate(762.210938 0)"/>
     <use xlink:href="#DejaVuSans-41" transform="translate(796.044922 0)"/>
    </g>
   </g>
   <g id="text_13">
    <!-- Rev 3b -->
    <g style="fill: #111111" transform="translate(342.36 353.123437) scale(0.09 -0.09)">
     <defs>
      <path id="DejaVuSans-76" d="M 191 3500 
L 800 3500 
L 1894 563 
L 2988 3500 
L 3597 3500 
L 2284 0 
L 1503 0 
L 191 3500 
z
" transform="scale(0.015625)"/>
     </defs>
     <use xlink:href="#DejaVuSans-52"/>
     <use xlink:href="#DejaVuSans-65" transform="translate(64.982422 0)"/>
     <use xlink:href="#DejaVuSans-76" transform="translate(126.505859 0)"/>
     <use xlink:href="#DejaVuSans-20" transform="translate(185.685547 0)"/>
     <use xlink:href="#DejaVuSans-33" transform="translate(217.472656 0)"/>
     <use xlink:href="#DejaVuSans-62" transform="translate(281.095703 0)"/>
    </g>
   </g>
   <g id="text_14">
    <!-- IEC 60617 - indicative -->
    <g style="fill: #555555" transform="translate(342.36 358.2475) scale(0.08 -0.08)">
     <defs>
      <path id="DejaVuSans-37" d="M 525 4666 
L 3525 4666 
L 3525 4397 
L 1831 0 
L 1172 0 
L 2766 4134 
L 525 4134 
L 525 4666 
z
" transform="scale(0.015625)"/>
     </defs>
     <use xlink:href="#DejaVuSans-49"/>
     <use xlink:href="#DejaVuSans-45" transform="translate(29.492188 0)"/>
     <use xlink:href="#DejaVuSans-43" transform="translate(92.675781 0)"/>
     <use xlink:href="#DejaVuSans-20" transform="translate(162.5 0)"/>
     <use xlink:href="#DejaVuSans-36" transform="translate(194.287109 0)"/>
     <use xlink:href="#DejaVuSans-30" transform="translate(257.910156 0)"/>
     <use xlink:href="#DejaVuSans-36" transform="translate(321.533203 0)"/>
     <use xlink:href="#DejaVuSans-31" transform="translate(385.15625 0)"/>
     <use xlink:href="#DejaVuSans-37" transform="translate(448.779297 0)"/>
     <use xlink:href="#DejaVuSans-20" transform="translate(512.402344 0)"/>
     <use xlink:href="#DejaVuSans-2d" transform="translate(544.189453 0)"/>
     <use xlink:href="#DejaVuSans-20" transform="translate(580.273438 0)"/>
     <use xlink:href="#DejaVuSans-69" transform="translate(612.060547 0)"/>
     <use xlink:href="#DejaVuSans-6e" transform="translate(639.84375 0)"/>
     <use xlink:href="#DejaVuSans-64" transform="translate(703.222656 0)"/>
     <use xlink:href="#DejaVuSans-69" transform="translate(766.699219 0)"/>
     <use xlink:href="#DejaVuSans-63" transform="translate(794.482422 0)"/>
     <use xlink:href="#DejaVuSans-61" transform="translate(849.462891 0)"/>
     <use xlink:href="#DejaVuSans-74" transform="translate(910.742188 0)"/>
     <use xlink:href="#DejaVuSans-69" transform="translate(949.951172 0)"/>
     <use xlink:href="#DejaVuSans-76" transform="translate(977.734375 0)"/>
     <use xlink:href="#DejaVuSans-65" transform="translate(1036.914062 0)"/>
    </g>
   </g>
   <g id="patch_13">
    <path d="M 242.28 86.4 
C 242.948312 86.4 243.589341 86.134477 244.061909 85.661909 
C 244.534477 85.189341 244.8 84.548312 244.8 83.88 
C 244.8 83.211688 244.534477 82.570659 244.061909 82.098091 
C 243.589341 81.625523 242.948312 81.36 242.28 81.36 
C 241.611688 81.36 240.970659 81.625523 240.498091 82.098091 
C 240.025523 82.570659 239.76 83.211688 239.76 83.88 
C 239.76 84.548312 240.025523 85.189341 240.498091 85.661909 
C 240.970659 86.134477 241.611688 86.4 242.28 86.4 
z
" clip-path="url(#pbf5eb432cd)" style="fill: #111111; stroke: #111111; stroke-width: 1.6; stroke-linejoin: miter"/>
   </g>
   <g id="patch_14">
    <path d="M 242.28 86.4 
C 242.948312 86.4 243.589341 86.134477 244.061909 85.661909 
C 244.534477 85.189341 244.8 84.548312 244.8 83.88 
C 244.8 83.211688 244.534477 82.570659 244.061909 82.098091 
C 243.589341 81.625523 242.948312 81.36 242.28 81.36 
C 241.611688 81.36 240.970659 81.625523 240.498091 82.098091 
C 240.025523 82.570659 239.76 83.211688 239.76 83.88 
C 239.76 84.548312 240.025523 85.189341 240.498091 85.661909 
C 240.970659 86.134477 241.611688 86.4 242.28 86.4 
z
" clip-path="url(#pbf5eb432cd)" style="fill: #111111; stroke: #111111; stroke-width: 1.6; stroke-linejoin: miter"/>
   </g>
   <g id="patch_15">
    <path d="M 242.28 219.6 
C 242.948312 219.6 243.589341 219.334477 244.061909 218.861909 
C 244.534477 218.389341 244.8 217.748312 244.8 217.08 
C 244.8 216.411688 244.534477 215.770659 244.061909 215.298091 
C 243.589341 214.825523 242.948312 214.56 242.28 214.56 
C 241.611688 214.56 240.970659 214.825523 240.498091 215.298091 
C 240.025523 215.770659 239.76 216.411688 239.76 217.08 
C 239.76 217.748312 240.025523 218.389341 240.498091 218.861909 
C 240.970659 219.334477 241.611688 219.6 242.28 219.6 
z
" clip-path="url(#pbf5eb432cd)" style="fill: #111111; stroke: #111111; stroke-width: 1.6; stroke-linejoin: miter"/>
   </g>
   <g id="patch_16">
    <path d="M 184.68 219.6 
C 185.348312 219.6 185.989341 219.334477 186.461909 218.861909 
C 186.934477 218.389341 187.2 217.748312 187.2 217.08 
C 187.2 216.411688 186.934477 215.770659 186.461909 215.298091 
C 185.989341 214.825523 185.348312 214.56 184.68 214.56 
C 184.011688 214.56 183.370659 214.825523 182.898091 215.298091 
C 182.425523 215.770659 182.16 216.411688 182.16 217.08 
C 182.16 217.748312 182.425523 218.389341 182.898091 218.861909 
C 183.370659 219.334477 184.011688 219.6 184.68 219.6 
z
" clip-path="url(#pbf5eb432cd)" style="fill: #111111; stroke: #111111; stroke-width: 1.6; stroke-linejoin: miter"/>
   </g>
   <g id="text_15">
    <!-- MCC -->
    <g style="fill: #111111" transform="translate(171.12375 268.63125) scale(0.12 -0.12)">
     <use xlink:href="#DejaVuSans-4d"/>
     <use xlink:href="#DejaVuSans-43" transform="translate(86.279297 0)"/>
     <use xlink:href="#DejaVuSans-43" transform="translate(156.103516 0)"/>
    </g>
   </g>
   <g id="text_16">
    <!-- motors -->
    <g style="fill: #444444" transform="translate(168.831562 281.483437) scale(0.09 -0.09)">
     <use xlink:href="#DejaVuSans-6d"/>
     <use xlink:href="#DejaVuSans-6f" transform="translate(97.412109 0)"/>
     <use xlink:href="#DejaVuSans-74" transform="translate(158.59375 0)"/>
     <use xlink:href="#DejaVuSans-6f" transform="translate(197.802734 0)"/>
     <use xlink:href="#DejaVuSans-72" transform="translate(258.984375 0)"/>
     <use xlink:href="#DejaVuSans-73" transform="translate(300.097656 0)"/>
    </g>
   </g>
   <g id="patch_17">
    <path d="M 299.88 219.6 
C 300.548312 219.6 301.189341 219.334477 301.661909 218.861909 
C 302.134477 218.389341 302.4 217.748312 302.4 217.08 
C 302.4 216.411688 302.134477 215.770659 301.661909 215.298091 
C 301.189341 214.825523 300.548312 214.56 299.88 214.56 
C 299.211688 214.56 298.570659 214.825523 298.098091 215.298091 
C 297.625523 215.770659 297.36 216.411688 297.36 217.08 
C 297.36 217.748312 297.625523 218.389341 298.098091 218.861909 
C 298.570659 219.334477 299.211688 219.6 299.88 219.6 
z
" clip-path="url(#pbf5eb432cd)" style="fill: #111111; stroke: #111111; stroke-width: 1.6; stroke-linejoin: miter"/>
   </g>
   <g id="text_17">
    <!-- DB -->
    <g style="fill: #111111" transform="translate(291.143437 268.63125) scale(0.12 -0.12)">
     <use xlink:href="#DejaVuSans-44"/>
     <use xlink:href="#DejaVuSans-42" transform="translate(77.001953 0)"/>
    </g>
   </g>
   <g id="text_18">
    <!-- light/pwr -->
    <g style="fill: #444444" transform="translate(280.004062 281.483437) scale(0.09 -0.09)">
     <use xlink:href="#DejaVuSans-6c"/>
     <use xlink:href="#DejaVuSans-69" transform="translate(27.783203 0)"/>
     <use xlink:href="#DejaVuSans-67" transform="translate(55.566406 0)"/>
     <use xlink:href="#DejaVuSans-68" transform="translate(119.042969 0)"/>
     <use xlink:href="#DejaVuSans-74" transform="translate(182.421875 0)"/>
     <use xlink:href="#DejaVuSans-2f" transform="translate(221.630859 0)"/>
     <use xlink:href="#DejaVuSans-70" transform="translate(255.322266 0)"/>
     <use xlink:href="#DejaVuSans-77" transform="translate(318.798828 0)"/>
     <use xlink:href="#DejaVuSans-72" transform="translate(400.585938 0)"/>
    </g>
   </g>
  </g>
 </g>
 <defs>
  <clipPath id="pbf5eb432cd">
   <rect x="0" y="0" width="484.56" height="372.96"/>
  </clipPath>
 </defs>
</svg>
