<?xml version="1.0" encoding="utf-8" standalone="no"?>
<!DOCTYPE svg PUBLIC "-//W3C//DTD SVG 1.1//EN"
  "http://www.w3.org/Graphics/SVG/1.1/DTD/svg11.dtd">
<svg xmlns:xlink="http://www.w3.org/1999/xlink" width="368.888906pt" height="364.5pt" viewBox="0 0 368.888906 364.5" xmlns="http://www.w3.org/2000/svg" version="1.1">
 <metadata>
  <rdf:RDF xmlns:dc="http://purl.org/dc/elements/1.1/" xmlns:cc="http://creativecommons.org/ns#" xmlns:rdf="http://www.w3.org/1999/02/22-rdf-syntax-ns#">
   <cc:Work>
    <dc:type rdf:resource="http://purl.org/dc/dcmitype/StillImage"/>
    <dc:date>2026-06-08T10:29:50.860394</dc:date>
    <dc:format>image/svg+xml</dc:format>
    <dc:creator>
     <cc:Agent>
      <dc:title>Matplotlib v3.10.9, https://matplotlib.org/</dc:title>
     </cc:Agent>
    </dc:creator>
   </cc:Work>
  </rdf:RDF>
 </metadata>
 <defs>
  <style type="text/css">*{stroke-linejoin: round; stroke-linecap: butt}</style>
 </defs>
 <g id="figure_1">
  <g id="patch_1">
   <path d="M 0 364.5 
L 368.888906 364.5 
L 368.888906 0 
L 0 0 
L 0 364.5 
z
" style="fill: none"/>
  </g>
  <g id="axes_1">
   <g id="patch_2">
    <path d="M 180.844453 33.48 
C 184.663378 33.48 188.326403 31.962725 191.026791 29.262338 
C 193.727178 26.56195 195.244453 22.898925 195.244453 19.08 
C 195.244453 15.261075 193.727178 11.59805 191.026791 8.897662 
C 188.326403 6.197275 184.663378 4.68 180.844453 4.68 
C 177.025528 4.68 173.362503 6.197275 170.662115 8.897662 
C 167.961728 11.59805 166.444453 15.261075 166.444453 19.08 
C 166.444453 22.898925 167.961728 26.56195 170.662115 29.262338 
C 173.362503 31.962725 177.025528 33.48 180.844453 33.48 
L 180.844453 33.48 
z
" clip-path="url(#p8aac08b0c9)" style="fill: none; stroke: #111111; stroke-width: 1.6; stroke-linejoin: miter"/>
   </g>
   <g id="patch_3">
    <path d="M 72.844453 136.332 
C 76.472432 136.332 79.952306 134.890589 82.517674 132.325221 
C 85.083042 129.759853 86.524453 126.279978 86.524453 122.652 
C 86.524453 119.024022 85.083042 115.544147 82.517674 112.978779 
C 79.952306 110.413411 76.472432 108.972 72.844453 108.972 
C 69.216475 108.972 65.7366 110.413411 63.171232 112.978779 
C 60.605864 115.544147 59.164453 119.024022 59.164453 122.652 
C 59.164453 126.279978 60.605864 129.759853 63.171232 132.325221 
C 65.7366 134.890589 69.216475 136.332 72.844453 136.332 
L 72.844453 136.332 
z
" clip-path="url(#p8aac08b0c9)" style="fill: none; stroke: #111111; stroke-width: 1.6; stroke-linejoin: miter"/>
   </g>
   <g id="patch_4">
    <path d="M 72.844453 159.588 
C 76.472432 159.588 79.952306 158.146589 82.517674 155.581221 
C 85.083042 153.015853 86.524453 149.535978 86.524453 145.908 
C 86.524453 142.280022 85.083042 138.800147 82.517674 136.234779 
C 79.952306 133.669411 76.472432 132.228 72.844453 132.228 
C 69.216475 132.228 65.7366 133.669411 63.171232 136.234779 
C 60.605864 138.800147 59.164453 142.280022 59.164453 145.908 
C 59.164453 149.535978 60.605864 153.015853 63.171232 155.581221 
C 65.7366 158.146589 69.216475 159.588 72.844453 159.588 
L 72.844453 159.588 
z
" clip-path="url(#p8aac08b0c9)" style="fill: none; stroke: #111111; stroke-width: 1.6; stroke-linejoin: miter"/>
   </g>
   <g id="patch_5">
    <path d="M 288.844453 136.332 
C 292.472432 136.332 295.952306 134.890589 298.517674 132.325221 
C 301.083042 129.759853 302.524453 126.279978 302.524453 122.652 
C 302.524453 119.024022 301.083042 115.544147 298.517674 112.978779 
C 295.952306 110.413411 292.472432 108.972 288.844453 108.972 
C 285.216475 108.972 281.7366 110.413411 279.171232 112.978779 
C 276.605864 115.544147 275.164453 119.024022 275.164453 122.652 
C 275.164453 126.279978 276.605864 129.759853 279.171232 132.325221 
C 281.7366 134.890589 285.216475 136.332 288.844453 136.332 
L 288.844453 136.332 
z
" clip-path="url(#p8aac08b0c9)" style="fill: none; stroke: #111111; stroke-width: 1.6; stroke-linejoin: miter"/>
   </g>
   <g id="patch_6">
    <path d="M 288.844453 159.588 
C 292.472432 159.588 295.952306 158.146589 298.517674 155.581221 
C 301.083042 153.015853 302.524453 149.535978 302.524453 145.908 
C 302.524453 142.280022 301.083042 138.800147 298.517674 136.234779 
C 295.952306 133.669411 292.472432 132.228 288.844453 132.228 
C 285.216475 132.228 281.7366 133.669411 279.171232 136.234779 
C 276.605864 138.800147 275.164453 142.280022 275.164453 145.908 
C 275.164453 149.535978 276.605864 153.015853 279.171232 155.581221 
C 281.7366 158.146589 285.216475 159.588 288.844453 159.588 
L 288.844453 159.588 
z
" clip-path="url(#p8aac08b0c9)" style="fill: none; stroke: #111111; stroke-width: 1.6; stroke-linejoin: miter"/>
   </g>
   <g id="patch_7">
    <path d="M 180.844453 80.28 
C 187.527571 80.28 193.937866 77.624769 198.663544 72.899091 
C 203.389222 68.173413 206.044453 61.763118 206.044453 55.08 
C 206.044453 48.396882 203.389222 41.986587 198.663544 37.260909 
C 193.937866 32.535231 187.527571 29.88 180.844453 29.88 
C 174.161335 29.88 167.75104 32.535231 163.025362 37.260909 
C 158.299684 41.986587 155.644453 48.396882 155.644453 55.08 
C 155.644453 61.763118 158.299684 68.173413 163.025362 72.899091 
C 167.75104 77.624769 174.161335 80.28 180.844453 80.28 
L 180.844453 80.28 
z
" clip-path="url(#p8aac08b0c9)" style="fill: none; stroke-dasharray: 6.66,2.88; stroke-dashoffset: 0; stroke: #cc0000; stroke-width: 1.8; stroke-linejoin: miter"/>
   </g>
   <g id="line2d_1">
    <path d="M 172.204453 19.08 
L 172.64753 19.819175 
L 173.090607 20.539206 
L 173.533684 21.221444 
L 173.976761 21.84822 
L 174.419838 22.403301 
L 174.862915 22.87231 
L 175.305992 23.2431 
L 175.749069 23.506067 
L 176.192145 23.654402 
L 176.635222 23.684263 
L 177.078299 23.594875 
L 177.521376 23.388555 
L 177.964453 23.070645 
L 178.40753 22.64938 
L 178.850607 22.135669 
L 179.293684 21.542819 
L 179.736761 20.886182 
L 180.179838 20.182767 
L 180.622915 19.45079 
L 181.065992 18.70921 
L 181.509069 17.977233 
L 181.952145 17.273818 
L 182.395222 16.617181 
L 182.838299 16.024331 
L 183.281376 15.51062 
L 183.724453 15.089355 
L 184.16753 14.771445 
L 184.610607 14.565125 
L 185.053684 14.475737 
L 185.496761 14.505598 
L 185.939838 14.653933 
L 186.382915 14.9169 
L 186.825992 15.28769 
L 187.269069 15.756699 
L 187.712145 16.31178 
L 188.155222 16.938556 
L 188.598299 17.620794 
L 189.041376 18.340825 
L 189.484453 19.08 
" clip-path="url(#p8aac08b0c9)" style="fill: none; stroke: #111111; stroke-width: 1.6; stroke-linecap: round"/>
   </g>
   <g id="line2d_2">
    <path d="M 180.844453 33.48 
L 180.844453 51.48 
" clip-path="url(#p8aac08b0c9)" style="fill: none; stroke: #111111; stroke-width: 1.6; stroke-linecap: round"/>
   </g>
   <g id="line2d_3">
    <path d="M 180.844453 47.88 
L 180.844453 40.68 
L 180.844453 33.48 
" clip-path="url(#p8aac08b0c9)" style="fill: none; stroke: #111111; stroke-width: 1.6; stroke-linecap: round"/>
   </g>
   <g id="line2d_4">
    <path d="M 180.844453 29.88 
L 180.844453 47.52 
" clip-path="url(#p8aac08b0c9)" style="fill: none; stroke: #111111; stroke-width: 1.6; stroke-linecap: round"/>
   </g>
   <g id="line2d_5">
    <path d="M 180.844453 62.64 
L 180.844453 80.28 
" clip-path="url(#p8aac08b0c9)" style="fill: none; stroke: #111111; stroke-width: 1.6; stroke-linecap: round"/>
   </g>
   <g id="line2d_6">
    <path d="M 180.844453 76.68 
L 180.844453 80.28 
L 180.844453 83.88 
" clip-path="url(#p8aac08b0c9)" style="fill: none; stroke: #111111; stroke-width: 1.6; stroke-linecap: round"/>
   </g>
   <g id="line2d_7">
    <path d="M 65.644453 83.88 
L 180.844453 83.88 
L 296.044453 83.88 
" clip-path="url(#p8aac08b0c9)" style="fill: none; stroke: #b22222; stroke-width: 6; stroke-linecap: round"/>
   </g>
   <g id="line2d_8">
    <path d="M 72.844453 83.88 
L 72.844453 91.08 
L 72.844453 98.28 
" clip-path="url(#p8aac08b0c9)" style="fill: none; stroke: #b22222; stroke-width: 1.6; stroke-linecap: round"/>
   </g>
   <g id="line2d_9">
    <path d="M 72.844453 90.972 
L 72.844453 108.972 
" clip-path="url(#p8aac08b0c9)" style="fill: none; stroke: #111111; stroke-width: 1.6; stroke-linecap: round"/>
   </g>
   <g id="line2d_10">
    <path d="M 72.844453 159.588 
L 72.844453 177.588 
" clip-path="url(#p8aac08b0c9)" style="fill: none; stroke: #111111; stroke-width: 1.6; stroke-linecap: round"/>
   </g>
   <g id="line2d_11">
    <path d="M 72.844453 170.28 
L 72.844453 166.68 
L 72.844453 163.08 
" clip-path="url(#p8aac08b0c9)" style="fill: none; stroke: #111111; stroke-width: 1.6; stroke-linecap: round"/>
   </g>
   <g id="line2d_12">
    <path d="M 72.844453 159.48 
L 72.844453 177.12 
" clip-path="url(#p8aac08b0c9)" style="fill: none; stroke: #111111; stroke-width: 1.6; stroke-linecap: round"/>
   </g>
   <g id="line2d_13">
    <path d="M 72.844453 192.24 
L 72.844453 209.88 
" clip-path="url(#p8aac08b0c9)" style="fill: none; stroke: #111111; stroke-width: 1.6; stroke-linecap: round"/>
   </g>
   <g id="line2d_14">
    <path d="M 72.844453 206.28 
L 72.844453 211.68 
L 72.844453 217.08 
" clip-path="url(#p8aac08b0c9)" style="fill: none; stroke: #111111; stroke-width: 1.6; stroke-linecap: round"/>
   </g>
   <g id="line2d_15">
    <path d="M 288.844453 83.88 
L 288.844453 91.08 
L 288.844453 98.28 
" clip-path="url(#p8aac08b0c9)" style="fill: none; stroke: #b22222; stroke-width: 1.6; stroke-linecap: round"/>
   </g>
   <g id="line2d_16">
    <path d="M 288.844453 90.972 
L 288.844453 108.972 
" clip-path="url(#p8aac08b0c9)" style="fill: none; stroke: #111111; stroke-width: 1.6; stroke-linecap: round"/>
   </g>
   <g id="line2d_17">
    <path d="M 288.844453 159.588 
L 288.844453 177.588 
" clip-path="url(#p8aac08b0c9)" style="fill: none; stroke: #111111; stroke-width: 1.6; stroke-linecap: round"/>
   </g>
   <g id="line2d_18">
    <path d="M 288.844453 170.28 
L 288.844453 166.68 
L 288.844453 163.08 
" clip-path="url(#p8aac08b0c9)" style="fill: none; stroke: #111111; stroke-width: 1.6; stroke-linecap: round"/>
   </g>
   <g id="line2d_19">
    <path d="M 288.844453 159.48 
L 288.844453 177.12 
" clip-path="url(#p8aac08b0c9)" style="fill: none; stroke: #111111; stroke-width: 1.6; stroke-linecap: round"/>
   </g>
   <g id="line2d_20">
    <path d="M 288.844453 192.24 
L 288.844453 209.88 
" clip-path="url(#p8aac08b0c9)" style="fill: none; stroke: #111111; stroke-width: 1.6; stroke-linecap: round"/>
   </g>
   <g id="line2d_21">
    <path d="M 288.844453 206.28 
L 288.844453 211.68 
L 288.844453 217.08 
" clip-path="url(#p8aac08b0c9)" style="fill: none; stroke: #111111; stroke-width: 1.6; stroke-linecap: round"/>
   </g>
   <g id="line2d_22">
    <path d="M 8.044453 217.08 
L 81.844453 217.08 
L 155.644453 217.08 
" clip-path="url(#p8aac08b0c9)" style="fill: none; stroke: #11457e; stroke-width: 6; stroke-linecap: round"/>
   </g>
   <g id="line2d_23">
    <path d="M 206.044453 217.08 
L 279.844453 217.08 
L 353.644453 217.08 
" clip-path="url(#p8aac08b0c9)" style="fill: none; stroke: #11457e; stroke-width: 6; stroke-linecap: round"/>
   </g>
   <g id="line2d_24">
    <path d="M 155.644453 217.08 
L 159.244453 217.08 
L 162.844453 217.08 
" clip-path="url(#p8aac08b0c9)" style="fill: none; stroke: #11457e; stroke-width: 1.6; stroke-linecap: round"/>
   </g>
   <g id="line2d_25">
    <path d="M 206.044453 217.08 
L 202.444453 217.08 
L 198.844453 217.08 
" clip-path="url(#p8aac08b0c9)" style="fill: none; stroke: #11457e; stroke-width: 1.6; stroke-linecap: round"/>
   </g>
   <g id="line2d_26">
    <path d="M 206.044453 217.08 
L 188.404453 217.08 
" clip-path="url(#p8aac08b0c9)" style="fill: none; stroke: #111111; stroke-width: 1.6; stroke-linecap: round"/>
   </g>
   <g id="line2d_27">
    <path d="M 173.284453 217.08 
L 155.644453 217.08 
" clip-path="url(#p8aac08b0c9)" style="fill: none; stroke: #111111; stroke-width: 1.6; stroke-linecap: round"/>
   </g>
   <g id="line2d_28">
    <path d="M 72.844453 217.08 
L 72.844453 226.98 
L 72.844453 236.88 
" clip-path="url(#p8aac08b0c9)" style="fill: none; stroke: #11457e; stroke-width: 1.6; stroke-linecap: round"/>
   </g>
   <g id="line2d_29">
    <path d="M 72.844453 229.68 
L 72.844453 247.32 
" clip-path="url(#p8aac08b0c9)" style="fill: none; stroke: #111111; stroke-width: 1.6; stroke-linecap: round"/>
   </g>
   <g id="line2d_30">
    <path d="M 72.844453 262.44 
L 72.844453 280.08 
" clip-path="url(#p8aac08b0c9)" style="fill: none; stroke: #111111; stroke-width: 1.6; stroke-linecap: round"/>
   </g>
   <g id="patch_8">
    <path d="M 42.244453 292.68 
L 103.444453 292.68 
L 103.444453 256.68 
L 42.244453 256.68 
z
" clip-path="url(#p8aac08b0c9)" style="fill: #eef2f7; stroke: #111111; stroke-width: 1.6; stroke-linecap: round"/>
   </g>
   <g id="line2d_31">
    <path d="M 288.844453 217.08 
L 288.844453 226.98 
L 288.844453 236.88 
" clip-path="url(#p8aac08b0c9)" style="fill: none; stroke: #11457e; stroke-width: 1.6; stroke-linecap: round"/>
   </g>
   <g id="line2d_32">
    <path d="M 288.844453 229.68 
L 288.844453 247.32 
" clip-path="url(#p8aac08b0c9)" style="fill: none; stroke: #111111; stroke-width: 1.6; stroke-linecap: round"/>
   </g>
   <g id="line2d_33">
    <path d="M 288.844453 262.44 
L 288.844453 280.08 
" clip-path="url(#p8aac08b0c9)" style="fill: none; stroke: #111111; stroke-width: 1.6; stroke-linecap: round"/>
   </g>
   <g id="patch_9">
    <path d="M 258.244453 292.68 
L 319.444453 292.68 
L 319.444453 256.68 
L 258.244453 256.68 
z
" clip-path="url(#p8aac08b0c9)" style="fill: #eef2f7; stroke: #111111; stroke-width: 1.6; stroke-linecap: round"/>
   </g>
   <g id="text_1">
    <!-- 11 kV -->
    <g style="fill: #555555" transform="translate(202.444453 17.963437) scale(0.09 -0.09)">
     <defs>
      <path id="DejaVuSans-31" d="M 794 531 
L 1825 531 
L 1825 4091 
L 703 3866 
L 703 4441 
L 1819 4666 
L 2450 4666 
L 2450 531 
L 3481 531 
L 3481 0 
L 794 0 
L 794 531 
z
" transform="scale(0.015625)"/>
      <path id="DejaVuSans-20" transform="scale(0.015625)"/>
      <path id="DejaVuSans-6b" d="M 581 4863 
L 1159 4863 
L 1159 1991 
L 2875 3500 
L 3609 3500 
L 1753 1863 
L 3688 0 
L 2938 0 
L 1159 1709 
L 1159 0 
L 581 0 
L 581 4863 
z
" transform="scale(0.015625)"/>
      <path id="DejaVuSans-56" d="M 1831 0 
L 50 4666 
L 709 4666 
L 2188 738 
L 3669 4666 
L 4325 4666 
L 2547 0 
L 1831 0 
z
" transform="scale(0.015625)"/>
     </defs>
     <use xlink:href="#DejaVuSans-31"/>
     <use xlink:href="#DejaVuSans-31" transform="translate(63.623047 0)"/>
     <use xlink:href="#DejaVuSans-20" transform="translate(127.246094 0)"/>
     <use xlink:href="#DejaVuSans-6b" transform="translate(159.033203 0)"/>
     <use xlink:href="#DejaVuSans-56" transform="translate(216.943359 0)"/>
    </g>
   </g>
   <g id="patch_10">
    <path d="M 173.284453 62.64 
L 188.404453 62.64 
L 188.404453 47.52 
L 173.284453 47.52 
z
" clip-path="url(#p8aac08b0c9)" style="fill: #111111; stroke: #111111; stroke-width: 1.6; stroke-linecap: round"/>
   </g>
   <g id="text_2">
    <!-- 52-I -->
    <g style="fill: #111111" transform="translate(187.324453 52.163438) scale(0.09 -0.09)">
     <defs>
      <path id="DejaVuSans-35" d="M 691 4666 
L 3169 4666 
L 3169 4134 
L 1269 4134 
L 1269 2991 
Q 1406 3038 1543 3061 
Q 1681 3084 1819 3084 
Q 2600 3084 3056 2656 
Q 3513 2228 3513 1497 
Q 3513 744 3044 326 
Q 2575 -91 1722 -91 
Q 1428 -91 1123 -41 
Q 819 9 494 109 
L 494 744 
Q 775 591 1075 516 
Q 1375 441 1709 441 
Q 2250 441 2565 725 
Q 2881 1009 2881 1497 
Q 2881 1984 2565 2268 
Q 2250 2553 1709 2553 
Q 1456 2553 1204 2497 
Q 953 2441 691 2322 
L 691 4666 
z
" transform="scale(0.015625)"/>
      <path id="DejaVuSans-32" d="M 1228 531 
L 3431 531 
L 3431 0 
L 469 0 
L 469 531 
Q 828 903 1448 1529 
Q 2069 2156 2228 2338 
Q 2531 2678 2651 2914 
Q 2772 3150 2772 3378 
Q 2772 3750 2511 3984 
Q 2250 4219 1831 4219 
Q 1534 4219 1204 4116 
Q 875 4013 500 3803 
L 500 4441 
Q 881 4594 1212 4672 
Q 1544 4750 1819 4750 
Q 2544 4750 2975 4387 
Q 3406 4025 3406 3419 
Q 3406 3131 3298 2873 
Q 3191 2616 2906 2266 
Q 2828 2175 2409 1742 
Q 1991 1309 1228 531 
z
" transform="scale(0.015625)"/>
      <path id="DejaVuSans-2d" d="M 313 2009 
L 1997 2009 
L 1997 1497 
L 313 1497 
L 313 2009 
z
" transform="scale(0.015625)"/>
      <path id="DejaVuSans-49" d="M 628 4666 
L 1259 4666 
L 1259 0 
L 628 0 
L 628 4666 
z
" transform="scale(0.015625)"/>
     </defs>
     <use xlink:href="#DejaVuSans-35"/>
     <use xlink:href="#DejaVuSans-32" transform="translate(63.623047 0)"/>
     <use xlink:href="#DejaVuSans-2d" transform="translate(127.246094 0)"/>
     <use xlink:href="#DejaVuSans-49" transform="translate(163.330078 0)"/>
    </g>
   </g>
   <g id="text_3">
    <!-- TX-1 -->
    <g style="fill: #111111" transform="translate(94.444453 136.319375) scale(0.1 -0.1)">
     <defs>
      <path id="DejaVuSans-54" d="M -19 4666 
L 3928 4666 
L 3928 4134 
L 2272 4134 
L 2272 0 
L 1638 0 
L 1638 4134 
L -19 4134 
L -19 4666 
z
" transform="scale(0.015625)"/>
      <path id="DejaVuSans-58" d="M 403 4666 
L 1081 4666 
L 2241 2931 
L 3406 4666 
L 4084 4666 
L 2584 2425 
L 4184 0 
L 3506 0 
L 2194 1984 
L 872 0 
L 191 0 
L 1856 2491 
L 403 4666 
z
" transform="scale(0.015625)"/>
     </defs>
     <use xlink:href="#DejaVuSans-54"/>
     <use xlink:href="#DejaVuSans-58" transform="translate(61.083984 0)"/>
     <use xlink:href="#DejaVuSans-2d" transform="translate(124.589844 0)"/>
     <use xlink:href="#DejaVuSans-31" transform="translate(160.673828 0)"/>
    </g>
   </g>
   <g id="text_4">
    <!-- 1600 kVA -->
    <g style="fill: #555555" transform="translate(94.444453 145.8475) scale(0.08 -0.08)">
     <defs>
      <path id="DejaVuSans-36" d="M 2113 2584 
Q 1688 2584 1439 2293 
Q 1191 2003 1191 1497 
Q 1191 994 1439 701 
Q 1688 409 2113 409 
Q 2538 409 2786 701 
Q 3034 994 3034 1497 
Q 3034 2003 2786 2293 
Q 2538 2584 2113 2584 
z
M 3366 4563 
L 3366 3988 
Q 3128 4100 2886 4159 
Q 2644 4219 2406 4219 
Q 1781 4219 1451 3797 
Q 1122 3375 1075 2522 
Q 1259 2794 1537 2939 
Q 1816 3084 2150 3084 
Q 2853 3084 3261 2657 
Q 3669 2231 3669 1497 
Q 3669 778 3244 343 
Q 2819 -91 2113 -91 
Q 1303 -91 875 529 
Q 447 1150 447 2328 
Q 447 3434 972 4092 
Q 1497 4750 2381 4750 
Q 2619 4750 2861 4703 
Q 3103 4656 3366 4563 
z
" transform="scale(0.015625)"/>
      <path id="DejaVuSans-30" d="M 2034 4250 
Q 1547 4250 1301 3770 
Q 1056 3291 1056 2328 
Q 1056 1369 1301 889 
Q 1547 409 2034 409 
Q 2525 409 2770 889 
Q 3016 1369 3016 2328 
Q 3016 3291 2770 3770 
Q 2525 4250 2034 4250 
z
M 2034 4750 
Q 2819 4750 3233 4129 
Q 3647 3509 3647 2328 
Q 3647 1150 3233 529 
Q 2819 -91 2034 -91 
Q 1250 -91 836 529 
Q 422 1150 422 2328 
Q 422 3509 836 4129 
Q 1250 4750 2034 4750 
z
" transform="scale(0.015625)"/>
      <path id="DejaVuSans-41" d="M 2188 4044 
L 1331 1722 
L 3047 1722 
L 2188 4044 
z
M 1831 4666 
L 2547 4666 
L 4325 0 
L 3669 0 
L 3244 1197 
L 1141 1197 
L 716 0 
L 50 0 
L 1831 4666 
z
" transform="scale(0.015625)"/>
     </defs>
     <use xlink:href="#DejaVuSans-31"/>
     <use xlink:href="#DejaVuSans-36" transform="translate(63.623047 0)"/>
     <use xlink:href="#DejaVuSans-30" transform="translate(127.246094 0)"/>
     <use xlink:href="#DejaVuSans-30" transform="translate(190.869141 0)"/>
     <use xlink:href="#DejaVuSans-20" transform="translate(254.492188 0)"/>
     <use xlink:href="#DejaVuSans-6b" transform="translate(286.279297 0)"/>
     <use xlink:href="#DejaVuSans-56" transform="translate(344.189453 0)"/>
     <use xlink:href="#DejaVuSans-41" transform="translate(406.222656 0)"/>
    </g>
   </g>
   <g id="patch_11">
    <path d="M 65.284453 192.24 
L 80.404453 192.24 
L 80.404453 177.12 
L 65.284453 177.12 
z
" clip-path="url(#p8aac08b0c9)" style="fill: #111111; stroke: #111111; stroke-width: 1.6; stroke-linecap: round"/>
   </g>
   <g id="text_5">
    <!-- TX-2 -->
    <g style="fill: #111111" transform="translate(310.444453 136.319375) scale(0.1 -0.1)">
     <use xlink:href="#DejaVuSans-54"/>
     <use xlink:href="#DejaVuSans-58" transform="translate(61.083984 0)"/>
     <use xlink:href="#DejaVuSans-2d" transform="translate(124.589844 0)"/>
     <use xlink:href="#DejaVuSans-32" transform="translate(160.673828 0)"/>
    </g>
   </g>
   <g id="text_6">
    <!-- 1600 kVA -->
    <g style="fill: #555555" transform="translate(310.444453 145.8475) scale(0.08 -0.08)">
     <use xlink:href="#DejaVuSans-31"/>
     <use xlink:href="#DejaVuSans-36" transform="translate(63.623047 0)"/>
     <use xlink:href="#DejaVuSans-30" transform="translate(127.246094 0)"/>
     <use xlink:href="#DejaVuSans-30" transform="translate(190.869141 0)"/>
     <use xlink:href="#DejaVuSans-20" transform="translate(254.492188 0)"/>
     <use xlink:href="#DejaVuSans-6b" transform="translate(286.279297 0)"/>
     <use xlink:href="#DejaVuSans-56" transform="translate(344.189453 0)"/>
     <use xlink:href="#DejaVuSans-41" transform="translate(406.222656 0)"/>
    </g>
   </g>
   <g id="patch_12">
    <path d="M 281.284453 192.24 
L 296.404453 192.24 
L 296.404453 177.12 
L 281.284453 177.12 
z
" clip-path="url(#p8aac08b0c9)" style="fill: #111111; stroke: #111111; stroke-width: 1.6; stroke-linecap: round"/>
   </g>
   <g id="patch_13">
    <path d="M 173.284453 224.64 
L 173.284453 209.52 
L 188.404453 209.52 
L 188.404453 224.64 
z
" clip-path="url(#p8aac08b0c9)" style="fill: #ffffff; stroke: #111111; stroke-width: 1.6; stroke-linecap: round"/>
   </g>
   <g id="text_7">
    <!-- tie (N.O.) -->
    <g style="fill: #555555" transform="translate(159.187578 208.4875) scale(0.08 -0.08)">
     <defs>
      <path id="DejaVuSans-74" d="M 1172 4494 
L 1172 3500 
L 2356 3500 
L 2356 3053 
L 1172 3053 
L 1172 1153 
Q 1172 725 1289 603 
Q 1406 481 1766 481 
L 2356 481 
L 2356 0 
L 1766 0 
Q 1100 0 847 248 
Q 594 497 594 1153 
L 594 3053 
L 172 3053 
L 172 3500 
L 594 3500 
L 594 4494 
L 1172 4494 
z
" transform="scale(0.015625)"/>
      <path id="DejaVuSans-69" d="M 603 3500 
L 1178 3500 
L 1178 0 
L 603 0 
L 603 3500 
z
M 603 4863 
L 1178 4863 
L 1178 4134 
L 603 4134 
L 603 4863 
z
" transform="scale(0.015625)"/>
      <path id="DejaVuSans-65" d="M 3597 1894 
L 3597 1613 
L 953 1613 
Q 991 1019 1311 708 
Q 1631 397 2203 397 
Q 2534 397 2845 478 
Q 3156 559 3463 722 
L 3463 178 
Q 3153 47 2828 -22 
Q 2503 -91 2169 -91 
Q 1331 -91 842 396 
Q 353 884 353 1716 
Q 353 2575 817 3079 
Q 1281 3584 2069 3584 
Q 2775 3584 3186 3129 
Q 3597 2675 3597 1894 
z
M 3022 2063 
Q 3016 2534 2758 2815 
Q 2500 3097 2075 3097 
Q 1594 3097 1305 2825 
Q 1016 2553 972 2059 
L 3022 2063 
z
" transform="scale(0.015625)"/>
      <path id="DejaVuSans-28" d="M 1984 4856 
Q 1566 4138 1362 3434 
Q 1159 2731 1159 2009 
Q 1159 1288 1364 580 
Q 1569 -128 1984 -844 
L 1484 -844 
Q 1016 -109 783 600 
Q 550 1309 550 2009 
Q 550 2706 781 3412 
Q 1013 4119 1484 4856 
L 1984 4856 
z
" transform="scale(0.015625)"/>
      <path id="DejaVuSans-4e" d="M 628 4666 
L 1478 4666 
L 3547 763 
L 3547 4666 
L 4159 4666 
L 4159 0 
L 3309 0 
L 1241 3903 
L 1241 0 
L 628 0 
L 628 4666 
z
" transform="scale(0.015625)"/>
      <path id="DejaVuSans-2e" d="M 684 794 
L 1344 794 
L 1344 0 
L 684 0 
L 684 794 
z
" transform="scale(0.015625)"/>
      <path id="DejaVuSans-4f" d="M 2522 4238 
Q 1834 4238 1429 3725 
Q 1025 3213 1025 2328 
Q 1025 1447 1429 934 
Q 1834 422 2522 422 
Q 3209 422 3611 934 
Q 4013 1447 4013 2328 
Q 4013 3213 3611 3725 
Q 3209 4238 2522 4238 
z
M 2522 4750 
Q 3503 4750 4090 4092 
Q 4678 3434 4678 2328 
Q 4678 1225 4090 567 
Q 3503 -91 2522 -91 
Q 1538 -91 948 565 
Q 359 1222 359 2328 
Q 359 3434 948 4092 
Q 1538 4750 2522 4750 
z
" transform="scale(0.015625)"/>
      <path id="DejaVuSans-29" d="M 513 4856 
L 1013 4856 
Q 1481 4119 1714 3412 
Q 1947 2706 1947 2009 
Q 1947 1309 1714 600 
Q 1481 -109 1013 -844 
L 513 -844 
Q 928 -128 1133 580 
Q 1338 1288 1338 2009 
Q 1338 2731 1133 3434 
Q 928 4138 513 4856 
z
" transform="scale(0.015625)"/>
     </defs>
     <use xlink:href="#DejaVuSans-74"/>
     <use xlink:href="#DejaVuSans-69" transform="translate(39.208984 0)"/>
     <use xlink:href="#DejaVuSans-65" transform="translate(66.992188 0)"/>
     <use xlink:href="#DejaVuSans-20" transform="translate(128.515625 0)"/>
     <use xlink:href="#DejaVuSans-28" transform="translate(160.302734 0)"/>
     <use xlink:href="#DejaVuSans-4e" transform="translate(199.316406 0)"/>
     <use xlink:href="#DejaVuSans-2e" transform="translate(274.121094 0)"/>
     <use xlink:href="#DejaVuSans-4f" transform="translate(305.908203 0)"/>
     <use xlink:href="#DejaVuSans-2e" transform="translate(380.619141 0)"/>
     <use xlink:href="#DejaVuSans-29" transform="translate(412.40625 0)"/>
    </g>
   </g>
   <g id="patch_14">
    <path d="M 65.284453 262.44 
L 80.404453 262.44 
L 80.404453 247.32 
L 65.284453 247.32 
z
" clip-path="url(#p8aac08b0c9)" style="fill: #111111; stroke: #111111; stroke-width: 1.6; stroke-linecap: round"/>
   </g>
   <g id="patch_15">
    <path d="M 281.284453 262.44 
L 296.404453 262.44 
L 296.404453 247.32 
L 281.284453 247.32 
z
" clip-path="url(#p8aac08b0c9)" style="fill: #111111; stroke: #111111; stroke-width: 1.6; stroke-linecap: round"/>
   </g>
   <g id="text_8">
    <!-- SPOF: single incomer -->
    <g style="fill: #cc0000" transform="translate(242.044453 56.600313) scale(0.1 -0.1)">
     <defs>
      <path id="DejaVuSans-53" d="M 3425 4513 
L 3425 3897 
Q 3066 4069 2747 4153 
Q 2428 4238 2131 4238 
Q 1616 4238 1336 4038 
Q 1056 3838 1056 3469 
Q 1056 3159 1242 3001 
Q 1428 2844 1947 2747 
L 2328 2669 
Q 3034 2534 3370 2195 
Q 3706 1856 3706 1288 
Q 3706 609 3251 259 
Q 2797 -91 1919 -91 
Q 1588 -91 1214 -16 
Q 841 59 441 206 
L 441 856 
Q 825 641 1194 531 
Q 1563 422 1919 422 
Q 2459 422 2753 634 
Q 3047 847 3047 1241 
Q 3047 1584 2836 1778 
Q 2625 1972 2144 2069 
L 1759 2144 
Q 1053 2284 737 2584 
Q 422 2884 422 3419 
Q 422 4038 858 4394 
Q 1294 4750 2059 4750 
Q 2388 4750 2728 4690 
Q 3069 4631 3425 4513 
z
" transform="scale(0.015625)"/>
      <path id="DejaVuSans-50" d="M 1259 4147 
L 1259 2394 
L 2053 2394 
Q 2494 2394 2734 2622 
Q 2975 2850 2975 3272 
Q 2975 3691 2734 3919 
Q 2494 4147 2053 4147 
L 1259 4147 
z
M 628 4666 
L 2053 4666 
Q 2838 4666 3239 4311 
Q 3641 3956 3641 3272 
Q 3641 2581 3239 2228 
Q 2838 1875 2053 1875 
L 1259 1875 
L 1259 0 
L 628 0 
L 628 4666 
z
" transform="scale(0.015625)"/>
      <path id="DejaVuSans-46" d="M 628 4666 
L 3309 4666 
L 3309 4134 
L 1259 4134 
L 1259 2759 
L 3109 2759 
L 3109 2228 
L 1259 2228 
L 1259 0 
L 628 0 
L 628 4666 
z
" transform="scale(0.015625)"/>
      <path id="DejaVuSans-3a" d="M 750 794 
L 1409 794 
L 1409 0 
L 750 0 
L 750 794 
z
M 750 3309 
L 1409 3309 
L 1409 2516 
L 750 2516 
L 750 3309 
z
" transform="scale(0.015625)"/>
      <path id="DejaVuSans-73" d="M 2834 3397 
L 2834 2853 
Q 2591 2978 2328 3040 
Q 2066 3103 1784 3103 
Q 1356 3103 1142 2972 
Q 928 2841 928 2578 
Q 928 2378 1081 2264 
Q 1234 2150 1697 2047 
L 1894 2003 
Q 2506 1872 2764 1633 
Q 3022 1394 3022 966 
Q 3022 478 2636 193 
Q 2250 -91 1575 -91 
Q 1294 -91 989 -36 
Q 684 19 347 128 
L 347 722 
Q 666 556 975 473 
Q 1284 391 1588 391 
Q 1994 391 2212 530 
Q 2431 669 2431 922 
Q 2431 1156 2273 1281 
Q 2116 1406 1581 1522 
L 1381 1569 
Q 847 1681 609 1914 
Q 372 2147 372 2553 
Q 372 3047 722 3315 
Q 1072 3584 1716 3584 
Q 2034 3584 2315 3537 
Q 2597 3491 2834 3397 
z
" transform="scale(0.015625)"/>
      <path id="DejaVuSans-6e" d="M 3513 2113 
L 3513 0 
L 2938 0 
L 2938 2094 
Q 2938 2591 2744 2837 
Q 2550 3084 2163 3084 
Q 1697 3084 1428 2787 
Q 1159 2491 1159 1978 
L 1159 0 
L 581 0 
L 581 3500 
L 1159 3500 
L 1159 2956 
Q 1366 3272 1645 3428 
Q 1925 3584 2291 3584 
Q 2894 3584 3203 3211 
Q 3513 2838 3513 2113 
z
" transform="scale(0.015625)"/>
      <path id="DejaVuSans-67" d="M 2906 1791 
Q 2906 2416 2648 2759 
Q 2391 3103 1925 3103 
Q 1463 3103 1205 2759 
Q 947 2416 947 1791 
Q 947 1169 1205 825 
Q 1463 481 1925 481 
Q 2391 481 2648 825 
Q 2906 1169 2906 1791 
z
M 3481 434 
Q 3481 -459 3084 -895 
Q 2688 -1331 1869 -1331 
Q 1566 -1331 1297 -1286 
Q 1028 -1241 775 -1147 
L 775 -588 
Q 1028 -725 1275 -790 
Q 1522 -856 1778 -856 
Q 2344 -856 2625 -561 
Q 2906 -266 2906 331 
L 2906 616 
Q 2728 306 2450 153 
Q 2172 0 1784 0 
Q 1141 0 747 490 
Q 353 981 353 1791 
Q 353 2603 747 3093 
Q 1141 3584 1784 3584 
Q 2172 3584 2450 3431 
Q 2728 3278 2906 2969 
L 2906 3500 
L 3481 3500 
L 3481 434 
z
" transform="scale(0.015625)"/>
      <path id="DejaVuSans-6c" d="M 603 4863 
L 1178 4863 
L 1178 0 
L 603 0 
L 603 4863 
z
" transform="scale(0.015625)"/>
      <path id="DejaVuSans-63" d="M 3122 3366 
L 3122 2828 
Q 2878 2963 2633 3030 
Q 2388 3097 2138 3097 
Q 1578 3097 1268 2742 
Q 959 2388 959 1747 
Q 959 1106 1268 751 
Q 1578 397 2138 397 
Q 2388 397 2633 464 
Q 2878 531 3122 666 
L 3122 134 
Q 2881 22 2623 -34 
Q 2366 -91 2075 -91 
Q 1284 -91 818 406 
Q 353 903 353 1747 
Q 353 2603 823 3093 
Q 1294 3584 2113 3584 
Q 2378 3584 2631 3529 
Q 2884 3475 3122 3366 
z
" transform="scale(0.015625)"/>
      <path id="DejaVuSans-6f" d="M 1959 3097 
Q 1497 3097 1228 2736 
Q 959 2375 959 1747 
Q 959 1119 1226 758 
Q 1494 397 1959 397 
Q 2419 397 2687 759 
Q 2956 1122 2956 1747 
Q 2956 2369 2687 2733 
Q 2419 3097 1959 3097 
z
M 1959 3584 
Q 2709 3584 3137 3096 
Q 3566 2609 3566 1747 
Q 3566 888 3137 398 
Q 2709 -91 1959 -91 
Q 1206 -91 779 398 
Q 353 888 353 1747 
Q 353 2609 779 3096 
Q 1206 3584 1959 3584 
z
" transform="scale(0.015625)"/>
      <path id="DejaVuSans-6d" d="M 3328 2828 
Q 3544 3216 3844 3400 
Q 4144 3584 4550 3584 
Q 5097 3584 5394 3201 
Q 5691 2819 5691 2113 
L 5691 0 
L 5113 0 
L 5113 2094 
Q 5113 2597 4934 2840 
Q 4756 3084 4391 3084 
Q 3944 3084 3684 2787 
Q 3425 2491 3425 1978 
L 3425 0 
L 2847 0 
L 2847 2094 
Q 2847 2600 2669 2842 
Q 2491 3084 2119 3084 
Q 1678 3084 1418 2786 
Q 1159 2488 1159 1978 
L 1159 0 
L 581 0 
L 581 3500 
L 1159 3500 
L 1159 2956 
Q 1356 3278 1631 3431 
Q 1906 3584 2284 3584 
Q 2666 3584 2933 3390 
Q 3200 3197 3328 2828 
z
" transform="scale(0.015625)"/>
      <path id="DejaVuSans-72" d="M 2631 2963 
Q 2534 3019 2420 3045 
Q 2306 3072 2169 3072 
Q 1681 3072 1420 2755 
Q 1159 2438 1159 1844 
L 1159 0 
L 581 0 
L 581 3500 
L 1159 3500 
L 1159 2956 
Q 1341 3275 1631 3429 
Q 1922 3584 2338 3584 
Q 2397 3584 2469 3576 
Q 2541 3569 2628 3553 
L 2631 2963 
z
" transform="scale(0.015625)"/>
     </defs>
     <use xlink:href="#DejaVuSans-53"/>
     <use xlink:href="#DejaVuSans-50" transform="translate(63.476562 0)"/>
     <use xlink:href="#DejaVuSans-4f" transform="translate(123.779297 0)"/>
     <use xlink:href="#DejaVuSans-46" transform="translate(202.490234 0)"/>
     <use xlink:href="#DejaVuSans-3a" transform="translate(252.259766 0)"/>
     <use xlink:href="#DejaVuSans-20" transform="translate(285.951172 0)"/>
     <use xlink:href="#DejaVuSans-73" transform="translate(317.738281 0)"/>
     <use xlink:href="#DejaVuSans-69" transform="translate(369.837891 0)"/>
     <use xlink:href="#DejaVuSans-6e" transform="translate(397.621094 0)"/>
     <use xlink:href="#DejaVuSans-67" transform="translate(461 0)"/>
     <use xlink:href="#DejaVuSans-6c" transform="translate(524.476562 0)"/>
     <use xlink:href="#DejaVuSans-65" transform="translate(552.259766 0)"/>
     <use xlink:href="#DejaVuSans-20" transform="translate(613.783203 0)"/>
     <use xlink:href="#DejaVuSans-69" transform="translate(645.570312 0)"/>
     <use xlink:href="#DejaVuSans-6e" transform="translate(673.353516 0)"/>
     <use xlink:href="#DejaVuSans-63" transform="translate(736.732422 0)"/>
     <use xlink:href="#DejaVuSans-6f" transform="translate(791.712891 0)"/>
     <use xlink:href="#DejaVuSans-6d" transform="translate(852.894531 0)"/>
     <use xlink:href="#DejaVuSans-65" transform="translate(950.306641 0)"/>
     <use xlink:href="#DejaVuSans-72" transform="translate(1011.830078 0)"/>
    </g>
    <!-- + single MV bus -->
    <g style="fill: #cc0000" transform="translate(242.044453 66.278437) scale(0.1 -0.1)">
     <defs>
      <path id="DejaVuSans-2b" d="M 2944 4013 
L 2944 2272 
L 4684 2272 
L 4684 1741 
L 2944 1741 
L 2944 0 
L 2419 0 
L 2419 1741 
L 678 1741 
L 678 2272 
L 2419 2272 
L 2419 4013 
L 2944 4013 
z
" transform="scale(0.015625)"/>
      <path id="DejaVuSans-4d" d="M 628 4666 
L 1569 4666 
L 2759 1491 
L 3956 4666 
L 4897 4666 
L 4897 0 
L 4281 0 
L 4281 4097 
L 3078 897 
L 2444 897 
L 1241 4097 
L 1241 0 
L 628 0 
L 628 4666 
z
" transform="scale(0.015625)"/>
      <path id="DejaVuSans-62" d="M 3116 1747 
Q 3116 2381 2855 2742 
Q 2594 3103 2138 3103 
Q 1681 3103 1420 2742 
Q 1159 2381 1159 1747 
Q 1159 1113 1420 752 
Q 1681 391 2138 391 
Q 2594 391 2855 752 
Q 3116 1113 3116 1747 
z
M 1159 2969 
Q 1341 3281 1617 3432 
Q 1894 3584 2278 3584 
Q 2916 3584 3314 3078 
Q 3713 2572 3713 1747 
Q 3713 922 3314 415 
Q 2916 -91 2278 -91 
Q 1894 -91 1617 61 
Q 1341 213 1159 525 
L 1159 0 
L 581 0 
L 581 4863 
L 1159 4863 
L 1159 2969 
z
" transform="scale(0.015625)"/>
      <path id="DejaVuSans-75" d="M 544 1381 
L 544 3500 
L 1119 3500 
L 1119 1403 
Q 1119 906 1312 657 
Q 1506 409 1894 409 
Q 2359 409 2629 706 
Q 2900 1003 2900 1516 
L 2900 3500 
L 3475 3500 
L 3475 0 
L 2900 0 
L 2900 538 
Q 2691 219 2414 64 
Q 2138 -91 1772 -91 
Q 1169 -91 856 284 
Q 544 659 544 1381 
z
M 1991 3584 
L 1991 3584 
z
" transform="scale(0.015625)"/>
     </defs>
     <use xlink:href="#DejaVuSans-2b"/>
     <use xlink:href="#DejaVuSans-20" transform="translate(83.789062 0)"/>
     <use xlink:href="#DejaVuSans-73" transform="translate(115.576172 0)"/>
     <use xlink:href="#DejaVuSans-69" transform="translate(167.675781 0)"/>
     <use xlink:href="#DejaVuSans-6e" transform="translate(195.458984 0)"/>
     <use xlink:href="#DejaVuSans-67" transform="translate(258.837891 0)"/>
     <use xlink:href="#DejaVuSans-6c" transform="translate(322.314453 0)"/>
     <use xlink:href="#DejaVuSans-65" transform="translate(350.097656 0)"/>
     <use xlink:href="#DejaVuSans-20" transform="translate(411.621094 0)"/>
     <use xlink:href="#DejaVuSans-4d" transform="translate(443.408203 0)"/>
     <use xlink:href="#DejaVuSans-56" transform="translate(529.6875 0)"/>
     <use xlink:href="#DejaVuSans-20" transform="translate(598.095703 0)"/>
     <use xlink:href="#DejaVuSans-62" transform="translate(629.882812 0)"/>
     <use xlink:href="#DejaVuSans-75" transform="translate(693.359375 0)"/>
     <use xlink:href="#DejaVuSans-73" transform="translate(756.738281 0)"/>
    </g>
   </g>
   <g id="text_9">
    <!-- SPOF-C  -  Single utility incomer / MV bus -->
    <g style="fill: #111111" transform="translate(61.175391 346.39125) scale(0.12 -0.12)">
     <defs>
      <path id="DejaVuSans-43" d="M 4122 4306 
L 4122 3641 
Q 3803 3938 3442 4084 
Q 3081 4231 2675 4231 
Q 1875 4231 1450 3742 
Q 1025 3253 1025 2328 
Q 1025 1406 1450 917 
Q 1875 428 2675 428 
Q 3081 428 3442 575 
Q 3803 722 4122 1019 
L 4122 359 
Q 3791 134 3420 21 
Q 3050 -91 2638 -91 
Q 1578 -91 968 557 
Q 359 1206 359 2328 
Q 359 3453 968 4101 
Q 1578 4750 2638 4750 
Q 3056 4750 3426 4639 
Q 3797 4528 4122 4306 
z
" transform="scale(0.015625)"/>
      <path id="DejaVuSans-79" d="M 2059 -325 
Q 1816 -950 1584 -1140 
Q 1353 -1331 966 -1331 
L 506 -1331 
L 506 -850 
L 844 -850 
Q 1081 -850 1212 -737 
Q 1344 -625 1503 -206 
L 1606 56 
L 191 3500 
L 800 3500 
L 1894 763 
L 2988 3500 
L 3597 3500 
L 2059 -325 
z
" transform="scale(0.015625)"/>
      <path id="DejaVuSans-2f" d="M 1625 4666 
L 2156 4666 
L 531 -594 
L 0 -594 
L 1625 4666 
z
" transform="scale(0.015625)"/>
     </defs>
     <use xlink:href="#DejaVuSans-53"/>
     <use xlink:href="#DejaVuSans-50" transform="translate(63.476562 0)"/>
     <use xlink:href="#DejaVuSans-4f" transform="translate(123.779297 0)"/>
     <use xlink:href="#DejaVuSans-46" transform="translate(202.490234 0)"/>
     <use xlink:href="#DejaVuSans-2d" transform="translate(260.009766 0)"/>
     <use xlink:href="#DejaVuSans-43" transform="translate(296.09375 0)"/>
     <use xlink:href="#DejaVuSans-20" transform="translate(365.917969 0)"/>
     <use xlink:href="#DejaVuSans-20" transform="translate(397.705078 0)"/>
     <use xlink:href="#DejaVuSans-2d" transform="translate(429.492188 0)"/>
     <use xlink:href="#DejaVuSans-20" transform="translate(465.576172 0)"/>
     <use xlink:href="#DejaVuSans-20" transform="translate(497.363281 0)"/>
     <use xlink:href="#DejaVuSans-53" transform="translate(529.150391 0)"/>
     <use xlink:href="#DejaVuSans-69" transform="translate(592.626953 0)"/>
     <use xlink:href="#DejaVuSans-6e" transform="translate(620.410156 0)"/>
     <use xlink:href="#DejaVuSans-67" transform="translate(683.789062 0)"/>
     <use xlink:href="#DejaVuSans-6c" transform="translate(747.265625 0)"/>
     <use xlink:href="#DejaVuSans-65" transform="translate(775.048828 0)"/>
     <use xlink:href="#DejaVuSans-20" transform="translate(836.572266 0)"/>
     <use xlink:href="#DejaVuSans-75" transform="translate(868.359375 0)"/>
     <use xlink:href="#DejaVuSans-74" transform="translate(931.738281 0)"/>
     <use xlink:href="#DejaVuSans-69" transform="translate(970.947266 0)"/>
     <use xlink:href="#DejaVuSans-6c" transform="translate(998.730469 0)"/>
     <use xlink:href="#DejaVuSans-69" transform="translate(1026.513672 0)"/>
     <use xlink:href="#DejaVuSans-74" transform="translate(1054.296875 0)"/>
     <use xlink:href="#DejaVuSans-79" transform="translate(1093.505859 0)"/>
     <use xlink:href="#DejaVuSans-20" transform="translate(1152.685547 0)"/>
     <use xlink:href="#DejaVuSans-69" transform="translate(1184.472656 0)"/>
     <use xlink:href="#DejaVuSans-6e" transform="translate(1212.255859 0)"/>
     <use xlink:href="#DejaVuSans-63" transform="translate(1275.634766 0)"/>
     <use xlink:href="#DejaVuSans-6f" transform="translate(1330.615234 0)"/>
     <use xlink:href="#DejaVuSans-6d" transform="translate(1391.796875 0)"/>
     <use xlink:href="#DejaVuSans-65" transform="translate(1489.208984 0)"/>
     <use xlink:href="#DejaVuSans-72" transform="translate(1550.732422 0)"/>
     <use xlink:href="#DejaVuSans-20" transform="translate(1591.845703 0)"/>
     <use xlink:href="#DejaVuSans-2f" transform="translate(1623.632812 0)"/>
     <use xlink:href="#DejaVuSans-20" transform="translate(1657.324219 0)"/>
     <use xlink:href="#DejaVuSans-4d" transform="translate(1689.111328 0)"/>
     <use xlink:href="#DejaVuSans-56" transform="translate(1775.390625 0)"/>
     <use xlink:href="#DejaVuSans-20" transform="translate(1843.798828 0)"/>
     <use xlink:href="#DejaVuSans-62" transform="translate(1875.585938 0)"/>
     <use xlink:href="#DejaVuSans-75" transform="translate(1939.0625 0)"/>
     <use xlink:href="#DejaVuSans-73" transform="translate(2002.441406 0)"/>
    </g>
   </g>
   <g id="text_10">
    <!-- LV redundancy is fine, but one incomer or MV-bus fault still blacks out everything. -->
    <g style="fill: #555555" transform="translate(0 357.803437) scale(0.09 -0.09)">
     <defs>
      <path id="DejaVuSans-4c" d="M 628 4666 
L 1259 4666 
L 1259 531 
L 3531 531 
L 3531 0 
L 628 0 
L 628 4666 
z
" transform="scale(0.015625)"/>
      <path id="DejaVuSans-64" d="M 2906 2969 
L 2906 4863 
L 3481 4863 
L 3481 0 
L 2906 0 
L 2906 525 
Q 2725 213 2448 61 
Q 2172 -91 1784 -91 
Q 1150 -91 751 415 
Q 353 922 353 1747 
Q 353 2572 751 3078 
Q 1150 3584 1784 3584 
Q 2172 3584 2448 3432 
Q 2725 3281 2906 2969 
z
M 947 1747 
Q 947 1113 1208 752 
Q 1469 391 1925 391 
Q 2381 391 2643 752 
Q 2906 1113 2906 1747 
Q 2906 2381 2643 2742 
Q 2381 3103 1925 3103 
Q 1469 3103 1208 2742 
Q 947 2381 947 1747 
z
" transform="scale(0.015625)"/>
      <path id="DejaVuSans-61" d="M 2194 1759 
Q 1497 1759 1228 1600 
Q 959 1441 959 1056 
Q 959 750 1161 570 
Q 1363 391 1709 391 
Q 2188 391 2477 730 
Q 2766 1069 2766 1631 
L 2766 1759 
L 2194 1759 
z
M 3341 1997 
L 3341 0 
L 2766 0 
L 2766 531 
Q 2569 213 2275 61 
Q 1981 -91 1556 -91 
Q 1019 -91 701 211 
Q 384 513 384 1019 
Q 384 1609 779 1909 
Q 1175 2209 1959 2209 
L 2766 2209 
L 2766 2266 
Q 2766 2663 2505 2880 
Q 2244 3097 1772 3097 
Q 1472 3097 1187 3025 
Q 903 2953 641 2809 
L 641 3341 
Q 956 3463 1253 3523 
Q 1550 3584 1831 3584 
Q 2591 3584 2966 3190 
Q 3341 2797 3341 1997 
z
" transform="scale(0.015625)"/>
      <path id="DejaVuSans-66" d="M 2375 4863 
L 2375 4384 
L 1825 4384 
Q 1516 4384 1395 4259 
Q 1275 4134 1275 3809 
L 1275 3500 
L 2222 3500 
L 2222 3053 
L 1275 3053 
L 1275 0 
L 697 0 
L 697 3053 
L 147 3053 
L 147 3500 
L 697 3500 
L 697 3744 
Q 697 4328 969 4595 
Q 1241 4863 1831 4863 
L 2375 4863 
z
" transform="scale(0.015625)"/>
      <path id="DejaVuSans-2c" d="M 750 794 
L 1409 794 
L 1409 256 
L 897 -744 
L 494 -744 
L 750 256 
L 750 794 
z
" transform="scale(0.015625)"/>
      <path id="DejaVuSans-76" d="M 191 3500 
L 800 3500 
L 1894 563 
L 2988 3500 
L 3597 3500 
L 2284 0 
L 1503 0 
L 191 3500 
z
" transform="scale(0.015625)"/>
      <path id="DejaVuSans-68" d="M 3513 2113 
L 3513 0 
L 2938 0 
L 2938 2094 
Q 2938 2591 2744 2837 
Q 2550 3084 2163 3084 
Q 1697 3084 1428 2787 
Q 1159 2491 1159 1978 
L 1159 0 
L 581 0 
L 581 4863 
L 1159 4863 
L 1159 2956 
Q 1366 3272 1645 3428 
Q 1925 3584 2291 3584 
Q 2894 3584 3203 3211 
Q 3513 2838 3513 2113 
z
" transform="scale(0.015625)"/>
     </defs>
     <use xlink:href="#DejaVuSans-4c"/>
     <use xlink:href="#DejaVuSans-56" transform="translate(44.712891 0)"/>
     <use xlink:href="#DejaVuSans-20" transform="translate(113.121094 0)"/>
     <use xlink:href="#DejaVuSans-72" transform="translate(144.908203 0)"/>
     <use xlink:href="#DejaVuSans-65" transform="translate(183.771484 0)"/>
     <use xlink:href="#DejaVuSans-64" transform="translate(245.294922 0)"/>
     <use xlink:href="#DejaVuSans-75" transform="translate(308.771484 0)"/>
     <use xlink:href="#DejaVuSans-6e" transform="translate(372.150391 0)"/>
     <use xlink:href="#DejaVuSans-64" transform="translate(435.529297 0)"/>
     <use xlink:href="#DejaVuSans-61" transform="translate(499.005859 0)"/>
     <use xlink:href="#DejaVuSans-6e" transform="translate(560.285156 0)"/>
     <use xlink:href="#DejaVuSans-63" transform="translate(623.664062 0)"/>
     <use xlink:href="#DejaVuSans-79" transform="translate(678.644531 0)"/>
     <use xlink:href="#DejaVuSans-20" transform="translate(737.824219 0)"/>
     <use xlink:href="#DejaVuSans-69" transform="translate(769.611328 0)"/>
     <use xlink:href="#DejaVuSans-73" transform="translate(797.394531 0)"/>
     <use xlink:href="#DejaVuSans-20" transform="translate(849.494141 0)"/>
     <use xlink:href="#DejaVuSans-66" transform="translate(881.28125 0)"/>
     <use xlink:href="#DejaVuSans-69" transform="translate(916.486328 0)"/>
     <use xlink:href="#DejaVuSans-6e" transform="translate(944.269531 0)"/>
     <use xlink:href="#DejaVuSans-65" transform="translate(1007.648438 0)"/>
     <use xlink:href="#DejaVuSans-2c" transform="translate(1069.171875 0)"/>
     <use xlink:href="#DejaVuSans-20" transform="translate(1100.958984 0)"/>
     <use xlink:href="#DejaVuSans-62" transform="translate(1132.746094 0)"/>
     <use xlink:href="#DejaVuSans-75" transform="translate(1196.222656 0)"/>
     <use xlink:href="#DejaVuSans-74" transform="translate(1259.601562 0)"/>
     <use xlink:href="#DejaVuSans-20" transform="translate(1298.810547 0)"/>
     <use xlink:href="#DejaVuSans-6f" transform="translate(1330.597656 0)"/>
     <use xlink:href="#DejaVuSans-6e" transform="translate(1391.779297 0)"/>
     <use xlink:href="#DejaVuSans-65" transform="translate(1455.158203 0)"/>
     <use xlink:href="#DejaVuSans-20" transform="translate(1516.681641 0)"/>
     <use xlink:href="#DejaVuSans-69" transform="translate(1548.46875 0)"/>
     <use xlink:href="#DejaVuSans-6e" transform="translate(1576.251953 0)"/>
     <use xlink:href="#DejaVuSans-63" transform="translate(1639.630859 0)"/>
     <use xlink:href="#DejaVuSans-6f" transform="translate(1694.611328 0)"/>
     <use xlink:href="#DejaVuSans-6d" transform="translate(1755.792969 0)"/>
     <use xlink:href="#DejaVuSans-65" transform="translate(1853.205078 0)"/>
     <use xlink:href="#DejaVuSans-72" transform="translate(1914.728516 0)"/>
     <use xlink:href="#DejaVuSans-20" transform="translate(1955.841797 0)"/>
     <use xlink:href="#DejaVuSans-6f" transform="translate(1987.628906 0)"/>
     <use xlink:href="#DejaVuSans-72" transform="translate(2048.810547 0)"/>
     <use xlink:href="#DejaVuSans-20" transform="translate(2089.923828 0)"/>
     <use xlink:href="#DejaVuSans-4d" transform="translate(2121.710938 0)"/>
     <use xlink:href="#DejaVuSans-56" transform="translate(2207.990234 0)"/>
     <use xlink:href="#DejaVuSans-2d" transform="translate(2270.523438 0)"/>
     <use xlink:href="#DejaVuSans-62" transform="translate(2306.607422 0)"/>
     <use xlink:href="#DejaVuSans-75" transform="translate(2370.083984 0)"/>
     <use xlink:href="#DejaVuSans-73" transform="translate(2433.462891 0)"/>
     <use xlink:href="#DejaVuSans-20" transform="translate(2485.5625 0)"/>
     <use xlink:href="#DejaVuSans-66" transform="translate(2517.349609 0)"/>
     <use xlink:href="#DejaVuSans-61" transform="translate(2552.554688 0)"/>
     <use xlink:href="#DejaVuSans-75" transform="translate(2613.833984 0)"/>
     <use xlink:href="#DejaVuSans-6c" transform="translate(2677.212891 0)"/>
     <use xlink:href="#DejaVuSans-74" transform="translate(2704.996094 0)"/>
     <use xlink:href="#DejaVuSans-20" transform="translate(2744.205078 0)"/>
     <use xlink:href="#DejaVuSans-73" transform="translate(2775.992188 0)"/>
     <use xlink:href="#DejaVuSans-74" transform="translate(2828.091797 0)"/>
     <use xlink:href="#DejaVuSans-69" transform="translate(2867.300781 0)"/>
     <use xlink:href="#DejaVuSans-6c" transform="translate(2895.083984 0)"/>
     <use xlink:href="#DejaVuSans-6c" transform="translate(2922.867188 0)"/>
     <use xlink:href="#DejaVuSans-20" transform="translate(2950.650391 0)"/>
     <use xlink:href="#DejaVuSans-62" transform="translate(2982.4375 0)"/>
     <use xlink:href="#DejaVuSans-6c" transform="translate(3045.914062 0)"/>
     <use xlink:href="#DejaVuSans-61" transform="translate(3073.697266 0)"/>
     <use xlink:href="#DejaVuSans-63" transform="translate(3134.976562 0)"/>
     <use xlink:href="#DejaVuSans-6b" transform="translate(3189.957031 0)"/>
     <use xlink:href="#DejaVuSans-73" transform="translate(3247.867188 0)"/>
     <use xlink:href="#DejaVuSans-20" transform="translate(3299.966797 0)"/>
     <use xlink:href="#DejaVuSans-6f" transform="translate(3331.753906 0)"/>
     <use xlink:href="#DejaVuSans-75" transform="translate(3392.935547 0)"/>
     <use xlink:href="#DejaVuSans-74" transform="translate(3456.314453 0)"/>
     <use xlink:href="#DejaVuSans-20" transform="translate(3495.523438 0)"/>
     <use xlink:href="#DejaVuSans-65" transform="translate(3527.310547 0)"/>
     <use xlink:href="#DejaVuSans-76" transform="translate(3588.833984 0)"/>
     <use xlink:href="#DejaVuSans-65" transform="translate(3648.013672 0)"/>
     <use xlink:href="#DejaVuSans-72" transform="translate(3709.537109 0)"/>
     <use xlink:href="#DejaVuSans-79" transform="translate(3750.650391 0)"/>
     <use xlink:href="#DejaVuSans-74" transform="translate(3809.830078 0)"/>
     <use xlink:href="#DejaVuSans-68" transform="translate(3849.039062 0)"/>
     <use xlink:href="#DejaVuSans-69" transform="translate(3912.417969 0)"/>
     <use xlink:href="#DejaVuSans-6e" transform="translate(3940.201172 0)"/>
     <use xlink:href="#DejaVuSans-67" transform="translate(4003.580078 0)"/>
     <use xlink:href="#DejaVuSans-2e" transform="translate(4067.056641 0)"/>
    </g>
   </g>
   <g id="patch_16">
    <path d="M 180.844453 86.4 
C 181.512765 86.4 182.153794 86.134477 182.626362 85.661909 
C 183.09893 85.189341 183.364453 84.548312 183.364453 83.88 
C 183.364453 83.211688 183.09893 82.570659 182.626362 82.098091 
C 182.153794 81.625523 181.512765 81.36 180.844453 81.36 
C 180.176141 81.36 179.535112 81.625523 179.062544 82.098091 
C 178.589976 82.570659 178.324453 83.211688 178.324453 83.88 
C 178.324453 84.548312 178.589976 85.189341 179.062544 85.661909 
C 179.535112 86.134477 180.176141 86.4 180.844453 86.4 
z
" clip-path="url(#p8aac08b0c9)" style="fill: #111111; stroke: #111111; stroke-width: 1.6; stroke-linejoin: miter"/>
   </g>
   <g id="patch_17">
    <path d="M 72.844453 86.4 
C 73.512765 86.4 74.153794 86.134477 74.626362 85.661909 
C 75.09893 85.189341 75.364453 84.548312 75.364453 83.88 
C 75.364453 83.211688 75.09893 82.570659 74.626362 82.098091 
C 74.153794 81.625523 73.512765 81.36 72.844453 81.36 
C 72.176141 81.36 71.535112 81.625523 71.062544 82.098091 
C 70.589976 82.570659 70.324453 83.211688 70.324453 83.88 
C 70.324453 84.548312 70.589976 85.189341 71.062544 85.661909 
C 71.535112 86.134477 72.176141 86.4 72.844453 86.4 
z
" clip-path="url(#p8aac08b0c9)" style="fill: #111111; stroke: #111111; stroke-width: 1.6; stroke-linejoin: miter"/>
   </g>
   <g id="patch_18">
    <path d="M 72.844453 219.6 
C 73.512765 219.6 74.153794 219.334477 74.626362 218.861909 
C 75.09893 218.389341 75.364453 217.748312 75.364453 217.08 
C 75.364453 216.411688 75.09893 215.770659 74.626362 215.298091 
C 74.153794 214.825523 73.512765 214.56 72.844453 214.56 
C 72.176141 214.56 71.535112 214.825523 71.062544 215.298091 
C 70.589976 215.770659 70.324453 216.411688 70.324453 217.08 
C 70.324453 217.748312 70.589976 218.389341 71.062544 218.861909 
C 71.535112 219.334477 72.176141 219.6 72.844453 219.6 
z
" clip-path="url(#p8aac08b0c9)" style="fill: #111111; stroke: #111111; stroke-width: 1.6; stroke-linejoin: miter"/>
   </g>
   <g id="patch_19">
    <path d="M 288.844453 86.4 
C 289.512765 86.4 290.153794 86.134477 290.626362 85.661909 
C 291.09893 85.189341 291.364453 84.548312 291.364453 83.88 
C 291.364453 83.211688 291.09893 82.570659 290.626362 82.098091 
C 290.153794 81.625523 289.512765 81.36 288.844453 81.36 
C 288.176141 81.36 287.535112 81.625523 287.062544 82.098091 
C 286.589976 82.570659 286.324453 83.211688 286.324453 83.88 
C 286.324453 84.548312 286.589976 85.189341 287.062544 85.661909 
C 287.535112 86.134477 288.176141 86.4 288.844453 86.4 
z
" clip-path="url(#p8aac08b0c9)" style="fill: #111111; stroke: #111111; stroke-width: 1.6; stroke-linejoin: miter"/>
   </g>
   <g id="patch_20">
    <path d="M 288.844453 219.6 
C 289.512765 219.6 290.153794 219.334477 290.626362 218.861909 
C 291.09893 218.389341 291.364453 217.748312 291.364453 217.08 
C 291.364453 216.411688 291.09893 215.770659 290.626362 215.298091 
C 290.153794 214.825523 289.512765 214.56 288.844453 214.56 
C 288.176141 214.56 287.535112 214.825523 287.062544 215.298091 
C 286.589976 215.770659 286.324453 216.411688 286.324453 217.08 
C 286.324453 217.748312 286.589976 218.389341 287.062544 218.861909 
C 287.535112 219.334477 288.176141 219.6 288.844453 219.6 
z
" clip-path="url(#p8aac08b0c9)" style="fill: #111111; stroke: #111111; stroke-width: 1.6; stroke-linejoin: miter"/>
   </g>
   <g id="patch_21">
    <path d="M 72.844453 219.6 
C 73.512765 219.6 74.153794 219.334477 74.626362 218.861909 
C 75.09893 218.389341 75.364453 217.748312 75.364453 217.08 
C 75.364453 216.411688 75.09893 215.770659 74.626362 215.298091 
C 74.153794 214.825523 73.512765 214.56 72.844453 214.56 
C 72.176141 214.56 71.535112 214.825523 71.062544 215.298091 
C 70.589976 215.770659 70.324453 216.411688 70.324453 217.08 
C 70.324453 217.748312 70.589976 218.389341 71.062544 218.861909 
C 71.535112 219.334477 72.176141 219.6 72.844453 219.6 
z
" clip-path="url(#p8aac08b0c9)" style="fill: #111111; stroke: #111111; stroke-width: 1.6; stroke-linejoin: miter"/>
   </g>
   <g id="text_11">
    <!-- MCC-1 -->
    <g style="fill: #111111" transform="translate(53.306016 272.23125) scale(0.12 -0.12)">
     <use xlink:href="#DejaVuSans-4d"/>
     <use xlink:href="#DejaVuSans-43" transform="translate(86.279297 0)"/>
     <use xlink:href="#DejaVuSans-43" transform="translate(156.103516 0)"/>
     <use xlink:href="#DejaVuSans-2d" transform="translate(225.927734 0)"/>
     <use xlink:href="#DejaVuSans-31" transform="translate(262.011719 0)"/>
    </g>
   </g>
   <g id="text_12">
    <!-- Bus A loads -->
    <g style="fill: #444444" transform="translate(46.660078 285.083438) scale(0.09 -0.09)">
     <defs>
      <path id="DejaVuSans-42" d="M 1259 2228 
L 1259 519 
L 2272 519 
Q 2781 519 3026 730 
Q 3272 941 3272 1375 
Q 3272 1813 3026 2020 
Q 2781 2228 2272 2228 
L 1259 2228 
z
M 1259 4147 
L 1259 2741 
L 2194 2741 
Q 2656 2741 2882 2914 
Q 3109 3088 3109 3444 
Q 3109 3797 2882 3972 
Q 2656 4147 2194 4147 
L 1259 4147 
z
M 628 4666 
L 2241 4666 
Q 2963 4666 3353 4366 
Q 3744 4066 3744 3513 
Q 3744 3084 3544 2831 
Q 3344 2578 2956 2516 
Q 3422 2416 3680 2098 
Q 3938 1781 3938 1306 
Q 3938 681 3513 340 
Q 3088 0 2303 0 
L 628 0 
L 628 4666 
z
" transform="scale(0.015625)"/>
     </defs>
     <use xlink:href="#DejaVuSans-42"/>
     <use xlink:href="#DejaVuSans-75" transform="translate(68.603516 0)"/>
     <use xlink:href="#DejaVuSans-73" transform="translate(131.982422 0)"/>
     <use xlink:href="#DejaVuSans-20" transform="translate(184.082031 0)"/>
     <use xlink:href="#DejaVuSans-41" transform="translate(215.869141 0)"/>
     <use xlink:href="#DejaVuSans-20" transform="translate(284.277344 0)"/>
     <use xlink:href="#DejaVuSans-6c" transform="translate(316.064453 0)"/>
     <use xlink:href="#DejaVuSans-6f" transform="translate(343.847656 0)"/>
     <use xlink:href="#DejaVuSans-61" transform="translate(405.029297 0)"/>
     <use xlink:href="#DejaVuSans-64" transform="translate(466.308594 0)"/>
     <use xlink:href="#DejaVuSans-73" transform="translate(529.785156 0)"/>
    </g>
   </g>
   <g id="patch_22">
    <path d="M 288.844453 219.6 
C 289.512765 219.6 290.153794 219.334477 290.626362 218.861909 
C 291.09893 218.389341 291.364453 217.748312 291.364453 217.08 
C 291.364453 216.411688 291.09893 215.770659 290.626362 215.298091 
C 290.153794 214.825523 289.512765 214.56 288.844453 214.56 
C 288.176141 214.56 287.535112 214.825523 287.062544 215.298091 
C 286.589976 215.770659 286.324453 216.411688 286.324453 217.08 
C 286.324453 217.748312 286.589976 218.389341 287.062544 218.861909 
C 287.535112 219.334477 288.176141 219.6 288.844453 219.6 
z
" clip-path="url(#p8aac08b0c9)" style="fill: #111111; stroke: #111111; stroke-width: 1.6; stroke-linejoin: miter"/>
   </g>
   <g id="text_13">
    <!-- MCC-2 -->
    <g style="fill: #111111" transform="translate(269.306016 272.23125) scale(0.12 -0.12)">
     <use xlink:href="#DejaVuSans-4d"/>
     <use xlink:href="#DejaVuSans-43" transform="translate(86.279297 0)"/>
     <use xlink:href="#DejaVuSans-43" transform="translate(156.103516 0)"/>
     <use xlink:href="#DejaVuSans-2d" transform="translate(225.927734 0)"/>
     <use xlink:href="#DejaVuSans-32" transform="translate(262.011719 0)"/>
    </g>
   </g>
   <g id="text_14">
    <!-- Bus B loads -->
    <g style="fill: #444444" transform="translate(262.650937 285.083438) scale(0.09 -0.09)">
     <use xlink:href="#DejaVuSans-42"/>
     <use xlink:href="#DejaVuSans-75" transform="translate(68.603516 0)"/>
     <use xlink:href="#DejaVuSans-73" transform="translate(131.982422 0)"/>
     <use xlink:href="#DejaVuSans-20" transform="translate(184.082031 0)"/>
     <use xlink:href="#DejaVuSans-42" transform="translate(215.869141 0)"/>
     <use xlink:href="#DejaVuSans-20" transform="translate(284.472656 0)"/>
     <use xlink:href="#DejaVuSans-6c" transform="translate(316.259766 0)"/>
     <use xlink:href="#DejaVuSans-6f" transform="translate(344.042969 0)"/>
     <use xlink:href="#DejaVuSans-61" transform="translate(405.224609 0)"/>
     <use xlink:href="#DejaVuSans-64" transform="translate(466.503906 0)"/>
     <use xlink:href="#DejaVuSans-73" transform="translate(529.980469 0)"/>
    </g>
   </g>
  </g>
 </g>
 <defs>
  <clipPath id="p8aac08b0c9">
   <rect x="3.364453" y="0" width="354.96" height="364.5"/>
  </clipPath>
 </defs>
</svg>
