<?xml version="1.0" encoding="utf-8" standalone="no"?>
<!DOCTYPE svg PUBLIC "-//W3C//DTD SVG 1.1//EN"
  "http://www.w3.org/Graphics/SVG/1.1/DTD/svg11.dtd">
<svg xmlns:xlink="http://www.w3.org/1999/xlink" width="447.264062pt" height="364.5pt" viewBox="0 0 447.264062 364.5" xmlns="http://www.w3.org/2000/svg" version="1.1">
 <metadata>
  <rdf:RDF xmlns:dc="http://purl.org/dc/elements/1.1/" xmlns:cc="http://creativecommons.org/ns#" xmlns:rdf="http://www.w3.org/1999/02/22-rdf-syntax-ns#">
   <cc:Work>
    <dc:type rdf:resource="http://purl.org/dc/dcmitype/StillImage"/>
    <dc:date>2026-06-08T10:29:50.715229</dc:date>
    <dc:format>image/svg+xml</dc:format>
    <dc:creator>
     <cc:Agent>
      <dc:title>Matplotlib v3.10.9, https://matplotlib.org/</dc:title>
     </cc:Agent>
    </dc:creator>
   </cc:Work>
  </rdf:RDF>
 </metadata>
 <defs>
  <style type="text/css">*{stroke-linejoin: round; stroke-linecap: butt}</style>
 </defs>
 <g id="figure_1">
  <g id="patch_1">
   <path d="M 0 364.5 
L 447.264062 364.5 
L 447.264062 0 
L 0 0 
L 0 364.5 
z
" style="fill: none"/>
  </g>
  <g id="axes_1">
   <g id="patch_2">
    <path d="M 220.021875 33.48 
C 223.8408 33.48 227.503825 31.962725 230.204213 29.262338 
C 232.9046 26.56195 234.421875 22.898925 234.421875 19.08 
C 234.421875 15.261075 232.9046 11.59805 230.204213 8.897662 
C 227.503825 6.197275 223.8408 4.68 220.021875 4.68 
C 216.20295 4.68 212.539925 6.197275 209.839537 8.897662 
C 207.13915 11.59805 205.621875 15.261075 205.621875 19.08 
C 205.621875 22.898925 207.13915 26.56195 209.839537 29.262338 
C 212.539925 31.962725 216.20295 33.48 220.021875 33.48 
L 220.021875 33.48 
z
" clip-path="url(#p8e4f013b4a)" style="fill: none; stroke: #111111; stroke-width: 1.6; stroke-linejoin: miter"/>
   </g>
   <g id="patch_3">
    <path d="M 112.021875 136.332 
C 115.649853 136.332 119.129728 134.890589 121.695096 132.325221 
C 124.260464 129.759853 125.701875 126.279978 125.701875 122.652 
C 125.701875 119.024022 124.260464 115.544147 121.695096 112.978779 
C 119.129728 110.413411 115.649853 108.972 112.021875 108.972 
C 108.393897 108.972 104.914022 110.413411 102.348654 112.978779 
C 99.783286 115.544147 98.341875 119.024022 98.341875 122.652 
C 98.341875 126.279978 99.783286 129.759853 102.348654 132.325221 
C 104.914022 134.890589 108.393897 136.332 112.021875 136.332 
L 112.021875 136.332 
z
" clip-path="url(#p8e4f013b4a)" style="fill: none; stroke: #111111; stroke-width: 1.6; stroke-linejoin: miter"/>
   </g>
   <g id="patch_4">
    <path d="M 112.021875 159.588 
C 115.649853 159.588 119.129728 158.146589 121.695096 155.581221 
C 124.260464 153.015853 125.701875 149.535978 125.701875 145.908 
C 125.701875 142.280022 124.260464 138.800147 121.695096 136.234779 
C 119.129728 133.669411 115.649853 132.228 112.021875 132.228 
C 108.393897 132.228 104.914022 133.669411 102.348654 136.234779 
C 99.783286 138.800147 98.341875 142.280022 98.341875 145.908 
C 98.341875 149.535978 99.783286 153.015853 102.348654 155.581221 
C 104.914022 158.146589 108.393897 159.588 112.021875 159.588 
L 112.021875 159.588 
z
" clip-path="url(#p8e4f013b4a)" style="fill: none; stroke: #111111; stroke-width: 1.6; stroke-linejoin: miter"/>
   </g>
   <g id="patch_5">
    <path d="M 328.021875 136.332 
C 331.649853 136.332 335.129728 134.890589 337.695096 132.325221 
C 340.260464 129.759853 341.701875 126.279978 341.701875 122.652 
C 341.701875 119.024022 340.260464 115.544147 337.695096 112.978779 
C 335.129728 110.413411 331.649853 108.972 328.021875 108.972 
C 324.393897 108.972 320.914022 110.413411 318.348654 112.978779 
C 315.783286 115.544147 314.341875 119.024022 314.341875 122.652 
C 314.341875 126.279978 315.783286 129.759853 318.348654 132.325221 
C 320.914022 134.890589 324.393897 136.332 328.021875 136.332 
L 328.021875 136.332 
z
" clip-path="url(#p8e4f013b4a)" style="fill: none; stroke: #111111; stroke-width: 1.6; stroke-linejoin: miter"/>
   </g>
   <g id="patch_6">
    <path d="M 328.021875 159.588 
C 331.649853 159.588 335.129728 158.146589 337.695096 155.581221 
C 340.260464 153.015853 341.701875 149.535978 341.701875 145.908 
C 341.701875 142.280022 340.260464 138.800147 337.695096 136.234779 
C 335.129728 133.669411 331.649853 132.228 328.021875 132.228 
C 324.393897 132.228 320.914022 133.669411 318.348654 136.234779 
C 315.783286 138.800147 314.341875 142.280022 314.341875 145.908 
C 314.341875 149.535978 315.783286 153.015853 318.348654 155.581221 
C 320.914022 158.146589 324.393897 159.588 328.021875 159.588 
L 328.021875 159.588 
z
" clip-path="url(#p8e4f013b4a)" style="fill: none; stroke: #111111; stroke-width: 1.6; stroke-linejoin: miter"/>
   </g>
   <g id="patch_7">
    <path d="M 112.021875 157.68 
C 118.227628 157.68 124.180044 155.214428 128.568174 150.826299 
C 132.956303 146.438169 135.421875 140.485753 135.421875 134.28 
C 135.421875 128.074247 132.956303 122.121831 128.568174 117.733701 
C 124.180044 113.345572 118.227628 110.88 112.021875 110.88 
C 105.816122 110.88 99.863706 113.345572 95.475576 117.733701 
C 91.087447 122.121831 88.621875 128.074247 88.621875 134.28 
C 88.621875 140.485753 91.087447 146.438169 95.475576 150.826299 
C 99.863706 155.214428 105.816122 157.68 112.021875 157.68 
L 112.021875 157.68 
z
" clip-path="url(#p8e4f013b4a)" style="fill: none; stroke-dasharray: 6.66,2.88; stroke-dashoffset: 0; stroke: #cc0000; stroke-width: 1.8; stroke-linejoin: miter"/>
   </g>
   <g id="patch_8">
    <path d="M 328.021875 157.68 
C 334.227628 157.68 340.180044 155.214428 344.568174 150.826299 
C 348.956303 146.438169 351.421875 140.485753 351.421875 134.28 
C 351.421875 128.074247 348.956303 122.121831 344.568174 117.733701 
C 340.180044 113.345572 334.227628 110.88 328.021875 110.88 
C 321.816122 110.88 315.863706 113.345572 311.475576 117.733701 
C 307.087447 122.121831 304.621875 128.074247 304.621875 134.28 
C 304.621875 140.485753 307.087447 146.438169 311.475576 150.826299 
C 315.863706 155.214428 321.816122 157.68 328.021875 157.68 
L 328.021875 157.68 
z
" clip-path="url(#p8e4f013b4a)" style="fill: none; stroke-dasharray: 6.66,2.88; stroke-dashoffset: 0; stroke: #cc0000; stroke-width: 1.8; stroke-linejoin: miter"/>
   </g>
   <g id="line2d_1">
    <path d="M 211.381875 19.08 
L 211.824952 19.819175 
L 212.268029 20.539206 
L 212.711106 21.221444 
L 213.154183 21.84822 
L 213.59726 22.403301 
L 214.040337 22.87231 
L 214.483413 23.2431 
L 214.92649 23.506067 
L 215.369567 23.654402 
L 215.812644 23.684263 
L 216.255721 23.594875 
L 216.698798 23.388555 
L 217.141875 23.070645 
L 217.584952 22.64938 
L 218.028029 22.135669 
L 218.471106 21.542819 
L 218.914183 20.886182 
L 219.35726 20.182767 
L 219.800337 19.45079 
L 220.243413 18.70921 
L 220.68649 17.977233 
L 221.129567 17.273818 
L 221.572644 16.617181 
L 222.015721 16.024331 
L 222.458798 15.51062 
L 222.901875 15.089355 
L 223.344952 14.771445 
L 223.788029 14.565125 
L 224.231106 14.475737 
L 224.674183 14.505598 
L 225.11726 14.653933 
L 225.560337 14.9169 
L 226.003413 15.28769 
L 226.44649 15.756699 
L 226.889567 16.31178 
L 227.332644 16.938556 
L 227.775721 17.620794 
L 228.218798 18.340825 
L 228.661875 19.08 
" clip-path="url(#p8e4f013b4a)" style="fill: none; stroke: #111111; stroke-width: 1.6; stroke-linecap: round"/>
   </g>
   <g id="line2d_2">
    <path d="M 220.021875 33.48 
L 220.021875 51.48 
" clip-path="url(#p8e4f013b4a)" style="fill: none; stroke: #111111; stroke-width: 1.6; stroke-linecap: round"/>
   </g>
   <g id="line2d_3">
    <path d="M 220.021875 47.88 
L 220.021875 40.68 
L 220.021875 33.48 
" clip-path="url(#p8e4f013b4a)" style="fill: none; stroke: #111111; stroke-width: 1.6; stroke-linecap: round"/>
   </g>
   <g id="line2d_4">
    <path d="M 220.021875 29.88 
L 220.021875 47.52 
" clip-path="url(#p8e4f013b4a)" style="fill: none; stroke: #111111; stroke-width: 1.6; stroke-linecap: round"/>
   </g>
   <g id="line2d_5">
    <path d="M 220.021875 62.64 
L 220.021875 80.28 
" clip-path="url(#p8e4f013b4a)" style="fill: none; stroke: #111111; stroke-width: 1.6; stroke-linecap: round"/>
   </g>
   <g id="line2d_6">
    <path d="M 220.021875 76.68 
L 220.021875 80.28 
L 220.021875 83.88 
" clip-path="url(#p8e4f013b4a)" style="fill: none; stroke: #111111; stroke-width: 1.6; stroke-linecap: round"/>
   </g>
   <g id="line2d_7">
    <path d="M 104.821875 83.88 
L 220.021875 83.88 
L 335.221875 83.88 
" clip-path="url(#p8e4f013b4a)" style="fill: none; stroke: #b22222; stroke-width: 6; stroke-linecap: round"/>
   </g>
   <g id="line2d_8">
    <path d="M 112.021875 83.88 
L 112.021875 91.08 
L 112.021875 98.28 
" clip-path="url(#p8e4f013b4a)" style="fill: none; stroke: #b22222; stroke-width: 1.6; stroke-linecap: round"/>
   </g>
   <g id="line2d_9">
    <path d="M 112.021875 90.972 
L 112.021875 108.972 
" clip-path="url(#p8e4f013b4a)" style="fill: none; stroke: #111111; stroke-width: 1.6; stroke-linecap: round"/>
   </g>
   <g id="line2d_10">
    <path d="M 112.021875 159.588 
L 112.021875 177.588 
" clip-path="url(#p8e4f013b4a)" style="fill: none; stroke: #111111; stroke-width: 1.6; stroke-linecap: round"/>
   </g>
   <g id="line2d_11">
    <path d="M 112.021875 170.28 
L 112.021875 166.68 
L 112.021875 163.08 
" clip-path="url(#p8e4f013b4a)" style="fill: none; stroke: #111111; stroke-width: 1.6; stroke-linecap: round"/>
   </g>
   <g id="line2d_12">
    <path d="M 112.021875 159.48 
L 112.021875 177.12 
" clip-path="url(#p8e4f013b4a)" style="fill: none; stroke: #111111; stroke-width: 1.6; stroke-linecap: round"/>
   </g>
   <g id="line2d_13">
    <path d="M 112.021875 192.24 
L 112.021875 209.88 
" clip-path="url(#p8e4f013b4a)" style="fill: none; stroke: #111111; stroke-width: 1.6; stroke-linecap: round"/>
   </g>
   <g id="line2d_14">
    <path d="M 112.021875 206.28 
L 112.021875 211.68 
L 112.021875 217.08 
" clip-path="url(#p8e4f013b4a)" style="fill: none; stroke: #111111; stroke-width: 1.6; stroke-linecap: round"/>
   </g>
   <g id="line2d_15">
    <path d="M 328.021875 83.88 
L 328.021875 91.08 
L 328.021875 98.28 
" clip-path="url(#p8e4f013b4a)" style="fill: none; stroke: #b22222; stroke-width: 1.6; stroke-linecap: round"/>
   </g>
   <g id="line2d_16">
    <path d="M 328.021875 90.972 
L 328.021875 108.972 
" clip-path="url(#p8e4f013b4a)" style="fill: none; stroke: #111111; stroke-width: 1.6; stroke-linecap: round"/>
   </g>
   <g id="line2d_17">
    <path d="M 328.021875 159.588 
L 328.021875 177.588 
" clip-path="url(#p8e4f013b4a)" style="fill: none; stroke: #111111; stroke-width: 1.6; stroke-linecap: round"/>
   </g>
   <g id="line2d_18">
    <path d="M 328.021875 170.28 
L 328.021875 166.68 
L 328.021875 163.08 
" clip-path="url(#p8e4f013b4a)" style="fill: none; stroke: #111111; stroke-width: 1.6; stroke-linecap: round"/>
   </g>
   <g id="line2d_19">
    <path d="M 328.021875 159.48 
L 328.021875 177.12 
" clip-path="url(#p8e4f013b4a)" style="fill: none; stroke: #111111; stroke-width: 1.6; stroke-linecap: round"/>
   </g>
   <g id="line2d_20">
    <path d="M 328.021875 192.24 
L 328.021875 209.88 
" clip-path="url(#p8e4f013b4a)" style="fill: none; stroke: #111111; stroke-width: 1.6; stroke-linecap: round"/>
   </g>
   <g id="line2d_21">
    <path d="M 328.021875 206.28 
L 328.021875 211.68 
L 328.021875 217.08 
" clip-path="url(#p8e4f013b4a)" style="fill: none; stroke: #111111; stroke-width: 1.6; stroke-linecap: round"/>
   </g>
   <g id="line2d_22">
    <path d="M 47.221875 217.08 
L 112.021875 217.08 
L 176.821875 217.08 
" clip-path="url(#p8e4f013b4a)" style="fill: none; stroke: #11457e; stroke-width: 6; stroke-linecap: round"/>
   </g>
   <g id="line2d_23">
    <path d="M 263.221875 217.08 
L 328.021875 217.08 
L 392.821875 217.08 
" clip-path="url(#p8e4f013b4a)" style="fill: none; stroke: #11457e; stroke-width: 6; stroke-linecap: round"/>
   </g>
   <g id="line2d_24">
    <path d="M 112.021875 217.08 
L 112.021875 226.98 
L 112.021875 236.88 
" clip-path="url(#p8e4f013b4a)" style="fill: none; stroke: #11457e; stroke-width: 1.6; stroke-linecap: round"/>
   </g>
   <g id="line2d_25">
    <path d="M 112.021875 229.68 
L 112.021875 247.32 
" clip-path="url(#p8e4f013b4a)" style="fill: none; stroke: #111111; stroke-width: 1.6; stroke-linecap: round"/>
   </g>
   <g id="line2d_26">
    <path d="M 112.021875 262.44 
L 112.021875 280.08 
" clip-path="url(#p8e4f013b4a)" style="fill: none; stroke: #111111; stroke-width: 1.6; stroke-linecap: round"/>
   </g>
   <g id="patch_9">
    <path d="M 81.421875 292.68 
L 142.621875 292.68 
L 142.621875 256.68 
L 81.421875 256.68 
z
" clip-path="url(#p8e4f013b4a)" style="fill: #eef2f7; stroke: #111111; stroke-width: 1.6; stroke-linecap: round"/>
   </g>
   <g id="line2d_27">
    <path d="M 328.021875 217.08 
L 328.021875 226.98 
L 328.021875 236.88 
" clip-path="url(#p8e4f013b4a)" style="fill: none; stroke: #11457e; stroke-width: 1.6; stroke-linecap: round"/>
   </g>
   <g id="line2d_28">
    <path d="M 328.021875 229.68 
L 328.021875 247.32 
" clip-path="url(#p8e4f013b4a)" style="fill: none; stroke: #111111; stroke-width: 1.6; stroke-linecap: round"/>
   </g>
   <g id="line2d_29">
    <path d="M 328.021875 262.44 
L 328.021875 280.08 
" clip-path="url(#p8e4f013b4a)" style="fill: none; stroke: #111111; stroke-width: 1.6; stroke-linecap: round"/>
   </g>
   <g id="patch_10">
    <path d="M 297.421875 292.68 
L 358.621875 292.68 
L 358.621875 256.68 
L 297.421875 256.68 
z
" clip-path="url(#p8e4f013b4a)" style="fill: #eef2f7; stroke: #111111; stroke-width: 1.6; stroke-linecap: round"/>
   </g>
   <g id="text_1">
    <!-- 11 kV -->
    <g style="fill: #555555" transform="translate(241.621875 17.963437) scale(0.09 -0.09)">
     <defs>
      <path id="DejaVuSans-31" d="M 794 531 
L 1825 531 
L 1825 4091 
L 703 3866 
L 703 4441 
L 1819 4666 
L 2450 4666 
L 2450 531 
L 3481 531 
L 3481 0 
L 794 0 
L 794 531 
z
" transform="scale(0.015625)"/>
      <path id="DejaVuSans-20" transform="scale(0.015625)"/>
      <path id="DejaVuSans-6b" d="M 581 4863 
L 1159 4863 
L 1159 1991 
L 2875 3500 
L 3609 3500 
L 1753 1863 
L 3688 0 
L 2938 0 
L 1159 1709 
L 1159 0 
L 581 0 
L 581 4863 
z
" transform="scale(0.015625)"/>
      <path id="DejaVuSans-56" d="M 1831 0 
L 50 4666 
L 709 4666 
L 2188 738 
L 3669 4666 
L 4325 4666 
L 2547 0 
L 1831 0 
z
" transform="scale(0.015625)"/>
     </defs>
     <use xlink:href="#DejaVuSans-31"/>
     <use xlink:href="#DejaVuSans-31" transform="translate(63.623047 0)"/>
     <use xlink:href="#DejaVuSans-20" transform="translate(127.246094 0)"/>
     <use xlink:href="#DejaVuSans-6b" transform="translate(159.033203 0)"/>
     <use xlink:href="#DejaVuSans-56" transform="translate(216.943359 0)"/>
    </g>
   </g>
   <g id="patch_11">
    <path d="M 212.461875 62.64 
L 227.581875 62.64 
L 227.581875 47.52 
L 212.461875 47.52 
z
" clip-path="url(#p8e4f013b4a)" style="fill: #111111; stroke: #111111; stroke-width: 1.6; stroke-linecap: round"/>
   </g>
   <g id="text_2">
    <!-- 52-I -->
    <g style="fill: #111111" transform="translate(226.501875 52.163438) scale(0.09 -0.09)">
     <defs>
      <path id="DejaVuSans-35" d="M 691 4666 
L 3169 4666 
L 3169 4134 
L 1269 4134 
L 1269 2991 
Q 1406 3038 1543 3061 
Q 1681 3084 1819 3084 
Q 2600 3084 3056 2656 
Q 3513 2228 3513 1497 
Q 3513 744 3044 326 
Q 2575 -91 1722 -91 
Q 1428 -91 1123 -41 
Q 819 9 494 109 
L 494 744 
Q 775 591 1075 516 
Q 1375 441 1709 441 
Q 2250 441 2565 725 
Q 2881 1009 2881 1497 
Q 2881 1984 2565 2268 
Q 2250 2553 1709 2553 
Q 1456 2553 1204 2497 
Q 953 2441 691 2322 
L 691 4666 
z
" transform="scale(0.015625)"/>
      <path id="DejaVuSans-32" d="M 1228 531 
L 3431 531 
L 3431 0 
L 469 0 
L 469 531 
Q 828 903 1448 1529 
Q 2069 2156 2228 2338 
Q 2531 2678 2651 2914 
Q 2772 3150 2772 3378 
Q 2772 3750 2511 3984 
Q 2250 4219 1831 4219 
Q 1534 4219 1204 4116 
Q 875 4013 500 3803 
L 500 4441 
Q 881 4594 1212 4672 
Q 1544 4750 1819 4750 
Q 2544 4750 2975 4387 
Q 3406 4025 3406 3419 
Q 3406 3131 3298 2873 
Q 3191 2616 2906 2266 
Q 2828 2175 2409 1742 
Q 1991 1309 1228 531 
z
" transform="scale(0.015625)"/>
      <path id="DejaVuSans-2d" d="M 313 2009 
L 1997 2009 
L 1997 1497 
L 313 1497 
L 313 2009 
z
" transform="scale(0.015625)"/>
      <path id="DejaVuSans-49" d="M 628 4666 
L 1259 4666 
L 1259 0 
L 628 0 
L 628 4666 
z
" transform="scale(0.015625)"/>
     </defs>
     <use xlink:href="#DejaVuSans-35"/>
     <use xlink:href="#DejaVuSans-32" transform="translate(63.623047 0)"/>
     <use xlink:href="#DejaVuSans-2d" transform="translate(127.246094 0)"/>
     <use xlink:href="#DejaVuSans-49" transform="translate(163.330078 0)"/>
    </g>
   </g>
   <g id="text_3">
    <!-- TX-1 -->
    <g style="fill: #111111" transform="translate(133.621875 136.319375) scale(0.1 -0.1)">
     <defs>
      <path id="DejaVuSans-54" d="M -19 4666 
L 3928 4666 
L 3928 4134 
L 2272 4134 
L 2272 0 
L 1638 0 
L 1638 4134 
L -19 4134 
L -19 4666 
z
" transform="scale(0.015625)"/>
      <path id="DejaVuSans-58" d="M 403 4666 
L 1081 4666 
L 2241 2931 
L 3406 4666 
L 4084 4666 
L 2584 2425 
L 4184 0 
L 3506 0 
L 2194 1984 
L 872 0 
L 191 0 
L 1856 2491 
L 403 4666 
z
" transform="scale(0.015625)"/>
     </defs>
     <use xlink:href="#DejaVuSans-54"/>
     <use xlink:href="#DejaVuSans-58" transform="translate(61.083984 0)"/>
     <use xlink:href="#DejaVuSans-2d" transform="translate(124.589844 0)"/>
     <use xlink:href="#DejaVuSans-31" transform="translate(160.673828 0)"/>
    </g>
   </g>
   <g id="text_4">
    <!-- 1600 kVA -->
    <g style="fill: #555555" transform="translate(133.621875 145.8475) scale(0.08 -0.08)">
     <defs>
      <path id="DejaVuSans-36" d="M 2113 2584 
Q 1688 2584 1439 2293 
Q 1191 2003 1191 1497 
Q 1191 994 1439 701 
Q 1688 409 2113 409 
Q 2538 409 2786 701 
Q 3034 994 3034 1497 
Q 3034 2003 2786 2293 
Q 2538 2584 2113 2584 
z
M 3366 4563 
L 3366 3988 
Q 3128 4100 2886 4159 
Q 2644 4219 2406 4219 
Q 1781 4219 1451 3797 
Q 1122 3375 1075 2522 
Q 1259 2794 1537 2939 
Q 1816 3084 2150 3084 
Q 2853 3084 3261 2657 
Q 3669 2231 3669 1497 
Q 3669 778 3244 343 
Q 2819 -91 2113 -91 
Q 1303 -91 875 529 
Q 447 1150 447 2328 
Q 447 3434 972 4092 
Q 1497 4750 2381 4750 
Q 2619 4750 2861 4703 
Q 3103 4656 3366 4563 
z
" transform="scale(0.015625)"/>
      <path id="DejaVuSans-30" d="M 2034 4250 
Q 1547 4250 1301 3770 
Q 1056 3291 1056 2328 
Q 1056 1369 1301 889 
Q 1547 409 2034 409 
Q 2525 409 2770 889 
Q 3016 1369 3016 2328 
Q 3016 3291 2770 3770 
Q 2525 4250 2034 4250 
z
M 2034 4750 
Q 2819 4750 3233 4129 
Q 3647 3509 3647 2328 
Q 3647 1150 3233 529 
Q 2819 -91 2034 -91 
Q 1250 -91 836 529 
Q 422 1150 422 2328 
Q 422 3509 836 4129 
Q 1250 4750 2034 4750 
z
" transform="scale(0.015625)"/>
      <path id="DejaVuSans-41" d="M 2188 4044 
L 1331 1722 
L 3047 1722 
L 2188 4044 
z
M 1831 4666 
L 2547 4666 
L 4325 0 
L 3669 0 
L 3244 1197 
L 1141 1197 
L 716 0 
L 50 0 
L 1831 4666 
z
" transform="scale(0.015625)"/>
     </defs>
     <use xlink:href="#DejaVuSans-31"/>
     <use xlink:href="#DejaVuSans-36" transform="translate(63.623047 0)"/>
     <use xlink:href="#DejaVuSans-30" transform="translate(127.246094 0)"/>
     <use xlink:href="#DejaVuSans-30" transform="translate(190.869141 0)"/>
     <use xlink:href="#DejaVuSans-20" transform="translate(254.492188 0)"/>
     <use xlink:href="#DejaVuSans-6b" transform="translate(286.279297 0)"/>
     <use xlink:href="#DejaVuSans-56" transform="translate(344.189453 0)"/>
     <use xlink:href="#DejaVuSans-41" transform="translate(406.222656 0)"/>
    </g>
   </g>
   <g id="patch_12">
    <path d="M 104.461875 192.24 
L 119.581875 192.24 
L 119.581875 177.12 
L 104.461875 177.12 
z
" clip-path="url(#p8e4f013b4a)" style="fill: #111111; stroke: #111111; stroke-width: 1.6; stroke-linecap: round"/>
   </g>
   <g id="text_5">
    <!-- TX-2 -->
    <g style="fill: #111111" transform="translate(349.621875 136.319375) scale(0.1 -0.1)">
     <use xlink:href="#DejaVuSans-54"/>
     <use xlink:href="#DejaVuSans-58" transform="translate(61.083984 0)"/>
     <use xlink:href="#DejaVuSans-2d" transform="translate(124.589844 0)"/>
     <use xlink:href="#DejaVuSans-32" transform="translate(160.673828 0)"/>
    </g>
   </g>
   <g id="text_6">
    <!-- 1600 kVA -->
    <g style="fill: #555555" transform="translate(349.621875 145.8475) scale(0.08 -0.08)">
     <use xlink:href="#DejaVuSans-31"/>
     <use xlink:href="#DejaVuSans-36" transform="translate(63.623047 0)"/>
     <use xlink:href="#DejaVuSans-30" transform="translate(127.246094 0)"/>
     <use xlink:href="#DejaVuSans-30" transform="translate(190.869141 0)"/>
     <use xlink:href="#DejaVuSans-20" transform="translate(254.492188 0)"/>
     <use xlink:href="#DejaVuSans-6b" transform="translate(286.279297 0)"/>
     <use xlink:href="#DejaVuSans-56" transform="translate(344.189453 0)"/>
     <use xlink:href="#DejaVuSans-41" transform="translate(406.222656 0)"/>
    </g>
   </g>
   <g id="patch_13">
    <path d="M 320.461875 192.24 
L 335.581875 192.24 
L 335.581875 177.12 
L 320.461875 177.12 
z
" clip-path="url(#p8e4f013b4a)" style="fill: #111111; stroke: #111111; stroke-width: 1.6; stroke-linecap: round"/>
   </g>
   <g id="text_7">
    <!-- Bus A -->
    <g style="fill: #11457e" transform="translate(50.821875 230.363438) scale(0.09 -0.09)">
     <defs>
      <path id="DejaVuSans-42" d="M 1259 2228 
L 1259 519 
L 2272 519 
Q 2781 519 3026 730 
Q 3272 941 3272 1375 
Q 3272 1813 3026 2020 
Q 2781 2228 2272 2228 
L 1259 2228 
z
M 1259 4147 
L 1259 2741 
L 2194 2741 
Q 2656 2741 2882 2914 
Q 3109 3088 3109 3444 
Q 3109 3797 2882 3972 
Q 2656 4147 2194 4147 
L 1259 4147 
z
M 628 4666 
L 2241 4666 
Q 2963 4666 3353 4366 
Q 3744 4066 3744 3513 
Q 3744 3084 3544 2831 
Q 3344 2578 2956 2516 
Q 3422 2416 3680 2098 
Q 3938 1781 3938 1306 
Q 3938 681 3513 340 
Q 3088 0 2303 0 
L 628 0 
L 628 4666 
z
" transform="scale(0.015625)"/>
      <path id="DejaVuSans-75" d="M 544 1381 
L 544 3500 
L 1119 3500 
L 1119 1403 
Q 1119 906 1312 657 
Q 1506 409 1894 409 
Q 2359 409 2629 706 
Q 2900 1003 2900 1516 
L 2900 3500 
L 3475 3500 
L 3475 0 
L 2900 0 
L 2900 538 
Q 2691 219 2414 64 
Q 2138 -91 1772 -91 
Q 1169 -91 856 284 
Q 544 659 544 1381 
z
M 1991 3584 
L 1991 3584 
z
" transform="scale(0.015625)"/>
      <path id="DejaVuSans-73" d="M 2834 3397 
L 2834 2853 
Q 2591 2978 2328 3040 
Q 2066 3103 1784 3103 
Q 1356 3103 1142 2972 
Q 928 2841 928 2578 
Q 928 2378 1081 2264 
Q 1234 2150 1697 2047 
L 1894 2003 
Q 2506 1872 2764 1633 
Q 3022 1394 3022 966 
Q 3022 478 2636 193 
Q 2250 -91 1575 -91 
Q 1294 -91 989 -36 
Q 684 19 347 128 
L 347 722 
Q 666 556 975 473 
Q 1284 391 1588 391 
Q 1994 391 2212 530 
Q 2431 669 2431 922 
Q 2431 1156 2273 1281 
Q 2116 1406 1581 1522 
L 1381 1569 
Q 847 1681 609 1914 
Q 372 2147 372 2553 
Q 372 3047 722 3315 
Q 1072 3584 1716 3584 
Q 2034 3584 2315 3537 
Q 2597 3491 2834 3397 
z
" transform="scale(0.015625)"/>
     </defs>
     <use xlink:href="#DejaVuSans-42"/>
     <use xlink:href="#DejaVuSans-75" transform="translate(68.603516 0)"/>
     <use xlink:href="#DejaVuSans-73" transform="translate(131.982422 0)"/>
     <use xlink:href="#DejaVuSans-20" transform="translate(184.082031 0)"/>
     <use xlink:href="#DejaVuSans-41" transform="translate(215.869141 0)"/>
    </g>
   </g>
   <g id="text_8">
    <!-- Bus B -->
    <g style="fill: #11457e" transform="translate(370.819687 230.363438) scale(0.09 -0.09)">
     <use xlink:href="#DejaVuSans-42"/>
     <use xlink:href="#DejaVuSans-75" transform="translate(68.603516 0)"/>
     <use xlink:href="#DejaVuSans-73" transform="translate(131.982422 0)"/>
     <use xlink:href="#DejaVuSans-20" transform="translate(184.082031 0)"/>
     <use xlink:href="#DejaVuSans-42" transform="translate(215.869141 0)"/>
    </g>
   </g>
   <g id="patch_14">
    <path d="M 104.461875 262.44 
L 119.581875 262.44 
L 119.581875 247.32 
L 104.461875 247.32 
z
" clip-path="url(#p8e4f013b4a)" style="fill: #111111; stroke: #111111; stroke-width: 1.6; stroke-linecap: round"/>
   </g>
   <g id="patch_15">
    <path d="M 320.461875 262.44 
L 335.581875 262.44 
L 335.581875 247.32 
L 320.461875 247.32 
z
" clip-path="url(#p8e4f013b4a)" style="fill: #111111; stroke: #111111; stroke-width: 1.6; stroke-linecap: round"/>
   </g>
   <g id="text_9">
    <!-- NO TIE -->
    <g style="fill: #cc0000" transform="translate(206.667969 223.439375) scale(0.1 -0.1)">
     <defs>
      <path id="DejaVuSans-4e" d="M 628 4666 
L 1478 4666 
L 3547 763 
L 3547 4666 
L 4159 4666 
L 4159 0 
L 3309 0 
L 1241 3903 
L 1241 0 
L 628 0 
L 628 4666 
z
" transform="scale(0.015625)"/>
      <path id="DejaVuSans-4f" d="M 2522 4238 
Q 1834 4238 1429 3725 
Q 1025 3213 1025 2328 
Q 1025 1447 1429 934 
Q 1834 422 2522 422 
Q 3209 422 3611 934 
Q 4013 1447 4013 2328 
Q 4013 3213 3611 3725 
Q 3209 4238 2522 4238 
z
M 2522 4750 
Q 3503 4750 4090 4092 
Q 4678 3434 4678 2328 
Q 4678 1225 4090 567 
Q 3503 -91 2522 -91 
Q 1538 -91 948 565 
Q 359 1222 359 2328 
Q 359 3434 948 4092 
Q 1538 4750 2522 4750 
z
" transform="scale(0.015625)"/>
      <path id="DejaVuSans-45" d="M 628 4666 
L 3578 4666 
L 3578 4134 
L 1259 4134 
L 1259 2753 
L 3481 2753 
L 3481 2222 
L 1259 2222 
L 1259 531 
L 3634 531 
L 3634 0 
L 628 0 
L 628 4666 
z
" transform="scale(0.015625)"/>
     </defs>
     <use xlink:href="#DejaVuSans-4e"/>
     <use xlink:href="#DejaVuSans-4f" transform="translate(74.804688 0)"/>
     <use xlink:href="#DejaVuSans-20" transform="translate(153.515625 0)"/>
     <use xlink:href="#DejaVuSans-54" transform="translate(185.302734 0)"/>
     <use xlink:href="#DejaVuSans-49" transform="translate(246.386719 0)"/>
     <use xlink:href="#DejaVuSans-45" transform="translate(275.878906 0)"/>
    </g>
   </g>
   <g id="text_10">
    <!-- lose TX-1 -->
    <g style="fill: #cc0000" transform="translate(17.55625 135.800312) scale(0.1 -0.1)">
     <defs>
      <path id="DejaVuSans-6c" d="M 603 4863 
L 1178 4863 
L 1178 0 
L 603 0 
L 603 4863 
z
" transform="scale(0.015625)"/>
      <path id="DejaVuSans-6f" d="M 1959 3097 
Q 1497 3097 1228 2736 
Q 959 2375 959 1747 
Q 959 1119 1226 758 
Q 1494 397 1959 397 
Q 2419 397 2687 759 
Q 2956 1122 2956 1747 
Q 2956 2369 2687 2733 
Q 2419 3097 1959 3097 
z
M 1959 3584 
Q 2709 3584 3137 3096 
Q 3566 2609 3566 1747 
Q 3566 888 3137 398 
Q 2709 -91 1959 -91 
Q 1206 -91 779 398 
Q 353 888 353 1747 
Q 353 2609 779 3096 
Q 1206 3584 1959 3584 
z
" transform="scale(0.015625)"/>
      <path id="DejaVuSans-65" d="M 3597 1894 
L 3597 1613 
L 953 1613 
Q 991 1019 1311 708 
Q 1631 397 2203 397 
Q 2534 397 2845 478 
Q 3156 559 3463 722 
L 3463 178 
Q 3153 47 2828 -22 
Q 2503 -91 2169 -91 
Q 1331 -91 842 396 
Q 353 884 353 1716 
Q 353 2575 817 3079 
Q 1281 3584 2069 3584 
Q 2775 3584 3186 3129 
Q 3597 2675 3597 1894 
z
M 3022 2063 
Q 3016 2534 2758 2815 
Q 2500 3097 2075 3097 
Q 1594 3097 1305 2825 
Q 1016 2553 972 2059 
L 3022 2063 
z
" transform="scale(0.015625)"/>
     </defs>
     <use xlink:href="#DejaVuSans-6c"/>
     <use xlink:href="#DejaVuSans-6f" transform="translate(27.783203 0)"/>
     <use xlink:href="#DejaVuSans-73" transform="translate(88.964844 0)"/>
     <use xlink:href="#DejaVuSans-65" transform="translate(141.064453 0)"/>
     <use xlink:href="#DejaVuSans-20" transform="translate(202.587891 0)"/>
     <use xlink:href="#DejaVuSans-54" transform="translate(234.375 0)"/>
     <use xlink:href="#DejaVuSans-58" transform="translate(295.458984 0)"/>
     <use xlink:href="#DejaVuSans-2d" transform="translate(358.964844 0)"/>
     <use xlink:href="#DejaVuSans-31" transform="translate(395.048828 0)"/>
    </g>
    <!-- = lose Bus A -->
    <g style="fill: #cc0000" transform="translate(0 145.478437) scale(0.1 -0.1)">
     <defs>
      <path id="DejaVuSans-3d" d="M 678 2906 
L 4684 2906 
L 4684 2381 
L 678 2381 
L 678 2906 
z
M 678 1631 
L 4684 1631 
L 4684 1100 
L 678 1100 
L 678 1631 
z
" transform="scale(0.015625)"/>
     </defs>
     <use xlink:href="#DejaVuSans-3d"/>
     <use xlink:href="#DejaVuSans-20" transform="translate(83.789062 0)"/>
     <use xlink:href="#DejaVuSans-6c" transform="translate(115.576172 0)"/>
     <use xlink:href="#DejaVuSans-6f" transform="translate(143.359375 0)"/>
     <use xlink:href="#DejaVuSans-73" transform="translate(204.541016 0)"/>
     <use xlink:href="#DejaVuSans-65" transform="translate(256.640625 0)"/>
     <use xlink:href="#DejaVuSans-20" transform="translate(318.164062 0)"/>
     <use xlink:href="#DejaVuSans-42" transform="translate(349.951172 0)"/>
     <use xlink:href="#DejaVuSans-75" transform="translate(418.554688 0)"/>
     <use xlink:href="#DejaVuSans-73" transform="translate(481.933594 0)"/>
     <use xlink:href="#DejaVuSans-20" transform="translate(534.033203 0)"/>
     <use xlink:href="#DejaVuSans-41" transform="translate(565.820312 0)"/>
    </g>
   </g>
   <g id="text_11">
    <!-- lose TX-2 -->
    <g style="fill: #cc0000" transform="translate(383.821875 135.800312) scale(0.1 -0.1)">
     <use xlink:href="#DejaVuSans-6c"/>
     <use xlink:href="#DejaVuSans-6f" transform="translate(27.783203 0)"/>
     <use xlink:href="#DejaVuSans-73" transform="translate(88.964844 0)"/>
     <use xlink:href="#DejaVuSans-65" transform="translate(141.064453 0)"/>
     <use xlink:href="#DejaVuSans-20" transform="translate(202.587891 0)"/>
     <use xlink:href="#DejaVuSans-54" transform="translate(234.375 0)"/>
     <use xlink:href="#DejaVuSans-58" transform="translate(295.458984 0)"/>
     <use xlink:href="#DejaVuSans-2d" transform="translate(358.964844 0)"/>
     <use xlink:href="#DejaVuSans-32" transform="translate(395.048828 0)"/>
    </g>
    <!-- = lose Bus B -->
    <g style="fill: #cc0000" transform="translate(383.821875 145.478437) scale(0.1 -0.1)">
     <use xlink:href="#DejaVuSans-3d"/>
     <use xlink:href="#DejaVuSans-20" transform="translate(83.789062 0)"/>
     <use xlink:href="#DejaVuSans-6c" transform="translate(115.576172 0)"/>
     <use xlink:href="#DejaVuSans-6f" transform="translate(143.359375 0)"/>
     <use xlink:href="#DejaVuSans-73" transform="translate(204.541016 0)"/>
     <use xlink:href="#DejaVuSans-65" transform="translate(256.640625 0)"/>
     <use xlink:href="#DejaVuSans-20" transform="translate(318.164062 0)"/>
     <use xlink:href="#DejaVuSans-42" transform="translate(349.951172 0)"/>
     <use xlink:href="#DejaVuSans-75" transform="translate(418.554688 0)"/>
     <use xlink:href="#DejaVuSans-73" transform="translate(481.933594 0)"/>
     <use xlink:href="#DejaVuSans-20" transform="translate(534.033203 0)"/>
     <use xlink:href="#DejaVuSans-42" transform="translate(565.820312 0)"/>
    </g>
   </g>
   <g id="text_12">
    <!-- SPOF-B  -  Two transformers, no bus-tie -->
    <g style="fill: #111111" transform="translate(106.500938 346.39125) scale(0.12 -0.12)">
     <defs>
      <path id="DejaVuSans-53" d="M 3425 4513 
L 3425 3897 
Q 3066 4069 2747 4153 
Q 2428 4238 2131 4238 
Q 1616 4238 1336 4038 
Q 1056 3838 1056 3469 
Q 1056 3159 1242 3001 
Q 1428 2844 1947 2747 
L 2328 2669 
Q 3034 2534 3370 2195 
Q 3706 1856 3706 1288 
Q 3706 609 3251 259 
Q 2797 -91 1919 -91 
Q 1588 -91 1214 -16 
Q 841 59 441 206 
L 441 856 
Q 825 641 1194 531 
Q 1563 422 1919 422 
Q 2459 422 2753 634 
Q 3047 847 3047 1241 
Q 3047 1584 2836 1778 
Q 2625 1972 2144 2069 
L 1759 2144 
Q 1053 2284 737 2584 
Q 422 2884 422 3419 
Q 422 4038 858 4394 
Q 1294 4750 2059 4750 
Q 2388 4750 2728 4690 
Q 3069 4631 3425 4513 
z
" transform="scale(0.015625)"/>
      <path id="DejaVuSans-50" d="M 1259 4147 
L 1259 2394 
L 2053 2394 
Q 2494 2394 2734 2622 
Q 2975 2850 2975 3272 
Q 2975 3691 2734 3919 
Q 2494 4147 2053 4147 
L 1259 4147 
z
M 628 4666 
L 2053 4666 
Q 2838 4666 3239 4311 
Q 3641 3956 3641 3272 
Q 3641 2581 3239 2228 
Q 2838 1875 2053 1875 
L 1259 1875 
L 1259 0 
L 628 0 
L 628 4666 
z
" transform="scale(0.015625)"/>
      <path id="DejaVuSans-46" d="M 628 4666 
L 3309 4666 
L 3309 4134 
L 1259 4134 
L 1259 2759 
L 3109 2759 
L 3109 2228 
L 1259 2228 
L 1259 0 
L 628 0 
L 628 4666 
z
" transform="scale(0.015625)"/>
      <path id="DejaVuSans-77" d="M 269 3500 
L 844 3500 
L 1563 769 
L 2278 3500 
L 2956 3500 
L 3675 769 
L 4391 3500 
L 4966 3500 
L 4050 0 
L 3372 0 
L 2619 2869 
L 1863 0 
L 1184 0 
L 269 3500 
z
" transform="scale(0.015625)"/>
      <path id="DejaVuSans-74" d="M 1172 4494 
L 1172 3500 
L 2356 3500 
L 2356 3053 
L 1172 3053 
L 1172 1153 
Q 1172 725 1289 603 
Q 1406 481 1766 481 
L 2356 481 
L 2356 0 
L 1766 0 
Q 1100 0 847 248 
Q 594 497 594 1153 
L 594 3053 
L 172 3053 
L 172 3500 
L 594 3500 
L 594 4494 
L 1172 4494 
z
" transform="scale(0.015625)"/>
      <path id="DejaVuSans-72" d="M 2631 2963 
Q 2534 3019 2420 3045 
Q 2306 3072 2169 3072 
Q 1681 3072 1420 2755 
Q 1159 2438 1159 1844 
L 1159 0 
L 581 0 
L 581 3500 
L 1159 3500 
L 1159 2956 
Q 1341 3275 1631 3429 
Q 1922 3584 2338 3584 
Q 2397 3584 2469 3576 
Q 2541 3569 2628 3553 
L 2631 2963 
z
" transform="scale(0.015625)"/>
      <path id="DejaVuSans-61" d="M 2194 1759 
Q 1497 1759 1228 1600 
Q 959 1441 959 1056 
Q 959 750 1161 570 
Q 1363 391 1709 391 
Q 2188 391 2477 730 
Q 2766 1069 2766 1631 
L 2766 1759 
L 2194 1759 
z
M 3341 1997 
L 3341 0 
L 2766 0 
L 2766 531 
Q 2569 213 2275 61 
Q 1981 -91 1556 -91 
Q 1019 -91 701 211 
Q 384 513 384 1019 
Q 384 1609 779 1909 
Q 1175 2209 1959 2209 
L 2766 2209 
L 2766 2266 
Q 2766 2663 2505 2880 
Q 2244 3097 1772 3097 
Q 1472 3097 1187 3025 
Q 903 2953 641 2809 
L 641 3341 
Q 956 3463 1253 3523 
Q 1550 3584 1831 3584 
Q 2591 3584 2966 3190 
Q 3341 2797 3341 1997 
z
" transform="scale(0.015625)"/>
      <path id="DejaVuSans-6e" d="M 3513 2113 
L 3513 0 
L 2938 0 
L 2938 2094 
Q 2938 2591 2744 2837 
Q 2550 3084 2163 3084 
Q 1697 3084 1428 2787 
Q 1159 2491 1159 1978 
L 1159 0 
L 581 0 
L 581 3500 
L 1159 3500 
L 1159 2956 
Q 1366 3272 1645 3428 
Q 1925 3584 2291 3584 
Q 2894 3584 3203 3211 
Q 3513 2838 3513 2113 
z
" transform="scale(0.015625)"/>
      <path id="DejaVuSans-66" d="M 2375 4863 
L 2375 4384 
L 1825 4384 
Q 1516 4384 1395 4259 
Q 1275 4134 1275 3809 
L 1275 3500 
L 2222 3500 
L 2222 3053 
L 1275 3053 
L 1275 0 
L 697 0 
L 697 3053 
L 147 3053 
L 147 3500 
L 697 3500 
L 697 3744 
Q 697 4328 969 4595 
Q 1241 4863 1831 4863 
L 2375 4863 
z
" transform="scale(0.015625)"/>
      <path id="DejaVuSans-6d" d="M 3328 2828 
Q 3544 3216 3844 3400 
Q 4144 3584 4550 3584 
Q 5097 3584 5394 3201 
Q 5691 2819 5691 2113 
L 5691 0 
L 5113 0 
L 5113 2094 
Q 5113 2597 4934 2840 
Q 4756 3084 4391 3084 
Q 3944 3084 3684 2787 
Q 3425 2491 3425 1978 
L 3425 0 
L 2847 0 
L 2847 2094 
Q 2847 2600 2669 2842 
Q 2491 3084 2119 3084 
Q 1678 3084 1418 2786 
Q 1159 2488 1159 1978 
L 1159 0 
L 581 0 
L 581 3500 
L 1159 3500 
L 1159 2956 
Q 1356 3278 1631 3431 
Q 1906 3584 2284 3584 
Q 2666 3584 2933 3390 
Q 3200 3197 3328 2828 
z
" transform="scale(0.015625)"/>
      <path id="DejaVuSans-2c" d="M 750 794 
L 1409 794 
L 1409 256 
L 897 -744 
L 494 -744 
L 750 256 
L 750 794 
z
" transform="scale(0.015625)"/>
      <path id="DejaVuSans-62" d="M 3116 1747 
Q 3116 2381 2855 2742 
Q 2594 3103 2138 3103 
Q 1681 3103 1420 2742 
Q 1159 2381 1159 1747 
Q 1159 1113 1420 752 
Q 1681 391 2138 391 
Q 2594 391 2855 752 
Q 3116 1113 3116 1747 
z
M 1159 2969 
Q 1341 3281 1617 3432 
Q 1894 3584 2278 3584 
Q 2916 3584 3314 3078 
Q 3713 2572 3713 1747 
Q 3713 922 3314 415 
Q 2916 -91 2278 -91 
Q 1894 -91 1617 61 
Q 1341 213 1159 525 
L 1159 0 
L 581 0 
L 581 4863 
L 1159 4863 
L 1159 2969 
z
" transform="scale(0.015625)"/>
      <path id="DejaVuSans-69" d="M 603 3500 
L 1178 3500 
L 1178 0 
L 603 0 
L 603 3500 
z
M 603 4863 
L 1178 4863 
L 1178 4134 
L 603 4134 
L 603 4863 
z
" transform="scale(0.015625)"/>
     </defs>
     <use xlink:href="#DejaVuSans-53"/>
     <use xlink:href="#DejaVuSans-50" transform="translate(63.476562 0)"/>
     <use xlink:href="#DejaVuSans-4f" transform="translate(123.779297 0)"/>
     <use xlink:href="#DejaVuSans-46" transform="translate(202.490234 0)"/>
     <use xlink:href="#DejaVuSans-2d" transform="translate(260.009766 0)"/>
     <use xlink:href="#DejaVuSans-42" transform="translate(292.46875 0)"/>
     <use xlink:href="#DejaVuSans-20" transform="translate(361.072266 0)"/>
     <use xlink:href="#DejaVuSans-20" transform="translate(392.859375 0)"/>
     <use xlink:href="#DejaVuSans-2d" transform="translate(424.646484 0)"/>
     <use xlink:href="#DejaVuSans-20" transform="translate(460.730469 0)"/>
     <use xlink:href="#DejaVuSans-20" transform="translate(492.517578 0)"/>
     <use xlink:href="#DejaVuSans-54" transform="translate(524.304688 0)"/>
     <use xlink:href="#DejaVuSans-77" transform="translate(568.888672 0)"/>
     <use xlink:href="#DejaVuSans-6f" transform="translate(650.675781 0)"/>
     <use xlink:href="#DejaVuSans-20" transform="translate(711.857422 0)"/>
     <use xlink:href="#DejaVuSans-74" transform="translate(743.644531 0)"/>
     <use xlink:href="#DejaVuSans-72" transform="translate(782.853516 0)"/>
     <use xlink:href="#DejaVuSans-61" transform="translate(823.966797 0)"/>
     <use xlink:href="#DejaVuSans-6e" transform="translate(885.246094 0)"/>
     <use xlink:href="#DejaVuSans-73" transform="translate(948.625 0)"/>
     <use xlink:href="#DejaVuSans-66" transform="translate(1000.724609 0)"/>
     <use xlink:href="#DejaVuSans-6f" transform="translate(1035.929688 0)"/>
     <use xlink:href="#DejaVuSans-72" transform="translate(1097.111328 0)"/>
     <use xlink:href="#DejaVuSans-6d" transform="translate(1136.474609 0)"/>
     <use xlink:href="#DejaVuSans-65" transform="translate(1233.886719 0)"/>
     <use xlink:href="#DejaVuSans-72" transform="translate(1295.410156 0)"/>
     <use xlink:href="#DejaVuSans-73" transform="translate(1336.523438 0)"/>
     <use xlink:href="#DejaVuSans-2c" transform="translate(1388.623047 0)"/>
     <use xlink:href="#DejaVuSans-20" transform="translate(1420.410156 0)"/>
     <use xlink:href="#DejaVuSans-6e" transform="translate(1452.197266 0)"/>
     <use xlink:href="#DejaVuSans-6f" transform="translate(1515.576172 0)"/>
     <use xlink:href="#DejaVuSans-20" transform="translate(1576.757812 0)"/>
     <use xlink:href="#DejaVuSans-62" transform="translate(1608.544922 0)"/>
     <use xlink:href="#DejaVuSans-75" transform="translate(1672.021484 0)"/>
     <use xlink:href="#DejaVuSans-73" transform="translate(1735.400391 0)"/>
     <use xlink:href="#DejaVuSans-2d" transform="translate(1787.5 0)"/>
     <use xlink:href="#DejaVuSans-74" transform="translate(1823.583984 0)"/>
     <use xlink:href="#DejaVuSans-69" transform="translate(1862.792969 0)"/>
     <use xlink:href="#DejaVuSans-65" transform="translate(1890.576172 0)"/>
    </g>
   </g>
   <g id="text_13">
    <!-- Redundant sources, but no tie: a single source loss drops its entire half of the plant. -->
    <g style="fill: #555555" transform="translate(34.730859 357.803437) scale(0.09 -0.09)">
     <defs>
      <path id="DejaVuSans-52" d="M 2841 2188 
Q 3044 2119 3236 1894 
Q 3428 1669 3622 1275 
L 4263 0 
L 3584 0 
L 2988 1197 
Q 2756 1666 2539 1819 
Q 2322 1972 1947 1972 
L 1259 1972 
L 1259 0 
L 628 0 
L 628 4666 
L 2053 4666 
Q 2853 4666 3247 4331 
Q 3641 3997 3641 3322 
Q 3641 2881 3436 2590 
Q 3231 2300 2841 2188 
z
M 1259 4147 
L 1259 2491 
L 2053 2491 
Q 2509 2491 2742 2702 
Q 2975 2913 2975 3322 
Q 2975 3731 2742 3939 
Q 2509 4147 2053 4147 
L 1259 4147 
z
" transform="scale(0.015625)"/>
      <path id="DejaVuSans-64" d="M 2906 2969 
L 2906 4863 
L 3481 4863 
L 3481 0 
L 2906 0 
L 2906 525 
Q 2725 213 2448 61 
Q 2172 -91 1784 -91 
Q 1150 -91 751 415 
Q 353 922 353 1747 
Q 353 2572 751 3078 
Q 1150 3584 1784 3584 
Q 2172 3584 2448 3432 
Q 2725 3281 2906 2969 
z
M 947 1747 
Q 947 1113 1208 752 
Q 1469 391 1925 391 
Q 2381 391 2643 752 
Q 2906 1113 2906 1747 
Q 2906 2381 2643 2742 
Q 2381 3103 1925 3103 
Q 1469 3103 1208 2742 
Q 947 2381 947 1747 
z
" transform="scale(0.015625)"/>
      <path id="DejaVuSans-63" d="M 3122 3366 
L 3122 2828 
Q 2878 2963 2633 3030 
Q 2388 3097 2138 3097 
Q 1578 3097 1268 2742 
Q 959 2388 959 1747 
Q 959 1106 1268 751 
Q 1578 397 2138 397 
Q 2388 397 2633 464 
Q 2878 531 3122 666 
L 3122 134 
Q 2881 22 2623 -34 
Q 2366 -91 2075 -91 
Q 1284 -91 818 406 
Q 353 903 353 1747 
Q 353 2603 823 3093 
Q 1294 3584 2113 3584 
Q 2378 3584 2631 3529 
Q 2884 3475 3122 3366 
z
" transform="scale(0.015625)"/>
      <path id="DejaVuSans-3a" d="M 750 794 
L 1409 794 
L 1409 0 
L 750 0 
L 750 794 
z
M 750 3309 
L 1409 3309 
L 1409 2516 
L 750 2516 
L 750 3309 
z
" transform="scale(0.015625)"/>
      <path id="DejaVuSans-67" d="M 2906 1791 
Q 2906 2416 2648 2759 
Q 2391 3103 1925 3103 
Q 1463 3103 1205 2759 
Q 947 2416 947 1791 
Q 947 1169 1205 825 
Q 1463 481 1925 481 
Q 2391 481 2648 825 
Q 2906 1169 2906 1791 
z
M 3481 434 
Q 3481 -459 3084 -895 
Q 2688 -1331 1869 -1331 
Q 1566 -1331 1297 -1286 
Q 1028 -1241 775 -1147 
L 775 -588 
Q 1028 -725 1275 -790 
Q 1522 -856 1778 -856 
Q 2344 -856 2625 -561 
Q 2906 -266 2906 331 
L 2906 616 
Q 2728 306 2450 153 
Q 2172 0 1784 0 
Q 1141 0 747 490 
Q 353 981 353 1791 
Q 353 2603 747 3093 
Q 1141 3584 1784 3584 
Q 2172 3584 2450 3431 
Q 2728 3278 2906 2969 
L 2906 3500 
L 3481 3500 
L 3481 434 
z
" transform="scale(0.015625)"/>
      <path id="DejaVuSans-70" d="M 1159 525 
L 1159 -1331 
L 581 -1331 
L 581 3500 
L 1159 3500 
L 1159 2969 
Q 1341 3281 1617 3432 
Q 1894 3584 2278 3584 
Q 2916 3584 3314 3078 
Q 3713 2572 3713 1747 
Q 3713 922 3314 415 
Q 2916 -91 2278 -91 
Q 1894 -91 1617 61 
Q 1341 213 1159 525 
z
M 3116 1747 
Q 3116 2381 2855 2742 
Q 2594 3103 2138 3103 
Q 1681 3103 1420 2742 
Q 1159 2381 1159 1747 
Q 1159 1113 1420 752 
Q 1681 391 2138 391 
Q 2594 391 2855 752 
Q 3116 1113 3116 1747 
z
" transform="scale(0.015625)"/>
      <path id="DejaVuSans-68" d="M 3513 2113 
L 3513 0 
L 2938 0 
L 2938 2094 
Q 2938 2591 2744 2837 
Q 2550 3084 2163 3084 
Q 1697 3084 1428 2787 
Q 1159 2491 1159 1978 
L 1159 0 
L 581 0 
L 581 4863 
L 1159 4863 
L 1159 2956 
Q 1366 3272 1645 3428 
Q 1925 3584 2291 3584 
Q 2894 3584 3203 3211 
Q 3513 2838 3513 2113 
z
" transform="scale(0.015625)"/>
      <path id="DejaVuSans-2e" d="M 684 794 
L 1344 794 
L 1344 0 
L 684 0 
L 684 794 
z
" transform="scale(0.015625)"/>
     </defs>
     <use xlink:href="#DejaVuSans-52"/>
     <use xlink:href="#DejaVuSans-65" transform="translate(64.982422 0)"/>
     <use xlink:href="#DejaVuSans-64" transform="translate(126.505859 0)"/>
     <use xlink:href="#DejaVuSans-75" transform="translate(189.982422 0)"/>
     <use xlink:href="#DejaVuSans-6e" transform="translate(253.361328 0)"/>
     <use xlink:href="#DejaVuSans-64" transform="translate(316.740234 0)"/>
     <use xlink:href="#DejaVuSans-61" transform="translate(380.216797 0)"/>
     <use xlink:href="#DejaVuSans-6e" transform="translate(441.496094 0)"/>
     <use xlink:href="#DejaVuSans-74" transform="translate(504.875 0)"/>
     <use xlink:href="#DejaVuSans-20" transform="translate(544.083984 0)"/>
     <use xlink:href="#DejaVuSans-73" transform="translate(575.871094 0)"/>
     <use xlink:href="#DejaVuSans-6f" transform="translate(627.970703 0)"/>
     <use xlink:href="#DejaVuSans-75" transform="translate(689.152344 0)"/>
     <use xlink:href="#DejaVuSans-72" transform="translate(752.53125 0)"/>
     <use xlink:href="#DejaVuSans-63" transform="translate(791.394531 0)"/>
     <use xlink:href="#DejaVuSans-65" transform="translate(846.375 0)"/>
     <use xlink:href="#DejaVuSans-73" transform="translate(907.898438 0)"/>
     <use xlink:href="#DejaVuSans-2c" transform="translate(959.998047 0)"/>
     <use xlink:href="#DejaVuSans-20" transform="translate(991.785156 0)"/>
     <use xlink:href="#DejaVuSans-62" transform="translate(1023.572266 0)"/>
     <use xlink:href="#DejaVuSans-75" transform="translate(1087.048828 0)"/>
     <use xlink:href="#DejaVuSans-74" transform="translate(1150.427734 0)"/>
     <use xlink:href="#DejaVuSans-20" transform="translate(1189.636719 0)"/>
     <use xlink:href="#DejaVuSans-6e" transform="translate(1221.423828 0)"/>
     <use xlink:href="#DejaVuSans-6f" transform="translate(1284.802734 0)"/>
     <use xlink:href="#DejaVuSans-20" transform="translate(1345.984375 0)"/>
     <use xlink:href="#DejaVuSans-74" transform="translate(1377.771484 0)"/>
     <use xlink:href="#DejaVuSans-69" transform="translate(1416.980469 0)"/>
     <use xlink:href="#DejaVuSans-65" transform="translate(1444.763672 0)"/>
     <use xlink:href="#DejaVuSans-3a" transform="translate(1506.287109 0)"/>
     <use xlink:href="#DejaVuSans-20" transform="translate(1539.978516 0)"/>
     <use xlink:href="#DejaVuSans-61" transform="translate(1571.765625 0)"/>
     <use xlink:href="#DejaVuSans-20" transform="translate(1633.044922 0)"/>
     <use xlink:href="#DejaVuSans-73" transform="translate(1664.832031 0)"/>
     <use xlink:href="#DejaVuSans-69" transform="translate(1716.931641 0)"/>
     <use xlink:href="#DejaVuSans-6e" transform="translate(1744.714844 0)"/>
     <use xlink:href="#DejaVuSans-67" transform="translate(1808.09375 0)"/>
     <use xlink:href="#DejaVuSans-6c" transform="translate(1871.570312 0)"/>
     <use xlink:href="#DejaVuSans-65" transform="translate(1899.353516 0)"/>
     <use xlink:href="#DejaVuSans-20" transform="translate(1960.876953 0)"/>
     <use xlink:href="#DejaVuSans-73" transform="translate(1992.664062 0)"/>
     <use xlink:href="#DejaVuSans-6f" transform="translate(2044.763672 0)"/>
     <use xlink:href="#DejaVuSans-75" transform="translate(2105.945312 0)"/>
     <use xlink:href="#DejaVuSans-72" transform="translate(2169.324219 0)"/>
     <use xlink:href="#DejaVuSans-63" transform="translate(2208.1875 0)"/>
     <use xlink:href="#DejaVuSans-65" transform="translate(2263.167969 0)"/>
     <use xlink:href="#DejaVuSans-20" transform="translate(2324.691406 0)"/>
     <use xlink:href="#DejaVuSans-6c" transform="translate(2356.478516 0)"/>
     <use xlink:href="#DejaVuSans-6f" transform="translate(2384.261719 0)"/>
     <use xlink:href="#DejaVuSans-73" transform="translate(2445.443359 0)"/>
     <use xlink:href="#DejaVuSans-73" transform="translate(2497.542969 0)"/>
     <use xlink:href="#DejaVuSans-20" transform="translate(2549.642578 0)"/>
     <use xlink:href="#DejaVuSans-64" transform="translate(2581.429688 0)"/>
     <use xlink:href="#DejaVuSans-72" transform="translate(2644.90625 0)"/>
     <use xlink:href="#DejaVuSans-6f" transform="translate(2683.769531 0)"/>
     <use xlink:href="#DejaVuSans-70" transform="translate(2744.951172 0)"/>
     <use xlink:href="#DejaVuSans-73" transform="translate(2808.427734 0)"/>
     <use xlink:href="#DejaVuSans-20" transform="translate(2860.527344 0)"/>
     <use xlink:href="#DejaVuSans-69" transform="translate(2892.314453 0)"/>
     <use xlink:href="#DejaVuSans-74" transform="translate(2920.097656 0)"/>
     <use xlink:href="#DejaVuSans-73" transform="translate(2959.306641 0)"/>
     <use xlink:href="#DejaVuSans-20" transform="translate(3011.40625 0)"/>
     <use xlink:href="#DejaVuSans-65" transform="translate(3043.193359 0)"/>
     <use xlink:href="#DejaVuSans-6e" transform="translate(3104.716797 0)"/>
     <use xlink:href="#DejaVuSans-74" transform="translate(3168.095703 0)"/>
     <use xlink:href="#DejaVuSans-69" transform="translate(3207.304688 0)"/>
     <use xlink:href="#DejaVuSans-72" transform="translate(3235.087891 0)"/>
     <use xlink:href="#DejaVuSans-65" transform="translate(3273.951172 0)"/>
     <use xlink:href="#DejaVuSans-20" transform="translate(3335.474609 0)"/>
     <use xlink:href="#DejaVuSans-68" transform="translate(3367.261719 0)"/>
     <use xlink:href="#DejaVuSans-61" transform="translate(3430.640625 0)"/>
     <use xlink:href="#DejaVuSans-6c" transform="translate(3491.919922 0)"/>
     <use xlink:href="#DejaVuSans-66" transform="translate(3519.703125 0)"/>
     <use xlink:href="#DejaVuSans-20" transform="translate(3554.908203 0)"/>
     <use xlink:href="#DejaVuSans-6f" transform="translate(3586.695312 0)"/>
     <use xlink:href="#DejaVuSans-66" transform="translate(3647.876953 0)"/>
     <use xlink:href="#DejaVuSans-20" transform="translate(3683.082031 0)"/>
     <use xlink:href="#DejaVuSans-74" transform="translate(3714.869141 0)"/>
     <use xlink:href="#DejaVuSans-68" transform="translate(3754.078125 0)"/>
     <use xlink:href="#DejaVuSans-65" transform="translate(3817.457031 0)"/>
     <use xlink:href="#DejaVuSans-20" transform="translate(3878.980469 0)"/>
     <use xlink:href="#DejaVuSans-70" transform="translate(3910.767578 0)"/>
     <use xlink:href="#DejaVuSans-6c" transform="translate(3974.244141 0)"/>
     <use xlink:href="#DejaVuSans-61" transform="translate(4002.027344 0)"/>
     <use xlink:href="#DejaVuSans-6e" transform="translate(4063.306641 0)"/>
     <use xlink:href="#DejaVuSans-74" transform="translate(4126.685547 0)"/>
     <use xlink:href="#DejaVuSans-2e" transform="translate(4165.894531 0)"/>
    </g>
   </g>
   <g id="patch_16">
    <path d="M 220.021875 86.4 
C 220.690187 86.4 221.331216 86.134477 221.803784 85.661909 
C 222.276352 85.189341 222.541875 84.548312 222.541875 83.88 
C 222.541875 83.211688 222.276352 82.570659 221.803784 82.098091 
C 221.331216 81.625523 220.690187 81.36 220.021875 81.36 
C 219.353563 81.36 218.712534 81.625523 218.239966 82.098091 
C 217.767398 82.570659 217.501875 83.211688 217.501875 83.88 
C 217.501875 84.548312 217.767398 85.189341 218.239966 85.661909 
C 218.712534 86.134477 219.353563 86.4 220.021875 86.4 
z
" clip-path="url(#p8e4f013b4a)" style="fill: #111111; stroke: #111111; stroke-width: 1.6; stroke-linejoin: miter"/>
   </g>
   <g id="patch_17">
    <path d="M 112.021875 86.4 
C 112.690187 86.4 113.331216 86.134477 113.803784 85.661909 
C 114.276352 85.189341 114.541875 84.548312 114.541875 83.88 
C 114.541875 83.211688 114.276352 82.570659 113.803784 82.098091 
C 113.331216 81.625523 112.690187 81.36 112.021875 81.36 
C 111.353563 81.36 110.712534 81.625523 110.239966 82.098091 
C 109.767398 82.570659 109.501875 83.211688 109.501875 83.88 
C 109.501875 84.548312 109.767398 85.189341 110.239966 85.661909 
C 110.712534 86.134477 111.353563 86.4 112.021875 86.4 
z
" clip-path="url(#p8e4f013b4a)" style="fill: #111111; stroke: #111111; stroke-width: 1.6; stroke-linejoin: miter"/>
   </g>
   <g id="patch_18">
    <path d="M 112.021875 219.6 
C 112.690187 219.6 113.331216 219.334477 113.803784 218.861909 
C 114.276352 218.389341 114.541875 217.748312 114.541875 217.08 
C 114.541875 216.411688 114.276352 215.770659 113.803784 215.298091 
C 113.331216 214.825523 112.690187 214.56 112.021875 214.56 
C 111.353563 214.56 110.712534 214.825523 110.239966 215.298091 
C 109.767398 215.770659 109.501875 216.411688 109.501875 217.08 
C 109.501875 217.748312 109.767398 218.389341 110.239966 218.861909 
C 110.712534 219.334477 111.353563 219.6 112.021875 219.6 
z
" clip-path="url(#p8e4f013b4a)" style="fill: #111111; stroke: #111111; stroke-width: 1.6; stroke-linejoin: miter"/>
   </g>
   <g id="patch_19">
    <path d="M 328.021875 86.4 
C 328.690187 86.4 329.331216 86.134477 329.803784 85.661909 
C 330.276352 85.189341 330.541875 84.548312 330.541875 83.88 
C 330.541875 83.211688 330.276352 82.570659 329.803784 82.098091 
C 329.331216 81.625523 328.690187 81.36 328.021875 81.36 
C 327.353563 81.36 326.712534 81.625523 326.239966 82.098091 
C 325.767398 82.570659 325.501875 83.211688 325.501875 83.88 
C 325.501875 84.548312 325.767398 85.189341 326.239966 85.661909 
C 326.712534 86.134477 327.353563 86.4 328.021875 86.4 
z
" clip-path="url(#p8e4f013b4a)" style="fill: #111111; stroke: #111111; stroke-width: 1.6; stroke-linejoin: miter"/>
   </g>
   <g id="patch_20">
    <path d="M 328.021875 219.6 
C 328.690187 219.6 329.331216 219.334477 329.803784 218.861909 
C 330.276352 218.389341 330.541875 217.748312 330.541875 217.08 
C 330.541875 216.411688 330.276352 215.770659 329.803784 215.298091 
C 329.331216 214.825523 328.690187 214.56 328.021875 214.56 
C 327.353563 214.56 326.712534 214.825523 326.239966 215.298091 
C 325.767398 215.770659 325.501875 216.411688 325.501875 217.08 
C 325.501875 217.748312 325.767398 218.389341 326.239966 218.861909 
C 326.712534 219.334477 327.353563 219.6 328.021875 219.6 
z
" clip-path="url(#p8e4f013b4a)" style="fill: #111111; stroke: #111111; stroke-width: 1.6; stroke-linejoin: miter"/>
   </g>
   <g id="patch_21">
    <path d="M 112.021875 219.6 
C 112.690187 219.6 113.331216 219.334477 113.803784 218.861909 
C 114.276352 218.389341 114.541875 217.748312 114.541875 217.08 
C 114.541875 216.411688 114.276352 215.770659 113.803784 215.298091 
C 113.331216 214.825523 112.690187 214.56 112.021875 214.56 
C 111.353563 214.56 110.712534 214.825523 110.239966 215.298091 
C 109.767398 215.770659 109.501875 216.411688 109.501875 217.08 
C 109.501875 217.748312 109.767398 218.389341 110.239966 218.861909 
C 110.712534 219.334477 111.353563 219.6 112.021875 219.6 
z
" clip-path="url(#p8e4f013b4a)" style="fill: #111111; stroke: #111111; stroke-width: 1.6; stroke-linejoin: miter"/>
   </g>
   <g id="text_14">
    <!-- MCC-1 -->
    <g style="fill: #111111" transform="translate(92.483438 272.23125) scale(0.12 -0.12)">
     <defs>
      <path id="DejaVuSans-4d" d="M 628 4666 
L 1569 4666 
L 2759 1491 
L 3956 4666 
L 4897 4666 
L 4897 0 
L 4281 0 
L 4281 4097 
L 3078 897 
L 2444 897 
L 1241 4097 
L 1241 0 
L 628 0 
L 628 4666 
z
" transform="scale(0.015625)"/>
      <path id="DejaVuSans-43" d="M 4122 4306 
L 4122 3641 
Q 3803 3938 3442 4084 
Q 3081 4231 2675 4231 
Q 1875 4231 1450 3742 
Q 1025 3253 1025 2328 
Q 1025 1406 1450 917 
Q 1875 428 2675 428 
Q 3081 428 3442 575 
Q 3803 722 4122 1019 
L 4122 359 
Q 3791 134 3420 21 
Q 3050 -91 2638 -91 
Q 1578 -91 968 557 
Q 359 1206 359 2328 
Q 359 3453 968 4101 
Q 1578 4750 2638 4750 
Q 3056 4750 3426 4639 
Q 3797 4528 4122 4306 
z
" transform="scale(0.015625)"/>
     </defs>
     <use xlink:href="#DejaVuSans-4d"/>
     <use xlink:href="#DejaVuSans-43" transform="translate(86.279297 0)"/>
     <use xlink:href="#DejaVuSans-43" transform="translate(156.103516 0)"/>
     <use xlink:href="#DejaVuSans-2d" transform="translate(225.927734 0)"/>
     <use xlink:href="#DejaVuSans-31" transform="translate(262.011719 0)"/>
    </g>
   </g>
   <g id="text_15">
    <!-- Bus A loads -->
    <g style="fill: #444444" transform="translate(85.8375 285.083438) scale(0.09 -0.09)">
     <use xlink:href="#DejaVuSans-42"/>
     <use xlink:href="#DejaVuSans-75" transform="translate(68.603516 0)"/>
     <use xlink:href="#DejaVuSans-73" transform="translate(131.982422 0)"/>
     <use xlink:href="#DejaVuSans-20" transform="translate(184.082031 0)"/>
     <use xlink:href="#DejaVuSans-41" transform="translate(215.869141 0)"/>
     <use xlink:href="#DejaVuSans-20" transform="translate(284.277344 0)"/>
     <use xlink:href="#DejaVuSans-6c" transform="translate(316.064453 0)"/>
     <use xlink:href="#DejaVuSans-6f" transform="translate(343.847656 0)"/>
     <use xlink:href="#DejaVuSans-61" transform="translate(405.029297 0)"/>
     <use xlink:href="#DejaVuSans-64" transform="translate(466.308594 0)"/>
     <use xlink:href="#DejaVuSans-73" transform="translate(529.785156 0)"/>
    </g>
   </g>
   <g id="patch_22">
    <path d="M 328.021875 219.6 
C 328.690187 219.6 329.331216 219.334477 329.803784 218.861909 
C 330.276352 218.389341 330.541875 217.748312 330.541875 217.08 
C 330.541875 216.411688 330.276352 215.770659 329.803784 215.298091 
C 329.331216 214.825523 328.690187 214.56 328.021875 214.56 
C 327.353563 214.56 326.712534 214.825523 326.239966 215.298091 
C 325.767398 215.770659 325.501875 216.411688 325.501875 217.08 
C 325.501875 217.748312 325.767398 218.389341 326.239966 218.861909 
C 326.712534 219.334477 327.353563 219.6 328.021875 219.6 
z
" clip-path="url(#p8e4f013b4a)" style="fill: #111111; stroke: #111111; stroke-width: 1.6; stroke-linejoin: miter"/>
   </g>
   <g id="text_16">
    <!-- MCC-2 -->
    <g style="fill: #111111" transform="translate(308.483438 272.23125) scale(0.12 -0.12)">
     <use xlink:href="#DejaVuSans-4d"/>
     <use xlink:href="#DejaVuSans-43" transform="translate(86.279297 0)"/>
     <use xlink:href="#DejaVuSans-43" transform="translate(156.103516 0)"/>
     <use xlink:href="#DejaVuSans-2d" transform="translate(225.927734 0)"/>
     <use xlink:href="#DejaVuSans-32" transform="translate(262.011719 0)"/>
    </g>
   </g>
   <g id="text_17">
    <!-- Bus B loads -->
    <g style="fill: #444444" transform="translate(301.828359 285.083438) scale(0.09 -0.09)">
     <use xlink:href="#DejaVuSans-42"/>
     <use xlink:href="#DejaVuSans-75" transform="translate(68.603516 0)"/>
     <use xlink:href="#DejaVuSans-73" transform="translate(131.982422 0)"/>
     <use xlink:href="#DejaVuSans-20" transform="translate(184.082031 0)"/>
     <use xlink:href="#DejaVuSans-42" transform="translate(215.869141 0)"/>
     <use xlink:href="#DejaVuSans-20" transform="translate(284.472656 0)"/>
     <use xlink:href="#DejaVuSans-6c" transform="translate(316.259766 0)"/>
     <use xlink:href="#DejaVuSans-6f" transform="translate(344.042969 0)"/>
     <use xlink:href="#DejaVuSans-61" transform="translate(405.224609 0)"/>
     <use xlink:href="#DejaVuSans-64" transform="translate(466.503906 0)"/>
     <use xlink:href="#DejaVuSans-73" transform="translate(529.980469 0)"/>
    </g>
   </g>
  </g>
 </g>
 <defs>
  <clipPath id="p8e4f013b4a">
   <rect x="3.421875" y="0" width="440.4" height="364.5"/>
  </clipPath>
 </defs>
</svg>
